STARTFONT 2.3
FONT -FontForge-STIX Two Math-Book-R-Normal--18-180-72-72-P-123-ISO10646-1
SIZE 18 72 72  2
FONTBOUNDINGBOX 74 78 -18 -30
COMMENT "Generated by fontforge, http://fontforge.sourceforge.net"
COMMENT "Copyright 2001-2021 The STIX Fonts Project Authors (https://github.com/stipub/stixfonts)"
STARTPROPERTIES 41
FOUNDRY "FontForge"
FAMILY_NAME "STIX Two Math"
WEIGHT_NAME "Book"
SLANT "R"
SETWIDTH_NAME "Normal"
ADD_STYLE_NAME ""
PIXEL_SIZE 18
POINT_SIZE 180
RESOLUTION_X 72
RESOLUTION_Y 72
SPACING "P"
AVERAGE_WIDTH 123
CHARSET_REGISTRY "ISO10646"
CHARSET_ENCODING "1"
FONTNAME_REGISTRY ""
CHARSET_COLLECTIONS "ASCII ISOLatin1Encoding ISO8859-2 ISO8859-5 ISO8859-7 ISO8859-9 ISO8859-4 ISO10646-1"
BITS_PER_PIXEL 2
FONT_NAME "STIXTwoMath-Regular"
FACE_NAME "STIX Two Math Regular"
COPYRIGHT "Copyright 2001-2021 The STIX Fonts Project Authors (https://github.com/stipub/stixfonts)"
FONT_VERSION "2.12 b168a"
FONT_ASCENT 14
FONT_DESCENT 4
UNDERLINE_POSITION -2
UNDERLINE_THICKNESS 1
X_HEIGHT 8
CAP_HEIGHT 11
RAW_ASCENT 762
RAW_DESCENT 238
NORM_SPACE 4
RELATIVE_WEIGHT 40
RELATIVE_SETWIDTH 50
SUPERSCRIPT_X 0
SUPERSCRIPT_Y 9
SUPERSCRIPT_SIZE 9
SUBSCRIPT_X 0
SUBSCRIPT_Y 4
SUBSCRIPT_SIZE 9
FIGURE_WIDTH 9
AVG_LOWERCASE_WIDTH 88
AVG_UPPERCASE_WIDTH 122
ENDPROPERTIES
CHARS 6611
STARTCHAR space
ENCODING 32
SWIDTH 235 0
DWIDTH 4 0
BBX 1 1 0 0
BITMAP
00
ENDCHAR
STARTCHAR exclam
ENCODING 33
SWIDTH 283 0
DWIDTH 5 0
BBX 3 12 1 0
BITMAP
74
74
74
74
34
30
30
30
20
00
74
74
ENDCHAR
STARTCHAR quotedbl
ENCODING 34
SWIDTH 334 0
DWIDTH 6 0
BBX 4 4 1 9
BITMAP
D7
D7
C6
85
ENDCHAR
STARTCHAR numbersign
ENCODING 35
SWIDTH 702 0
DWIDTH 13 0
BBX 11 12 1 0
BITMAP
028180
024180
030240
6BABA4
060300
060300
0A0600
AFAFA0
090A00
0C0900
0C0900
180C00
ENDCHAR
STARTCHAR dollar
ENCODING 36
SWIDTH 495 0
DWIDTH 9 0
BBX 9 15 0 -2
BITMAP
008000
0AE900
348A00
748200
788100
2E8000
0BE000
01FD00
009F00
508740
608740
748A00
1EE800
008000
004000
ENDCHAR
STARTCHAR percent
ENCODING 37
SWIDTH 692 0
DWIDTH 12 0
BBX 11 12 1 0
BITMAP
2A4190
A0AA80
D08300
C08900
D21800
692400
0062A0
008A14
024D08
021C14
090C20
180B90
ENDCHAR
STARTCHAR ampersand
ENCODING 38
SWIDTH 736 0
DWIDTH 13 0
BBX 13 12 0 0
BITMAP
01A90000
03430000
03430000
038A0000
01E4BF00
02E02800
1D742000
38386000
741E8000
740B4000
380BD040
1BA4BA00
ENDCHAR
STARTCHAR quotesingle
ENCODING 39
SWIDTH 187 0
DWIDTH 3 0
BBX 2 4 1 9
BITMAP
D0
D0
C0
80
ENDCHAR
STARTCHAR parenleft
ENCODING 40
SWIDTH 357 0
DWIDTH 6 0
BBX 6 17 0 -4
BITMAP
0050
0240
0600
0C00
2800
3800
3400
3400
7400
3400
3400
2800
1C00
0900
0240
0090
0010
ENDCHAR
STARTCHAR parenright
ENCODING 41
SWIDTH 357 0
DWIDTH 6 0
BBX 5 16 1 -3
BITMAP
8000
2000
1800
0A00
0700
0340
0340
0380
0380
0380
0340
0700
0A00
0C00
2400
9000
ENDCHAR
STARTCHAR asterisk
ENCODING 42
SWIDTH 410 0
DWIDTH 7 0
BBX 7 7 0 6
BITMAP
0240
0340
7628
1AA0
1AA0
7628
0240
ENDCHAR
STARTCHAR plus
ENCODING 43
SWIDTH 720 0
DWIDTH 13 0
BBX 11 11 1 -1
BITMAP
007000
007000
007000
007000
007000
AABAA8
007000
007000
007000
007000
003000
ENDCHAR
STARTCHAR comma
ENCODING 44
SWIDTH 245 0
DWIDTH 4 0
BBX 3 5 1 -3
BITMAP
F4
B4
24
60
40
ENDCHAR
STARTCHAR hyphen
ENCODING 45
SWIDTH 315 0
DWIDTH 6 0
BBX 4 1 1 4
BITMAP
AA
ENDCHAR
STARTCHAR period
ENCODING 46
SWIDTH 245 0
DWIDTH 4 0
BBX 2 2 1 0
BITMAP
B0
B0
ENDCHAR
STARTCHAR slash
ENCODING 47
SWIDTH 386 0
DWIDTH 7 0
BBX 6 15 0 -2
BITMAP
0020
0030
0060
0090
00C0
0180
0240
0300
0600
0900
0C00
1800
2400
3000
6000
ENDCHAR
STARTCHAR zero
ENCODING 48
SWIDTH 495 0
DWIDTH 9 0
BBX 9 12 0 0
BITMAP
06A400
1C1D00
380A00
740B00
740740
740740
740740
740740
740B00
380A00
1D1D00
06A400
ENDCHAR
STARTCHAR one
ENCODING 49
SWIDTH 495 0
DWIDTH 9 0
BBX 7 12 1 0
BITMAP
1B40
5B40
0740
0740
0740
0740
0740
0740
0740
0740
0780
7FF8
ENDCHAR
STARTCHAR two
ENCODING 50
SWIDTH 495 0
DWIDTH 9 0
BBX 9 12 0 0
BITMAP
0AE400
202D00
100E00
000E00
000E00
001C00
003400
00A000
028000
060140
1D0600
7FFF00
ENDCHAR
STARTCHAR three
ENCODING 51
SWIDTH 495 0
DWIDTH 9 0
BBX 7 12 1 0
BITMAP
1A90
50B0
0074
0070
0180
0BD0
00B4
002C
002C
0028
9020
BE80
ENDCHAR
STARTCHAR four
ENCODING 52
SWIDTH 495 0
DWIDTH 9 0
BBX 9 12 0 0
BITMAP
002800
007800
00A800
026800
062800
082800
242800
602800
AABE40
002800
002800
002800
ENDCHAR
STARTCHAR five
ENCODING 53
SWIDTH 495 0
DWIDTH 9 0
BBX 7 12 1 0
BITMAP
1FF8
1FF4
2000
2000
3F80
3FF4
0078
002C
001C
0018
A060
BE80
ENDCHAR
STARTCHAR six
ENCODING 54
SWIDTH 495 0
DWIDTH 9 0
BBX 7 12 1 0
BITMAP
01A4
0A00
2800
7000
A690
F078
E02C
D01C
E01C
A01C
7438
1AE0
ENDCHAR
STARTCHAR seven
ENCODING 55
SWIDTH 495 0
DWIDTH 9 0
BBX 8 12 1 0
BITMAP
BFFD
FFFC
8018
0024
0030
00A0
00D0
0180
0240
0700
0A00
0D00
ENDCHAR
STARTCHAR eight
ENCODING 56
SWIDTH 495 0
DWIDTH 9 0
BBX 7 12 1 0
BITMAP
2A90
A034
E028
A034
7860
1F80
16E0
6078
D02C
D02C
E028
2AA0
ENDCHAR
STARTCHAR nine
ENCODING 57
SWIDTH 495 0
DWIDTH 9 0
BBX 8 12 0 0
BITMAP
0BA4
281D
340E
740B
740B
340B
2D1F
0A9A
000D
0028
00A0
1A40
ENDCHAR
STARTCHAR colon
ENCODING 58
SWIDTH 245 0
DWIDTH 4 0
BBX 2 9 1 0
BITMAP
B0
B0
00
00
00
00
00
B0
B0
ENDCHAR
STARTCHAR semicolon
ENCODING 59
SWIDTH 245 0
DWIDTH 4 0
BBX 3 12 1 -3
BITMAP
B0
B0
00
00
00
00
00
F4
B4
24
60
40
ENDCHAR
STARTCHAR less
ENCODING 60
SWIDTH 720 0
DWIDTH 13 0
BBX 11 11 1 -1
BITMAP
000014
0001B4
001B40
01B400
1F4000
7D0000
079000
007900
000790
000078
000004
ENDCHAR
STARTCHAR equal
ENCODING 61
SWIDTH 720 0
DWIDTH 13 0
BBX 11 5 1 2
BITMAP
AAAAA8
000000
000000
000000
AAAAA8
ENDCHAR
STARTCHAR greater
ENCODING 62
SWIDTH 720 0
DWIDTH 13 0
BBX 11 11 1 -1
BITMAP
500000
790000
079000
007900
000790
0001F4
001B40
01B400
1F4000
B40000
400000
ENDCHAR
STARTCHAR question
ENCODING 63
SWIDTH 411 0
DWIDTH 7 0
BBX 7 12 0 0
BITMAP
1AE0
7038
702C
2028
0034
00A0
01C0
0240
0200
0000
0780
0780
ENDCHAR
STARTCHAR at
ENCODING 64
SWIDTH 905 0
DWIDTH 16 0
BBX 15 15 1 -3
BITMAP
006AA400
02901A00
1D000280
341A64D0
70A0B460
A0D07430
D1C03430
D1C07434
92C07430
A1C07460
70D0B490
347A2E40
1D000000
07900500
006AA400
ENDCHAR
STARTCHAR A
ENCODING 65
SWIDTH 718 0
DWIDTH 13 0
BBX 13 12 0 0
BITMAP
001C0000
002D0000
002E0000
00974000
00C38000
0182C000
0201E000
07AAF000
09007400
0C003C00
28002D00
BE00BF80
ENDCHAR
STARTCHAR B
ENCODING 66
SWIDTH 618 0
DWIDTH 11 0
BBX 11 12 0 0
BITMAP
6FAE40
0B01E0
0B00F0
0B00E0
0B01D0
0BAE40
0B01D0
0B00B4
0B0074
0B00B4
0B01F0
6FAB80
ENDCHAR
STARTCHAR C
ENCODING 67
SWIDTH 670 0
DWIDTH 12 0
BBX 10 12 1 0
BITMAP
02AFF0
1E01F0
780070
B00020
F00000
E00000
E00000
F00000
B00000
780010
1E0060
06EA40
ENDCHAR
STARTCHAR D
ENCODING 68
SWIDTH 730 0
DWIDTH 13 0
BBX 13 12 0 0
BITMAP
6FAE9000
0B01B400
0B002D00
0B000E00
0B000B00
0B000B40
0B000B40
0B000B00
0B000E00
0B002D00
0B00B400
6FAA9000
ENDCHAR
STARTCHAR E
ENCODING 69
SWIDTH 626 0
DWIDTH 11 0
BBX 11 12 0 0
BITMAP
6FABF0
0B0020
0B0010
0B0080
0B0180
0BAB80
0B0080
0B0000
0B0008
0B0018
0B0024
6FABF4
ENDCHAR
STARTCHAR F
ENCODING 70
SWIDTH 588 0
DWIDTH 11 0
BBX 11 12 0 0
BITMAP
6FFFF4
0B0024
0B0000
0B0080
0B0180
0BAB80
0B0080
0B0000
0B0000
0B0000
0B4000
7FE000
ENDCHAR
STARTCHAR G
ENCODING 71
SWIDTH 720 0
DWIDTH 13 0
BBX 12 12 1 0
BITMAP
02AFF0
1D01B0
380030
B00020
F00000
E00000
E002FD
F000B4
B000B0
7800B0
2E00B0
06EA80
ENDCHAR
STARTCHAR H
ENCODING 72
SWIDTH 777 0
DWIDTH 14 0
BBX 13 12 1 0
BITMAP
BF81FF40
1D003C00
1D002C00
1D002C00
1D002C00
1EAABC00
1D002C00
1D002C00
1D002C00
1D002C00
1D003C00
BF81FF40
ENDCHAR
STARTCHAR I
ENCODING 73
SWIDTH 357 0
DWIDTH 6 0
BBX 6 12 0 0
BITMAP
7FE0
0B00
0B00
0B00
0B00
0B00
0B00
0B00
0B00
0B00
0B00
7FE0
ENDCHAR
STARTCHAR J
ENCODING 74
SWIDTH 396 0
DWIDTH 7 0
BBX 7 12 0 0
BITMAP
1BF8
02D0
02C0
02C0
02C0
02C0
02C0
02C0
02C0
42C0
E2C0
7A40
ENDCHAR
STARTCHAR K
ENCODING 75
SWIDTH 702 0
DWIDTH 13 0
BBX 13 12 0 0
BITMAP
7FE2FE00
0B00A000
0B018000
0B060000
0B180000
0BA00000
0BB40000
0B2E0000
0B0B8000
0B02E000
0B00B800
7FE2FF40
ENDCHAR
STARTCHAR L
ENCODING 76
SWIDTH 585 0
DWIDTH 11 0
BBX 10 12 0 0
BITMAP
7FE000
0B4000
0B0000
0B0000
0B0000
0B0000
0B0000
0B0000
0B0010
0B0020
0B0070
2FEBE0
ENDCHAR
STARTCHAR M
ENCODING 77
SWIDTH 895 0
DWIDTH 16 0
BBX 16 12 0 0
BITMAP
7F4001FD
0FC002F0
0AD007E0
09E009E0
08F00CE0
087818E0
083C34E0
082D60E0
080E90E0
080BC0E0
0D0740F0
7F8207FD
ENDCHAR
STARTCHAR N
ENCODING 78
SWIDTH 742 0
DWIDTH 13 0
BBX 13 12 0 0
BITMAP
7F007F80
0F800D00
0BD00900
09F40900
087C0900
082E0900
080B8900
0803D900
0801F900
08007D00
0D002D00
7F800900
ENDCHAR
STARTCHAR O
ENCODING 79
SWIDTH 738 0
DWIDTH 13 0
BBX 12 12 1 0
BITMAP
06AA40
1D01E0
780074
B0003C
F0002D
F0002D
F0002D
F0002D
B4003C
780074
1D01E0
06AA40
ENDCHAR
STARTCHAR P
ENCODING 80
SWIDTH 569 0
DWIDTH 10 0
BBX 9 12 1 0
BITMAP
BEB900
2C0B40
2C0380
2C0380
2C0380
2C0B00
2EA400
2C0000
2C0000
2C0000
2D0000
BF8000
ENDCHAR
STARTCHAR Q
ENCODING 81
SWIDTH 737 0
DWIDTH 13 0
BBX 12 15 1 -3
BITMAP
06AA40
1D01E0
380074
B0003C
F0002D
E0002D
E0002D
F0002D
B0003C
780074
2D01E0
06EE40
002E00
000BD0
0001AE
ENDCHAR
STARTCHAR R
ENCODING 82
SWIDTH 659 0
DWIDTH 12 0
BBX 11 12 1 0
BITMAP
BEB900
2C0B40
2C0380
2C0380
2C0780
2C1E00
2EF400
2C7800
2C1E00
2C0B40
2C03D0
BF81F8
ENDCHAR
STARTCHAR S
ENCODING 83
SWIDTH 504 0
DWIDTH 9 0
BBX 9 12 0 0
BITMAP
0ABE00
280B00
340300
380200
2F4000
0BE000
01BD00
001F00
500740
600740
740B00
7FA800
ENDCHAR
STARTCHAR T
ENCODING 84
SWIDTH 603 0
DWIDTH 11 0
BBX 11 12 0 0
BITMAP
BEFAF4
907424
807408
007400
007400
007400
007400
007400
007400
007400
00B400
02FE00
ENDCHAR
STARTCHAR U
ENCODING 85
SWIDTH 752 0
DWIDTH 14 0
BBX 13 12 0 0
BITMAP
7FD03FC0
0F000A00
0E000A00
0E000A00
0E000A00
0E000A00
0E000A00
0E000900
0B000900
0B000800
03802800
01BA9000
ENDCHAR
STARTCHAR V
ENCODING 86
SWIDTH 680 0
DWIDTH 12 0
BBX 13 12 0 0
BITMAP
FF807F40
2D001C00
1E002800
0B003000
07806000
03C09000
02D08000
00E24000
00B20000
007A0000
002D0000
00180000
ENDCHAR
STARTCHAR W
ENCODING 87
SWIDTH 944 0
DWIDTH 17 0
BBX 17 12 0 0
BITMAP
FF4FF42F80
2D02D00A00
1E01E00900
0F00F00C00
0740F41800
0381B82400
02D22C3000
01E21D6000
00F90F9000
007C078000
0038034000
0024020000
ENDCHAR
STARTCHAR X
ENCODING 88
SWIDTH 664 0
DWIDTH 12 0
BBX 12 12 0 0
BITMAP
BFD1FE
0F4070
0780C0
02D240
00F600
007C00
007D00
008B00
024780
0A02E0
1C00F4
BE02FE
ENDCHAR
STARTCHAR Y
ENCODING 89
SWIDTH 647 0
DWIDTH 12 0
BBX 12 12 0 0
BITMAP
FF80FE
2E0034
0B4090
078180
02D200
00F600
007C00
003800
003800
003800
003C00
02FF40
ENDCHAR
STARTCHAR Z
ENCODING 90
SWIDTH 594 0
DWIDTH 11 0
BBX 10 12 0 0
BITMAP
2FAAF0
2402D0
200780
000F00
002D00
007800
00F000
02D000
078000
0F0020
2D0070
7EABE0
ENDCHAR
STARTCHAR bracketleft
ENCODING 91
SWIDTH 349 0
DWIDTH 6 0
BBX 5 18 1 -4
BITMAP
7A40
7000
7000
7000
7000
7000
7000
7000
7000
7000
7000
7000
7000
7000
7000
7000
7000
7A40
ENDCHAR
STARTCHAR backslash
ENCODING 92
SWIDTH 385 0
DWIDTH 7 0
BBX 6 15 0 -2
BITMAP
6000
3000
2400
1800
0C00
0900
0600
0300
0240
0180
00C0
0090
0060
0020
0020
ENDCHAR
STARTCHAR bracketright
ENCODING 93
SWIDTH 349 0
DWIDTH 6 0
BBX 4 18 1 -4
BITMAP
AE
0A
0A
0A
0A
0A
0A
0A
0A
0A
0A
0A
0A
0A
0A
0A
0A
AE
ENDCHAR
STARTCHAR asciicircum
ENCODING 94
SWIDTH 480 0
DWIDTH 9 0
BBX 8 7 0 6
BITMAP
01C0
03A0
0630
0924
180C
2409
7007
ENDCHAR
STARTCHAR underscore
ENCODING 95
SWIDTH 512 0
DWIDTH 9 0
BBX 9 1 0 -2
BITMAP
AAAA80
ENDCHAR
STARTCHAR grave
ENCODING 96
SWIDTH 222 0
DWIDTH 4 0
BBX 4 3 0 10
BITMAP
74
28
09
ENDCHAR
STARTCHAR a
ENCODING 97
SWIDTH 480 0
DWIDTH 9 0
BBX 9 9 0 0
BITMAP
0AE000
283800
382C00
002C00
06AC00
2D2C00
742C00
742C00
2E5E40
ENDCHAR
STARTCHAR b
ENCODING 98
SWIDTH 522 0
DWIDTH 9 0
BBX 9 13 0 0
BITMAP
6C0000
2C0000
2C0000
2C0000
2DAD00
2D0B00
2C0380
2C0380
2C0380
2C0380
2C0740
2D0A00
1BA400
ENDCHAR
STARTCHAR c
ENCODING 99
SWIDTH 446 0
DWIDTH 8 0
BBX 8 9 0 0
BITMAP
06B4
182D
3409
7000
7000
7400
3801
2D58
0BE4
ENDCHAR
STARTCHAR d
ENCODING 100
SWIDTH 539 0
DWIDTH 10 0
BBX 9 13 0 0
BITMAP
001B00
000B00
000B00
000B00
06AB00
1D0F00
340B00
740B00
740B00
740B00
740B00
2C0B00
0BAB80
ENDCHAR
STARTCHAR e
ENCODING 101
SWIDTH 464 0
DWIDTH 8 0
BBX 8 9 0 0
BITMAP
06A4
282C
340E
7AAE
7000
7400
3801
2E59
07F4
ENDCHAR
STARTCHAR f
ENCODING 102
SWIDTH 307 0
DWIDTH 6 0
BBX 7 13 0 0
BITMAP
02F4
0928
0D00
0D00
6F90
0D00
0D00
0D00
0D00
0D00
0D00
1D00
BF80
ENDCHAR
STARTCHAR g
ENCODING 103
SWIDTH 484 0
DWIDTH 9 0
BBX 9 13 0 -4
BITMAP
0AFE40
282C00
381D00
381D00
2C2C00
0AA000
240000
390000
2FFE00
200740
600240
B40600
2EA400
ENDCHAR
STARTCHAR h
ENCODING 104
SWIDTH 577 0
DWIDTH 10 0
BBX 10 13 0 0
BITMAP
6D0000
1D0000
1D0000
1D0000
1D6E00
1E0740
1D0380
1D0280
1D0280
1D0280
1D0280
1D0380
7F4FE0
ENDCHAR
STARTCHAR i
ENCODING 105
SWIDTH 285 0
DWIDTH 5 0
BBX 5 12 0 0
BITMAP
1D00
1D00
0000
6D00
1D00
0D00
0D00
0D00
0D00
0D00
1D00
7F40
ENDCHAR
STARTCHAR j
ENCODING 106
SWIDTH 263 0
DWIDTH 5 0
BBX 6 16 -2 -4
BITMAP
01D0
01D0
0000
06D0
01D0
01D0
01D0
01D0
01D0
01D0
01D0
01D0
01D0
01C0
B180
7E00
ENDCHAR
STARTCHAR k
ENCODING 107
SWIDTH 542 0
DWIDTH 10 0
BBX 10 13 0 0
BITMAP
6D0000
1D0000
1D0000
1D0000
1D2F80
1D1D00
1D6000
1D8000
1ED000
1DB400
1D2D00
1D0B40
7F5FE0
ENDCHAR
STARTCHAR l
ENCODING 108
SWIDTH 283 0
DWIDTH 5 0
BBX 5 13 0 0
BITMAP
6D00
1D00
1D00
1D00
1D00
1D00
1D00
1D00
1D00
1D00
1D00
1D00
7F80
ENDCHAR
STARTCHAR m
ENCODING 109
SWIDTH 852 0
DWIDTH 15 0
BBX 15 9 0 0
BITMAP
6D6E1B80
1E07D1D0
0D0380E0
0D0380E0
0D0380E0
0D0380E0
0D0380E0
1D0380E0
7F9FE3F8
ENDCHAR
STARTCHAR n
ENCODING 110
SWIDTH 576 0
DWIDTH 10 0
BBX 10 9 0 0
BITMAP
6D6E00
1E0740
0D0380
0D0380
0D0380
0D0380
0D0380
1D0380
7F8FE0
ENDCHAR
STARTCHAR o
ENCODING 111
SWIDTH 514 0
DWIDTH 9 0
BBX 9 9 0 0
BITMAP
06B800
1C0A00
380740
740380
740380
740380
380740
2D0A00
07A800
ENDCHAR
STARTCHAR p
ENCODING 112
SWIDTH 537 0
DWIDTH 10 0
BBX 9 13 0 -4
BITMAP
6DAD00
1E0740
1D0380
1D02C0
1D02C0
1D02C0
1D0380
1E0700
1EE800
1D0000
1D0000
1D0000
7F8000
ENDCHAR
STARTCHAR q
ENCODING 113
SWIDTH 521 0
DWIDTH 9 0
BBX 9 13 0 -4
BITMAP
06AB00
1C0F00
340B00
740B00
740B00
740B00
780B00
2D5F00
0BDB00
000B00
000B00
000B00
006FC0
ENDCHAR
STARTCHAR r
ENCODING 114
SWIDTH 380 0
DWIDTH 7 0
BBX 7 9 0 0
BITMAP
2D78
1EB8
0E00
0D00
0D00
0D00
0D00
1D00
7F80
ENDCHAR
STARTCHAR s
ENCODING 115
SWIDTH 395 0
DWIDTH 7 0
BBX 7 9 0 0
BITMAP
1AA0
3030
7420
3D00
0BD0
01F4
5038
6034
6AA0
ENDCHAR
STARTCHAR t
ENCODING 116
SWIDTH 315 0
DWIDTH 6 0
BBX 6 12 0 0
BITMAP
0400
0800
1C00
6E80
1C00
1C00
1C00
1C00
1C00
1C00
1D10
0B80
ENDCHAR
STARTCHAR u
ENCODING 117
SWIDTH 570 0
DWIDTH 10 0
BBX 10 9 0 0
BITMAP
6C1B40
1C0340
1C0340
1C0340
1C0340
1C0340
1D0340
0E0B40
07A790
ENDCHAR
STARTCHAR v
ENCODING 118
SWIDTH 481 0
DWIDTH 9 0
BBX 10 9 -1 0
BITMAP
7F43F0
0E0180
0B0240
074200
038600
01C900
00E800
00B400
007000
ENDCHAR
STARTCHAR w
ENCODING 119
SWIDTH 749 0
DWIDTH 13 0
BBX 15 9 -1 0
BITMAP
7F4FD1F8
0E038060
0B02C090
0742D080
0386A140
01D87200
00E83A00
00B42D00
00701C00
ENDCHAR
STARTCHAR x
ENCODING 120
SWIDTH 479 0
DWIDTH 9 0
BBX 9 9 0 0
BITMAP
BF1F40
1D0C00
0B2400
039000
02D000
02B000
083800
241D00
F83F80
ENDCHAR
STARTCHAR y
ENCODING 121
SWIDTH 483 0
DWIDTH 9 0
BBX 10 13 -1 -4
BITMAP
7F43E0
0E0180
0B0240
078200
02C600
01D900
00A800
007400
003000
006000
009000
2A8000
2E0000
ENDCHAR
STARTCHAR z
ENCODING 122
SWIDTH 458 0
DWIDTH 8 0
BBX 8 9 0 0
BITMAP
3EBE
203C
10B4
01E0
02C0
0740
1E02
2C0A
7EBD
ENDCHAR
STARTCHAR braceleft
ENCODING 123
SWIDTH 327 0
DWIDTH 6 0
BBX 5 18 0 -4
BITMAP
0280
0D00
1C00
1C00
1D00
0D00
0D00
0D00
6800
6400
0C00
0D00
0D00
0D00
1C00
1C00
0D00
0680
ENDCHAR
STARTCHAR bar
ENCODING 124
SWIDTH 267 0
DWIDTH 5 0
BBX 1 17 2 -4
BITMAP
C0
C0
C0
C0
C0
C0
C0
C0
C0
C0
C0
C0
C0
C0
C0
C0
C0
ENDCHAR
STARTCHAR braceright
ENCODING 125
SWIDTH 327 0
DWIDTH 6 0
BBX 5 18 1 -4
BITMAP
A000
2800
1C00
1C00
1C00
1C00
1C00
1C00
0A00
0740
0C00
1C00
1C00
1C00
1C00
1C00
2C00
A400
ENDCHAR
STARTCHAR asciitilde
ENCODING 126
SWIDTH 557 0
DWIDTH 10 0
BBX 10 2 0 4
BITMAP
1A95D0
706A40
ENDCHAR
STARTCHAR uni00A0
ENCODING 160
SWIDTH 235 0
DWIDTH 4 0
BBX 1 1 0 0
BITMAP
00
ENDCHAR
STARTCHAR exclamdown
ENCODING 161
SWIDTH 282 0
DWIDTH 5 0
BBX 3 13 1 -4
BITMAP
74
74
00
10
20
30
30
34
74
74
74
74
74
ENDCHAR
STARTCHAR cent
ENCODING 162
SWIDTH 495 0
DWIDTH 9 0
BBX 7 13 1 -1
BITMAP
0240
0240
1BE0
7278
9224
D200
D200
D200
A204
7A14
1B90
0200
0100
ENDCHAR
STARTCHAR sterling
ENCODING 163
SWIDTH 495 0
DWIDTH 9 0
BBX 9 12 0 0
BITMAP
00AE00
030740
070100
0B0000
0B0000
2FA800
074000
034000
034000
6B0040
878100
69B900
ENDCHAR
STARTCHAR currency
ENCODING 164
SWIDTH 617 0
DWIDTH 11 0
BBX 9 10 1 0
BITMAP
800080
7AAB80
280A00
300300
600240
600240
300300
280A00
B6A680
800080
ENDCHAR
STARTCHAR yen
ENCODING 165
SWIDTH 495 0
DWIDTH 9 0
BBX 9 12 0 0
BITMAP
BE0B80
3C0600
1D0900
0F0800
079400
02E000
1BFA00
01D000
1AFA00
01D000
01E000
0BF800
ENDCHAR
STARTCHAR brokenbar
ENCODING 166
SWIDTH 267 0
DWIDTH 5 0
BBX 1 13 2 0
BITMAP
C0
C0
C0
C0
C0
00
00
00
C0
C0
C0
C0
C0
ENDCHAR
STARTCHAR section
ENCODING 167
SWIDTH 491 0
DWIDTH 9 0
BBX 7 16 1 -4
BITMAP
1A90
3430
3034
3810
1E00
1B80
61E0
6074
7424
3D24
1F90
02C0
10A0
A070
6060
2A80
ENDCHAR
STARTCHAR dieresis
ENCODING 168
SWIDTH 392 0
DWIDTH 7 0
BBX 7 2 0 10
BITMAP
7474
7474
ENDCHAR
STARTCHAR copyright
ENCODING 169
SWIDTH 781 0
DWIDTH 14 0
BBX 12 13 1 0
BITMAP
01AA40
090060
200008
50AA85
824182
834082
870002
834002
828042
50AA05
200008
090060
01AA40
ENDCHAR
STARTCHAR ordfeminine
ENCODING 170
SWIDTH 410 0
DWIDTH 7 0
BBX 7 7 0 5
BITMAP
1A90
34A0
00B0
0AB0
3070
74B0
2E78
ENDCHAR
STARTCHAR guillemotleft
ENCODING 171
SWIDTH 517 0
DWIDTH 9 0
BBX 8 7 0 1
BITMAP
0142
060A
1C28
7470
2838
090D
0242
ENDCHAR
STARTCHAR logicalnot
ENCODING 172
SWIDTH 720 0
DWIDTH 13 0
BBX 11 6 1 2
BITMAP
AAAAB4
000024
000024
000024
000024
000024
ENDCHAR
STARTCHAR uni00AD
ENCODING 173
SWIDTH 315 0
DWIDTH 6 0
BBX 4 1 1 4
BITMAP
AA
ENDCHAR
STARTCHAR registered
ENCODING 174
SWIDTH 413 0
DWIDTH 7 0
BBX 7 7 0 7
BITMAP
0540
1950
5584
4684
5554
1014
0540
ENDCHAR
STARTCHAR macron
ENCODING 175
SWIDTH 350 0
DWIDTH 6 0
BBX 6 1 0 10
BITMAP
6AA0
ENDCHAR
STARTCHAR degree
ENCODING 176
SWIDTH 409 0
DWIDTH 7 0
BBX 6 6 1 7
BITMAP
2A40
90C0
C090
C090
90C0
2A40
ENDCHAR
STARTCHAR plusminus
ENCODING 177
SWIDTH 720 0
DWIDTH 13 0
BBX 11 12 1 0
BITMAP
002000
003000
003000
003000
003000
AABAA8
003000
003000
003000
003000
000000
AAAAA8
ENDCHAR
STARTCHAR twosuperior
ENCODING 178
SWIDTH 373 0
DWIDTH 7 0
BBX 7 8 0 5
BITMAP
1F90
50A0
00B0
0090
0180
0500
2564
7FF0
ENDCHAR
STARTCHAR threesuperior
ENCODING 179
SWIDTH 374 0
DWIDTH 7 0
BBX 6 8 0 5
BITMAP
1F80
11D0
0180
0B80
00A0
0070
1060
7A80
ENDCHAR
STARTCHAR acute
ENCODING 180
SWIDTH 222 0
DWIDTH 4 0
BBX 4 3 0 10
BITMAP
1D
28
60
ENDCHAR
STARTCHAR uni00B5
ENCODING 181
SWIDTH 556 0
DWIDTH 10 0
BBX 9 13 1 -4
BITMAP
B01C00
B01C00
A01C00
A01800
902800
903400
A06800
B59D40
DF4F40
D00000
D00000
D00000
900000
ENDCHAR
STARTCHAR paragraph
ENCODING 182
SWIDTH 605 0
DWIDTH 11 0
BBX 9 15 1 -3
BITMAP
1AEF40
71CD00
E1CD00
E1CD00
E1CD00
A1CD00
29CD00
06CD00
01CD00
01CD00
01CD00
01CD00
01CD00
02CD00
0A8A40
ENDCHAR
STARTCHAR periodcentered
ENCODING 183
SWIDTH 282 0
DWIDTH 5 0
BBX 3 2 1 4
BITMAP
74
74
ENDCHAR
STARTCHAR cedilla
ENCODING 184
SWIDTH 247 0
DWIDTH 4 0
BBX 3 4 1 -4
BITMAP
40
A4
1C
A4
ENDCHAR
STARTCHAR onesuperior
ENCODING 185
SWIDTH 343 0
DWIDTH 6 0
BBX 5 8 1 5
BITMAP
A800
2800
2800
2800
2800
2800
2800
BE40
ENDCHAR
STARTCHAR ordmasculine
ENCODING 186
SWIDTH 432 0
DWIDTH 8 0
BBX 8 7 0 5
BITMAP
0AA0
3428
701C
701D
701C
3428
0AA0
ENDCHAR
STARTCHAR guillemotright
ENCODING 187
SWIDTH 517 0
DWIDTH 9 0
BBX 8 7 1 1
BITMAP
8080
6060
1828
0A0E
1D1D
3470
9080
ENDCHAR
STARTCHAR onequarter
ENCODING 188
SWIDTH 861 0
DWIDTH 16 0
BBX 14 13 1 0
BITMAP
54001800
78002000
28005000
28008000
28024000
28060280
28080780
AA180A80
00202280
00909280
0180EBE0
02000280
06000140
ENDCHAR
STARTCHAR onehalf
ENCODING 189
SWIDTH 889 0
DWIDTH 16 0
BBX 15 14 1 -1
BITMAP
54001800
78002000
28006000
28008000
28024000
28021BD0
280910B0
AA180070
00200070
006000D0
00800640
02401814
02003AB4
04000000
ENDCHAR
STARTCHAR threequarters
ENCODING 190
SWIDTH 861 0
DWIDTH 16 0
BBX 15 13 0 0
BITMAP
1A800600
10D00800
00901400
01802000
0B909000
00A18060
10A201A0
6A4602A0
000808A0
002414A0
00603AF8
008000A0
01800050
ENDCHAR
STARTCHAR questiondown
ENCODING 191
SWIDTH 411 0
DWIDTH 7 0
BBX 7 13 0 -4
BITMAP
0380
0380
0000
0100
0200
0600
0D00
2800
3400
7428
742C
3828
1AA0
ENDCHAR
STARTCHAR Agrave
ENCODING 192
SWIDTH 718 0
DWIDTH 13 0
BBX 13 16 0 0
BITMAP
00640000
002C0000
00060000
00000000
001C0000
002D0000
002E0000
00974000
00C38000
0182C000
0201E000
07AAF000
09007400
0C003C00
28002D00
BE00BF80
ENDCHAR
STARTCHAR Aacute
ENCODING 193
SWIDTH 718 0
DWIDTH 13 0
BBX 13 16 0 0
BITMAP
00064000
001E0000
00240000
00000000
001C0000
002D0000
002E0000
00974000
00C38000
0182C000
0201E000
07AAF000
09007400
0C003C00
28002D00
BE00BF80
ENDCHAR
STARTCHAR Acircumflex
ENCODING 194
SWIDTH 718 0
DWIDTH 13 0
BBX 13 16 0 0
BITMAP
00180000
003A0000
00918000
00000000
001C0000
002D0000
002E0000
00974000
00C38000
0182C000
0201E000
07AAF000
09007400
0C003C00
28002D00
BE00BF80
ENDCHAR
STARTCHAR Atilde
ENCODING 195
SWIDTH 718 0
DWIDTH 13 0
BBX 13 15 0 0
BITMAP
00A95000
014A8000
00000000
001C0000
002D0000
002E0000
00974000
00C38000
0182C000
0201E000
07AAF000
09007400
0C003C00
28002D00
BE00BF80
ENDCHAR
STARTCHAR Adieresis
ENCODING 196
SWIDTH 718 0
DWIDTH 13 0
BBX 13 15 0 0
BITMAP
01D1D000
01D1D000
00000000
001C0000
002D0000
002E0000
00974000
00C38000
0182C000
0201E000
07AAF000
09007400
0C003C00
28002D00
BE00BF80
ENDCHAR
STARTCHAR Aring
ENCODING 197
SWIDTH 718 0
DWIDTH 13 0
BBX 13 17 0 0
BITMAP
00290000
00520000
00520000
00290000
00000000
001C0000
002D0000
002E0000
00974000
00C38000
0182C000
0201E000
07AAF000
09007400
0C003C00
28002D00
BE00BF80
ENDCHAR
STARTCHAR AE
ENCODING 198
SWIDTH 894 0
DWIDTH 16 0
BBX 17 12 -1 0
BITMAP
000BFABF00
0003B00700
0005B00200
000CB00000
0024B00800
0030B01800
00BAFAB800
01C0B01800
0240B00040
0600B00140
0D00B00340
7F46FABF00
ENDCHAR
STARTCHAR Ccedilla
ENCODING 199
SWIDTH 670 0
DWIDTH 12 0
BBX 10 16 1 -4
BITMAP
02AFF0
1E01F0
780070
B00020
F00000
E00000
E00000
F00000
B00000
780010
1E0060
06EA40
005000
006800
000C00
00A400
ENDCHAR
STARTCHAR Egrave
ENCODING 200
SWIDTH 626 0
DWIDTH 11 0
BBX 11 16 0 0
BITMAP
009000
007400
001900
000000
6FABF0
0B0020
0B0010
0B0080
0B0180
0BAB80
0B0080
0B0000
0B0008
0B0018
0B0024
6FABF4
ENDCHAR
STARTCHAR Eacute
ENCODING 201
SWIDTH 626 0
DWIDTH 11 0
BBX 11 16 0 0
BITMAP
000900
002800
00A000
000000
6FABF0
0B0020
0B0010
0B0080
0B0180
0BAB80
0B0080
0B0000
0B0008
0B0018
0B0024
6FABF4
ENDCHAR
STARTCHAR Ecircumflex
ENCODING 202
SWIDTH 626 0
DWIDTH 11 0
BBX 11 16 0 0
BITMAP
001400
00AD00
018200
000000
6FABF0
0B0020
0B0010
0B0080
0B0180
0BAB80
0B0080
0B0000
0B0008
0B0018
0B0024
6FABF4
ENDCHAR
STARTCHAR Edieresis
ENCODING 203
SWIDTH 626 0
DWIDTH 11 0
BBX 11 15 0 0
BITMAP
038380
038380
000000
6FABF0
0B0020
0B0010
0B0080
0B0180
0BAB80
0B0080
0B0000
0B0008
0B0018
0B0024
6FABF4
ENDCHAR
STARTCHAR Igrave
ENCODING 204
SWIDTH 357 0
DWIDTH 6 0
BBX 6 16 0 0
BITMAP
1800
0A00
0280
0000
7FE0
0B00
0B00
0B00
0B00
0B00
0B00
0B00
0B00
0B00
0B00
7FE0
ENDCHAR
STARTCHAR Iacute
ENCODING 205
SWIDTH 357 0
DWIDTH 6 0
BBX 6 16 0 0
BITMAP
0180
0740
1900
0000
7FE0
0B00
0B00
0B00
0B00
0B00
0B00
0B00
0B00
0B00
0B00
7FE0
ENDCHAR
STARTCHAR Icircumflex
ENCODING 206
SWIDTH 357 0
DWIDTH 6 0
BBX 6 16 0 0
BITMAP
0500
1E80
2090
0000
7FE0
0B00
0B00
0B00
0B00
0B00
0B00
0B00
0B00
0B00
0B00
7FE0
ENDCHAR
STARTCHAR Idieresis
ENCODING 207
SWIDTH 357 0
DWIDTH 6 0
BBX 6 15 0 0
BITMAP
B0B0
B0B0
0000
7FE0
0B00
0B00
0B00
0B00
0B00
0B00
0B00
0B00
0B00
0B00
7FE0
ENDCHAR
STARTCHAR Eth
ENCODING 208
SWIDTH 737 0
DWIDTH 13 0
BBX 13 12 0 0
BITMAP
2FAF9000
0B00B800
0B002D00
0B000F00
0B000B40
6FA80B40
0B000B40
0B000B40
0B000F00
0B001D00
0B007800
6FAB9000
ENDCHAR
STARTCHAR Ntilde
ENCODING 209
SWIDTH 742 0
DWIDTH 13 0
BBX 13 15 0 0
BITMAP
00695000
00468000
00000000
7F007F80
0F800D00
0BD00900
09F40900
087C0900
082E0900
080B8900
0803D900
0801F900
08007D00
0D002D00
7F800900
ENDCHAR
STARTCHAR Ograve
ENCODING 210
SWIDTH 738 0
DWIDTH 13 0
BBX 12 16 1 0
BITMAP
009000
00B400
001800
000000
06AA40
1D01E0
780074
B0003C
F0002D
F0002D
F0002D
F0002D
B4003C
780074
1D01E0
06AA40
ENDCHAR
STARTCHAR Oacute
ENCODING 211
SWIDTH 738 0
DWIDTH 13 0
BBX 12 16 1 0
BITMAP
001900
003800
009000
000000
06AA40
1D01E0
780074
B0003C
F0002D
F0002D
F0002D
F0002D
B4003C
780074
1D01E0
06AA40
ENDCHAR
STARTCHAR Ocircumflex
ENCODING 212
SWIDTH 738 0
DWIDTH 13 0
BBX 12 16 1 0
BITMAP
001400
00AC00
024600
000000
06AA40
1D01E0
780074
B0003C
F0002D
F0002D
F0002D
F0002D
B4003C
780074
1D01E0
06AA40
ENDCHAR
STARTCHAR Otilde
ENCODING 213
SWIDTH 738 0
DWIDTH 13 0
BBX 12 15 1 0
BITMAP
01A540
011A00
000000
06AA40
1D01E0
780074
B0003C
F0002D
F0002D
F0002D
F0002D
B4003C
780074
1D01E0
06AA40
ENDCHAR
STARTCHAR Odieresis
ENCODING 214
SWIDTH 738 0
DWIDTH 13 0
BBX 12 15 1 0
BITMAP
074740
074740
000000
06AA40
1D01E0
780074
B0003C
F0002D
F0002D
F0002D
F0002D
B4003C
780074
1D01E0
06AA40
ENDCHAR
STARTCHAR multiply
ENCODING 215
SWIDTH 720 0
DWIDTH 13 0
BBX 11 11 1 -1
BITMAP
100010
740074
1D02D0
074B40
01ED00
00B800
02DD00
0B4740
1D01D0
740074
100010
ENDCHAR
STARTCHAR Oslash
ENCODING 216
SWIDTH 737 0
DWIDTH 13 0
BBX 12 12 1 0
BITMAP
06AA60
1D01E0
7801F4
B0023C
F0082D
E0242D
F0502D
F1802D
B6003C
7C0074
2D01E0
56AA40
ENDCHAR
STARTCHAR Ugrave
ENCODING 217
SWIDTH 752 0
DWIDTH 14 0
BBX 13 16 0 0
BITMAP
00180000
001A0000
00028000
00000000
7FD03FC0
0F000A00
0E000A00
0E000A00
0E000A00
0E000A00
0E000A00
0E000900
0B000900
0B000800
03802800
01BA9000
ENDCHAR
STARTCHAR Uacute
ENCODING 218
SWIDTH 752 0
DWIDTH 14 0
BBX 13 16 0 0
BITMAP
00018000
00074000
00180000
00000000
7FD03FC0
0F000A00
0E000A00
0E000A00
0E000A00
0E000A00
0E000A00
0E000900
0B000900
0B000800
03802800
01BA9000
ENDCHAR
STARTCHAR Ucircumflex
ENCODING 219
SWIDTH 752 0
DWIDTH 14 0
BBX 13 16 0 0
BITMAP
00050000
001E8000
00209000
00000000
7FD03FC0
0F000A00
0E000A00
0E000A00
0E000A00
0E000A00
0E000A00
0E000900
0B000900
0B000800
03802800
01BA9000
ENDCHAR
STARTCHAR Udieresis
ENCODING 220
SWIDTH 752 0
DWIDTH 14 0
BBX 13 15 0 0
BITMAP
00B0B000
00B0B000
00000000
7FD03FC0
0F000A00
0E000A00
0E000A00
0E000A00
0E000A00
0E000A00
0E000900
0B000900
0B000800
03802800
01BA9000
ENDCHAR
STARTCHAR Yacute
ENCODING 221
SWIDTH 647 0
DWIDTH 12 0
BBX 12 16 0 0
BITMAP
000600
001D00
006000
000000
FF80FE
2E0034
0B4090
078180
02D200
00F600
007C00
003800
003800
003800
003C00
02FF40
ENDCHAR
STARTCHAR Thorn
ENCODING 222
SWIDTH 572 0
DWIDTH 10 0
BBX 10 12 0 0
BITMAP
7FE000
0B4000
0BAA40
0B02D0
0B01E0
0B00E0
0B01E0
0B02C0
0BA900
0B0000
0B4000
7FE000
ENDCHAR
STARTCHAR germandbls
ENCODING 223
SWIDTH 563 0
DWIDTH 10 0
BBX 10 13 0 0
BITMAP
02A900
0A0740
0D0340
0D0740
6D1900
0D2900
0D0740
0D02C0
0D01D0
0D00E0
0D50D0
1DB1C0
7D7A40
ENDCHAR
STARTCHAR agrave
ENCODING 224
SWIDTH 480 0
DWIDTH 9 0
BBX 9 13 0 0
BITMAP
0B0000
024000
008000
000000
0AE000
283800
382C00
002C00
06AC00
2D2C00
742C00
742C00
2E5E40
ENDCHAR
STARTCHAR aacute
ENCODING 225
SWIDTH 480 0
DWIDTH 9 0
BBX 9 13 0 0
BITMAP
00B000
01D000
024000
000000
0AE000
283800
382C00
002C00
06AC00
2D2C00
742C00
742C00
2E5E40
ENDCHAR
STARTCHAR acircumflex
ENCODING 226
SWIDTH 480 0
DWIDTH 9 0
BBX 9 13 0 0
BITMAP
02C000
066000
081400
000000
0AE000
283800
382C00
002C00
06AC00
2D2C00
742C00
742C00
2E5E40
ENDCHAR
STARTCHAR atilde
ENCODING 227
SWIDTH 480 0
DWIDTH 9 0
BBX 9 12 0 0
BITMAP
0A5800
10A400
000000
0AE000
283800
382C00
002C00
06AC00
2D2C00
742C00
742C00
2E5E40
ENDCHAR
STARTCHAR adieresis
ENCODING 228
SWIDTH 480 0
DWIDTH 9 0
BBX 9 12 0 0
BITMAP
2C2C00
2C2C00
000000
0AE000
283800
382C00
002C00
06AC00
2D2C00
742C00
742C00
2E5E40
ENDCHAR
STARTCHAR aring
ENCODING 229
SWIDTH 480 0
DWIDTH 9 0
BBX 9 14 0 0
BITMAP
029000
092000
092000
029000
000000
0AE000
283800
382C00
002C00
06AC00
2D2C00
742C00
742C00
2E5E40
ENDCHAR
STARTCHAR ae
ENCODING 230
SWIDTH 709 0
DWIDTH 13 0
BBX 12 9 0 0
BITMAP
1AE2B8
383D0D
24280B
007EAB
0A6800
282C00
742D01
742F56
2E46F8
ENDCHAR
STARTCHAR ccedilla
ENCODING 231
SWIDTH 446 0
DWIDTH 8 0
BBX 8 13 0 -4
BITMAP
06B4
182D
3409
7000
7000
7400
3801
2D58
0BE4
0140
01A0
0030
02A0
ENDCHAR
STARTCHAR egrave
ENCODING 232
SWIDTH 464 0
DWIDTH 8 0
BBX 8 13 0 0
BITMAP
0740
0280
0080
0000
06A4
282C
340E
7AAE
7000
7400
3801
2E59
07F4
ENDCHAR
STARTCHAR eacute
ENCODING 233
SWIDTH 464 0
DWIDTH 8 0
BBX 8 13 0 0
BITMAP
00B4
00D0
0180
0000
06A4
282C
340E
7AAE
7000
7400
3801
2E59
07F4
ENDCHAR
STARTCHAR ecircumflex
ENCODING 234
SWIDTH 464 0
DWIDTH 8 0
BBX 8 13 0 0
BITMAP
02D0
0770
0818
0000
06A4
282C
340E
7AAE
7000
7400
3801
2E59
07F4
ENDCHAR
STARTCHAR edieresis
ENCODING 235
SWIDTH 464 0
DWIDTH 8 0
BBX 8 12 0 0
BITMAP
1D2D
1D1C
0000
06A4
282C
340E
7AAE
7000
7400
3801
2E59
07F4
ENDCHAR
STARTCHAR igrave
ENCODING 236
SWIDTH 285 0
DWIDTH 5 0
BBX 5 13 0 0
BITMAP
B400
2800
0800
0000
6D00
1D00
0D00
0D00
0D00
0D00
0D00
1D00
7F40
ENDCHAR
STARTCHAR iacute
ENCODING 237
SWIDTH 285 0
DWIDTH 5 0
BBX 5 13 0 0
BITMAP
0B00
0D00
2400
0000
6D00
1D00
0D00
0D00
0D00
0D00
0D00
1D00
7F40
ENDCHAR
STARTCHAR icircumflex
ENCODING 238
SWIDTH 285 0
DWIDTH 5 0
BBX 5 13 0 0
BITMAP
2C00
7A00
9240
0000
6D00
1D00
0D00
0D00
0D00
0D00
0D00
1D00
7F40
ENDCHAR
STARTCHAR idieresis
ENCODING 239
SWIDTH 285 0
DWIDTH 5 0
BBX 6 12 -1 0
BITMAP
74A0
74B0
0000
1B40
0740
0340
0340
0340
0340
0340
0740
1FD0
ENDCHAR
STARTCHAR eth
ENCODING 240
SWIDTH 532 0
DWIDTH 10 0
BBX 9 13 0 0
BITMAP
1AE140
003D00
019E00
000700
06A740
1C0B80
380780
740380
740380
740340
380700
2D0A00
07A400
ENDCHAR
STARTCHAR ntilde
ENCODING 241
SWIDTH 576 0
DWIDTH 10 0
BBX 10 12 0 0
BITMAP
02A540
052A00
000000
6D6E00
1E0740
0D0380
0D0380
0D0380
0D0380
0D0380
1D0380
7F8FE0
ENDCHAR
STARTCHAR ograve
ENCODING 242
SWIDTH 514 0
DWIDTH 9 0
BBX 9 13 0 0
BITMAP
038000
01C000
005000
000000
06B800
1C0A00
380740
740380
740380
740380
380740
2D0A00
07A800
ENDCHAR
STARTCHAR oacute
ENCODING 243
SWIDTH 514 0
DWIDTH 9 0
BBX 9 13 0 0
BITMAP
007400
00A000
008000
000000
06B800
1C0A00
380740
740380
740380
740380
380740
2D0A00
07A800
ENDCHAR
STARTCHAR ocircumflex
ENCODING 244
SWIDTH 514 0
DWIDTH 9 0
BBX 9 13 0 0
BITMAP
01E000
026400
050800
000000
06B800
1C0A00
380740
740380
740380
740380
380740
2D0A00
07A800
ENDCHAR
STARTCHAR otilde
ENCODING 245
SWIDTH 514 0
DWIDTH 9 0
BBX 9 12 0 0
BITMAP
069500
046800
000000
06B800
1C0A00
380740
740380
740380
740380
380740
2D0A00
07A800
ENDCHAR
STARTCHAR odieresis
ENCODING 246
SWIDTH 514 0
DWIDTH 9 0
BBX 9 12 0 0
BITMAP
0E1E00
0E0D00
000000
06B800
1C0A00
380740
740380
740380
740380
380740
2D0A00
07A800
ENDCHAR
STARTCHAR divide
ENCODING 247
SWIDTH 720 0
DWIDTH 13 0
BBX 11 10 1 0
BITMAP
007400
007400
000000
000000
000000
AAAAA8
000000
000000
007400
007400
ENDCHAR
STARTCHAR oslash
ENCODING 248
SWIDTH 514 0
DWIDTH 9 0
BBX 9 9 0 0
BITMAP
06BA00
1C0E00
382B40
745380
748380
760380
3D0740
2C0A00
26A800
ENDCHAR
STARTCHAR ugrave
ENCODING 249
SWIDTH 570 0
DWIDTH 10 0
BBX 10 13 0 0
BITMAP
02C000
00D000
006000
000000
6C1B40
1C0340
1C0340
1C0340
1C0340
1C0340
1D0340
0E0B40
07A790
ENDCHAR
STARTCHAR uacute
ENCODING 250
SWIDTH 570 0
DWIDTH 10 0
BBX 10 13 0 0
BITMAP
003800
007000
009000
000000
6C1B40
1C0340
1C0340
1C0340
1C0340
1C0340
1D0340
0E0B40
07A790
ENDCHAR
STARTCHAR ucircumflex
ENCODING 251
SWIDTH 570 0
DWIDTH 10 0
BBX 10 13 0 0
BITMAP
00F000
02A800
060900
000000
6C1B40
1C0340
1C0340
1C0340
1C0340
1C0340
1D0340
0E0B40
07A790
ENDCHAR
STARTCHAR udieresis
ENCODING 252
SWIDTH 570 0
DWIDTH 10 0
BBX 10 12 0 0
BITMAP
0E0E00
0A0E00
000000
6C1B40
1C0340
1C0340
1C0340
1C0340
1C0340
1D0340
0E0B40
07A790
ENDCHAR
STARTCHAR yacute
ENCODING 253
SWIDTH 483 0
DWIDTH 9 0
BBX 10 17 -1 -4
BITMAP
001D00
002800
002000
000000
7F43E0
0E0180
0B0240
078200
02C600
01D900
00A800
007400
003000
006000
009000
2A8000
2E0000
ENDCHAR
STARTCHAR thorn
ENCODING 254
SWIDTH 524 0
DWIDTH 9 0
BBX 9 17 0 -4
BITMAP
6C0000
2C0000
2C0000
2C0000
2DBD00
2D0B40
2C0380
2C0380
2C0380
2C0380
2C0340
2D0A00
2EA800
2C0000
2C0000
2C0000
BF8000
ENDCHAR
STARTCHAR ydieresis
ENCODING 255
SWIDTH 483 0
DWIDTH 9 0
BBX 10 16 -1 -4
BITMAP
038780
038340
000000
7F43E0
0E0180
0B0240
078200
02C600
01D900
00A800
007400
003000
006000
009000
2A8000
2E0000
ENDCHAR
STARTCHAR Amacron
ENCODING 256
SWIDTH 718 0
DWIDTH 13 0
BBX 13 14 0 0
BITMAP
01AA8000
00000000
001C0000
002D0000
002E0000
00974000
00C38000
0182C000
0201E000
07AAF000
09007400
0C003C00
28002D00
BE00BF80
ENDCHAR
STARTCHAR amacron
ENCODING 257
SWIDTH 480 0
DWIDTH 9 0
BBX 9 11 0 0
BITMAP
1AA800
000000
0AE000
283800
382C00
002C00
06AC00
2D2C00
742C00
742C00
2E5E40
ENDCHAR
STARTCHAR Abreve
ENCODING 258
SWIDTH 718 0
DWIDTH 13 0
BBX 13 16 0 0
BITMAP
01408000
00818000
006A0000
00000000
001C0000
002D0000
002E0000
00974000
00C38000
0182C000
0201E000
07AAF000
09007400
0C003C00
28002D00
BE00BF80
ENDCHAR
STARTCHAR abreve
ENCODING 259
SWIDTH 480 0
DWIDTH 9 0
BBX 9 13 0 0
BITMAP
140800
081400
069000
000000
0AE000
283800
382C00
002C00
06AC00
2D2C00
742C00
742C00
2E5E40
ENDCHAR
STARTCHAR Aogonek
ENCODING 260
SWIDTH 719 0
DWIDTH 13 0
BBX 13 16 0 -4
BITMAP
001C0000
002D0000
002F0000
00574000
00C38000
0182D000
0241E000
07AAF000
09007400
0C003C00
28002E00
BE00BF80
00024000
000A0000
000A0000
00079000
ENDCHAR
STARTCHAR aogonek
ENCODING 261
SWIDTH 480 0
DWIDTH 9 0
BBX 9 13 0 -4
BITMAP
0AE000
283800
242C00
002C00
06AC00
282C00
742C00
742C00
2E5F40
001800
003400
007000
002E00
ENDCHAR
STARTCHAR Cacute
ENCODING 262
SWIDTH 670 0
DWIDTH 12 0
BBX 10 16 1 0
BITMAP
000900
002800
00A000
000000
02AFF0
1E01F0
780070
B00020
F00000
E00000
E00000
F00000
B00000
780010
1E0060
06EA40
ENDCHAR
STARTCHAR cacute
ENCODING 263
SWIDTH 446 0
DWIDTH 8 0
BBX 8 13 0 0
BITMAP
00B4
00D0
0180
0000
06B4
182D
3409
7000
7000
7400
3801
2D58
0BE4
ENDCHAR
STARTCHAR Ccircumflex
ENCODING 264
SWIDTH 670 0
DWIDTH 12 0
BBX 10 16 1 0
BITMAP
001400
00AD00
018200
000000
02AFF0
1E01F0
780070
B00020
F00000
E00000
E00000
F00000
B00000
780010
1E0060
06EA40
ENDCHAR
STARTCHAR ccircumflex
ENCODING 265
SWIDTH 446 0
DWIDTH 8 0
BBX 8 13 0 0
BITMAP
02D0
0770
0818
0000
06B4
182D
3409
7000
7000
7400
3801
2D58
0BE4
ENDCHAR
STARTCHAR Cdotaccent
ENCODING 266
SWIDTH 670 0
DWIDTH 12 0
BBX 10 15 1 0
BITMAP
003800
003800
000000
02AFF0
1E01F0
780070
B00020
F00000
E00000
E00000
F00000
B00000
780010
1E0060
06EA40
ENDCHAR
STARTCHAR cdotaccent
ENCODING 267
SWIDTH 446 0
DWIDTH 8 0
BBX 8 12 0 0
BITMAP
02D0
01D0
0000
06B4
182D
3409
7000
7000
7400
3801
2D58
0BE4
ENDCHAR
STARTCHAR Ccaron
ENCODING 268
SWIDTH 670 0
DWIDTH 12 0
BBX 10 16 1 0
BITMAP
010100
00DA00
007800
000000
02AFF0
1E01F0
780070
B00020
F00000
E00000
E00000
F00000
B00000
780010
1E0060
06EA40
ENDCHAR
STARTCHAR ccaron
ENCODING 269
SWIDTH 446 0
DWIDTH 8 0
BBX 8 13 0 0
BITMAP
0818
0770
02D0
0000
06B4
182D
3409
7000
7000
7400
3801
2D58
0BE4
ENDCHAR
STARTCHAR Dcaron
ENCODING 270
SWIDTH 730 0
DWIDTH 13 0
BBX 13 16 0 0
BITMAP
00404000
00A70000
002D0000
00000000
6FAE9000
0B01B400
0B002D00
0B000E00
0B000B00
0B000B40
0B000B40
0B000B00
0B000E00
0B002D00
0B00B400
6FAA9000
ENDCHAR
STARTCHAR dcaron
ENCODING 271
SWIDTH 626 0
DWIDTH 11 0
BBX 11 13 0 0
BITMAP
001B2C
000B28
000B24
000B10
06AB00
1D0F00
340B00
740B00
740B00
740B00
740B00
2C0B00
0BAB80
ENDCHAR
STARTCHAR Dcroat
ENCODING 272
SWIDTH 733 0
DWIDTH 13 0
BBX 13 12 0 0
BITMAP
6FAE9000
0B01B400
0B002D00
0B001E00
0B000F00
6FA80B40
0B000B40
0B000F00
0B000E00
0B002D00
0B00B400
6FAB9000
ENDCHAR
STARTCHAR dcroat
ENCODING 273
SWIDTH 540 0
DWIDTH 10 0
BBX 10 13 0 0
BITMAP
001B00
000B00
01AF90
000B00
06AB00
1D0F00
340B00
740B00
740B00
740B00
740B00
2C0B00
0BAB80
ENDCHAR
STARTCHAR Emacron
ENCODING 274
SWIDTH 626 0
DWIDTH 11 0
BBX 11 14 0 0
BITMAP
02AA40
000000
6FABF0
0B0020
0B0010
0B0080
0B0180
0BAB80
0B0080
0B0000
0B0008
0B0018
0B0024
6FABF4
ENDCHAR
STARTCHAR emacron
ENCODING 275
SWIDTH 464 0
DWIDTH 8 0
BBX 8 11 0 0
BITMAP
1AA8
0000
06A4
282C
340E
7AAE
7000
7400
3801
2E59
07F4
ENDCHAR
STARTCHAR Ebreve
ENCODING 276
SWIDTH 626 0
DWIDTH 11 0
BBX 11 16 0 0
BITMAP
020140
024200
00A900
000000
6FABF0
0B0020
0B0010
0B0080
0B0180
0BAB80
0B0080
0B0000
0B0008
0B0018
0B0024
6FABF4
ENDCHAR
STARTCHAR ebreve
ENCODING 277
SWIDTH 464 0
DWIDTH 8 0
BBX 8 13 0 0
BITMAP
1408
0818
06A0
0000
06A4
282C
340E
7AAE
7000
7400
3801
2E59
07F4
ENDCHAR
STARTCHAR Edotaccent
ENCODING 278
SWIDTH 626 0
DWIDTH 11 0
BBX 11 15 0 0
BITMAP
003800
003800
000000
6FABF0
0B0020
0B0010
0B0080
0B0180
0BAB80
0B0080
0B0000
0B0008
0B0018
0B0024
6FABF4
ENDCHAR
STARTCHAR edotaccent
ENCODING 279
SWIDTH 464 0
DWIDTH 8 0
BBX 8 12 0 0
BITMAP
02D0
01D0
0000
06A4
282C
340E
7AAE
7000
7400
3801
2E59
07F4
ENDCHAR
STARTCHAR Eogonek
ENCODING 280
SWIDTH 625 0
DWIDTH 11 0
BBX 11 16 0 -4
BITMAP
6FAAF0
0B0020
0B0010
0B0080
0B0180
0BAB80
0B0080
0B0000
0B0000
0B0008
0B0024
6FAAF4
000080
000340
000300
0002E4
ENDCHAR
STARTCHAR eogonek
ENCODING 281
SWIDTH 464 0
DWIDTH 8 0
BBX 8 13 0 -4
BITMAP
06A4
282C
340E
7AAE
7000
7400
3801
2E59
07F4
0090
0280
0340
01E4
ENDCHAR
STARTCHAR Ecaron
ENCODING 282
SWIDTH 626 0
DWIDTH 11 0
BBX 11 16 0 0
BITMAP
010100
00DA00
007800
000000
6FABF0
0B0020
0B0010
0B0080
0B0180
0BAB80
0B0080
0B0000
0B0008
0B0018
0B0024
6FABF4
ENDCHAR
STARTCHAR ecaron
ENCODING 283
SWIDTH 464 0
DWIDTH 8 0
BBX 8 13 0 0
BITMAP
0818
0770
02D0
0000
06A4
282C
340E
7AAE
7000
7400
3801
2E59
07F4
ENDCHAR
STARTCHAR Gcircumflex
ENCODING 284
SWIDTH 720 0
DWIDTH 13 0
BBX 12 16 1 0
BITMAP
001400
00AD00
018200
000000
02AFF0
1D01B0
380030
B00020
F00000
E00000
E002FD
F000B4
B000B0
7800B0
2E00B0
06EA80
ENDCHAR
STARTCHAR gcircumflex
ENCODING 285
SWIDTH 484 0
DWIDTH 9 0
BBX 9 17 0 -4
BITMAP
02D000
077000
081800
000000
0AFE40
282C00
381D00
381D00
2C2C00
0AA000
240000
390000
2FFE00
200740
600240
B40600
2EA400
ENDCHAR
STARTCHAR Gbreve
ENCODING 286
SWIDTH 720 0
DWIDTH 13 0
BBX 12 16 1 0
BITMAP
020140
024200
00A900
000000
02AFF0
1D01B0
380030
B00020
F00000
E00000
E002FD
F000B4
B000B0
7800B0
2E00B0
06EA80
ENDCHAR
STARTCHAR gbreve
ENCODING 287
SWIDTH 484 0
DWIDTH 9 0
BBX 9 17 0 -4
BITMAP
140800
081800
06A000
000000
0AFE40
282C00
381D00
381D00
2C2C00
0AA000
240000
390000
2FFE00
200740
600240
B40600
2EA400
ENDCHAR
STARTCHAR Gdotaccent
ENCODING 288
SWIDTH 720 0
DWIDTH 13 0
BBX 12 15 1 0
BITMAP
003800
003800
000000
02AFF0
1D01B0
380030
B00020
F00000
E00000
E002FD
F000B4
B000B0
7800B0
2E00B0
06EA80
ENDCHAR
STARTCHAR gdotaccent
ENCODING 289
SWIDTH 484 0
DWIDTH 9 0
BBX 9 16 0 -4
BITMAP
02D000
01D000
000000
0AFE40
282C00
381D00
381D00
2C2C00
0AA000
240000
390000
2FFE00
200740
600240
B40600
2EA400
ENDCHAR
STARTCHAR Gcommaaccent
ENCODING 290
SWIDTH 720 0
DWIDTH 13 0
BBX 12 17 1 -5
BITMAP
02AFF0
1D01B0
380030
B00020
F00000
E00000
E002FD
F000B4
B000B0
7800B0
2E00B0
06EA80
000000
007400
007800
001800
006000
ENDCHAR
STARTCHAR gcommaaccent
ENCODING 291
SWIDTH 484 0
DWIDTH 9 0
BBX 9 18 0 -4
BITMAP
008000
020000
03D000
02D000
000000
0AFE40
282C00
381D00
381D00
2C2C00
0AA000
240000
390000
2FFE00
200740
600240
B40600
2EA400
ENDCHAR
STARTCHAR Hcircumflex
ENCODING 292
SWIDTH 777 0
DWIDTH 14 0
BBX 14 16 0 0
BITMAP
00050000
001F4000
00609000
00000000
7FE0BFD0
0B000E00
0B000E00
0B000E00
0B000E00
0BAAAE00
0B000E00
0B000E00
0B000E00
0B000E00
0B000E00
6FE0BF90
ENDCHAR
STARTCHAR hcircumflex
ENCODING 293
SWIDTH 577 0
DWIDTH 10 0
BBX 10 17 0 0
BITMAP
005000
02B400
060900
000000
6D0000
1D0000
1D0000
1D0000
1D6E00
1E0740
1D0380
1D0280
1D0280
1D0280
1D0280
1D0380
7F4FE0
ENDCHAR
STARTCHAR Hbar
ENCODING 294
SWIDTH 788 0
DWIDTH 14 0
BBX 14 12 0 0
BITMAP
6FE0BFD0
0B400E00
0B000E00
6FAAAF90
0B000E00
0BAAAE00
0B000E00
0B000E00
0B000E00
0B000E00
0B400E00
6FE0BFD0
ENDCHAR
STARTCHAR hbar
ENCODING 295
SWIDTH 579 0
DWIDTH 10 0
BBX 10 13 0 0
BITMAP
6D0000
1D0000
6FA400
0D0000
0D6E00
0E0740
0D0380
0D0280
0D0280
0D0280
0D0280
1D0380
7F8FF0
ENDCHAR
STARTCHAR Itilde
ENCODING 296
SWIDTH 357 0
DWIDTH 6 0
BBX 6 15 0 0
BITMAP
2A50
4290
0000
7FE0
0B00
0B00
0B00
0B00
0B00
0B00
0B00
0B00
0B00
0B00
7FE0
ENDCHAR
STARTCHAR itilde
ENCODING 297
SWIDTH 285 0
DWIDTH 5 0
BBX 5 12 0 0
BITMAP
A480
4A40
0000
6D00
1D00
0D00
0D00
0D00
0D00
0D00
1D00
7F40
ENDCHAR
STARTCHAR Imacron
ENCODING 298
SWIDTH 357 0
DWIDTH 6 0
BBX 6 14 0 0
BITMAP
6AA0
0000
7FE0
0B00
0B00
0B00
0B00
0B00
0B00
0B00
0B00
0B00
0B00
7FE0
ENDCHAR
STARTCHAR imacron
ENCODING 299
SWIDTH 285 0
DWIDTH 5 0
BBX 5 11 0 0
BITMAP
AA40
0000
6D00
1D00
0D00
0D00
0D00
0D00
0D00
1D00
7F40
ENDCHAR
STARTCHAR Ibreve
ENCODING 300
SWIDTH 357 0
DWIDTH 6 0
BBX 6 16 0 0
BITMAP
5020
2050
1A80
0000
7FE0
0B00
0B00
0B00
0B00
0B00
0B00
0B00
0B00
0B00
0B00
7FE0
ENDCHAR
STARTCHAR ibreve
ENCODING 301
SWIDTH 285 0
DWIDTH 5 0
BBX 5 13 0 0
BITMAP
8080
8240
2900
0000
6D00
1D00
0D00
0D00
0D00
0D00
0D00
1D00
7F40
ENDCHAR
STARTCHAR Iogonek
ENCODING 302
SWIDTH 357 0
DWIDTH 6 0
BBX 6 16 0 -4
BITMAP
7FE0
0B00
0B00
0B00
0B00
0B00
0B00
0B00
0B00
0B00
0B00
7FE0
0600
0C00
1800
0E80
ENDCHAR
STARTCHAR iogonek
ENCODING 303
SWIDTH 285 0
DWIDTH 5 0
BBX 5 17 0 -4
BITMAP
1D00
1D00
0000
0000
6D00
1D00
0D00
0D00
0D00
0D00
0D00
1D00
7F40
0800
3000
7000
2E00
ENDCHAR
STARTCHAR Idotaccent
ENCODING 304
SWIDTH 357 0
DWIDTH 6 0
BBX 6 15 0 0
BITMAP
0B00
0B00
0000
7FE0
0B00
0B00
0B00
0B00
0B00
0B00
0B00
0B00
0B00
0B00
7FE0
ENDCHAR
STARTCHAR dotlessi
ENCODING 305
SWIDTH 285 0
DWIDTH 5 0
BBX 5 9 0 0
BITMAP
6D00
1D00
0D00
0D00
0D00
0D00
0D00
1D00
7F40
ENDCHAR
STARTCHAR IJ
ENCODING 306
SWIDTH 753 0
DWIDTH 14 0
BBX 13 12 0 0
BITMAP
7FE0BF80
0B001E00
0B000E00
0B000E00
0B000E00
0B000E00
0B000E00
0B000E00
0B000E00
0B010D00
0B0B5D00
7FE2E800
ENDCHAR
STARTCHAR ij
ENCODING 307
SWIDTH 548 0
DWIDTH 10 0
BBX 9 16 0 -4
BITMAP
1D0740
1D0780
000000
6D1B40
1D0740
0D0340
0D0340
0D0340
0D0340
0D0340
1D0340
7F4340
000340
000340
01C700
01F900
ENDCHAR
STARTCHAR Jcircumflex
ENCODING 308
SWIDTH 396 0
DWIDTH 7 0
BBX 7 16 0 0
BITMAP
0140
07A0
0918
0000
1BF8
02D0
02C0
02C0
02C0
02C0
02C0
02C0
02C0
42C0
E2C0
7A40
ENDCHAR
STARTCHAR jcircumflex
ENCODING 309
SWIDTH 263 0
DWIDTH 5 0
BBX 7 17 -2 -4
BITMAP
02D0
0770
0818
0000
06D0
01D0
01D0
01D0
01D0
01D0
01D0
01D0
01D0
01D0
01C0
B180
7E00
ENDCHAR
STARTCHAR Kcommaaccent
ENCODING 310
SWIDTH 702 0
DWIDTH 13 0
BBX 13 17 0 -5
BITMAP
7FE2FE00
0B00A000
0B018000
0B060000
0B180000
0BA00000
0BB40000
0B2E0000
0B0B8000
0B02E000
0B00B800
7FE2FF40
00000000
002D0000
002E0000
00050000
00180000
ENDCHAR
STARTCHAR kcommaaccent
ENCODING 311
SWIDTH 542 0
DWIDTH 10 0
BBX 10 18 0 -5
BITMAP
6D0000
1D0000
1D0000
1D0000
1D2F80
1D1D00
1D6000
1D8000
1ED000
1DB400
1D2D00
1D0B40
7F5FE0
000000
00E000
00F000
002000
009000
ENDCHAR
STARTCHAR kgreenlandic
ENCODING 312
SWIDTH 542 0
DWIDTH 10 0
BBX 10 9 0 0
BITMAP
6D1FC0
1D0D00
0D2400
0D9000
0FD000
0DB400
0D2D00
1D0B40
7F9FE0
ENDCHAR
STARTCHAR Lacute
ENCODING 313
SWIDTH 585 0
DWIDTH 11 0
BBX 10 16 0 0
BITMAP
005000
02D000
060000
000000
7FE000
0B4000
0B0000
0B0000
0B0000
0B0000
0B0000
0B0000
0B0010
0B0020
0B0070
2FEBE0
ENDCHAR
STARTCHAR lacute
ENCODING 314
SWIDTH 283 0
DWIDTH 5 0
BBX 5 17 0 0
BITMAP
0240
0A00
2800
0000
6D00
1D00
1D00
1D00
1D00
1D00
1D00
1D00
1D00
1D00
1D00
1D00
7F80
ENDCHAR
STARTCHAR Lcommaaccent
ENCODING 315
SWIDTH 585 0
DWIDTH 11 0
BBX 10 17 0 -5
BITMAP
7FE000
0B4000
0B0000
0B0000
0B0000
0B0000
0B0000
0B0000
0B0010
0B0020
0B0070
2FEBE0
000000
00B400
00B400
002400
005000
ENDCHAR
STARTCHAR lcommaaccent
ENCODING 316
SWIDTH 283 0
DWIDTH 5 0
BBX 5 18 0 -5
BITMAP
6D00
1D00
1D00
1D00
1D00
1D00
1D00
1D00
1D00
1D00
1D00
1D00
7F80
0000
1D00
1E00
0600
1800
ENDCHAR
STARTCHAR Lcaron
ENCODING 317
SWIDTH 585 0
DWIDTH 11 0
BBX 10 12 0 0
BITMAP
7FE1C0
0B41C0
0B0180
0B0100
0B0000
0B0000
0B0000
0B0000
0B0010
0B0020
0B0070
2FEBE0
ENDCHAR
STARTCHAR lcaron
ENCODING 318
SWIDTH 366 0
DWIDTH 7 0
BBX 7 13 0 0
BITMAP
6D74
1D70
1D60
1D40
1D00
1D00
1D00
1D00
1D00
1D00
1D00
1D00
7F80
ENDCHAR
STARTCHAR Ldot
ENCODING 319
SWIDTH 605 0
DWIDTH 11 0
BBX 10 12 0 0
BITMAP
7FE000
0B4000
0B0000
0B0000
0B0000
0B01E0
0B01D0
0B0000
0B0010
0B0020
0B0070
2FEBE0
ENDCHAR
STARTCHAR ldot
ENCODING 320
SWIDTH 357 0
DWIDTH 6 0
BBX 7 13 0 0
BITMAP
6D00
1D00
1D00
1D00
1D00
1D00
1D38
1D38
1D00
1D00
1D00
1D00
7F80
ENDCHAR
STARTCHAR Lslash
ENCODING 321
SWIDTH 590 0
DWIDTH 11 0
BBX 10 12 0 0
BITMAP
2FE000
0B4000
0B0000
0B0400
0B6800
0B9000
1F0000
6B0000
0B0010
0B0020
0B4070
2FEBF0
ENDCHAR
STARTCHAR lslash
ENCODING 322
SWIDTH 290 0
DWIDTH 5 0
BBX 5 13 0 0
BITMAP
6D00
1D00
0D00
0D00
0D80
0E00
2D00
9D00
0D00
0D00
0D00
1D00
7F80
ENDCHAR
STARTCHAR Nacute
ENCODING 323
SWIDTH 742 0
DWIDTH 13 0
BBX 13 16 0 0
BITMAP
00024000
000B4000
00280000
00000000
7F007F80
0F800D00
0BD00900
09F40900
087C0900
082E0900
080B8900
0803D900
0801F900
08007D00
0D002D00
7F800900
ENDCHAR
STARTCHAR nacute
ENCODING 324
SWIDTH 576 0
DWIDTH 10 0
BBX 10 13 0 0
BITMAP
002D00
003400
006000
000000
6D6E00
1E0740
0D0380
0D0380
0D0380
0D0380
0D0380
1D0380
7F8FE0
ENDCHAR
STARTCHAR Ncommaaccent
ENCODING 325
SWIDTH 742 0
DWIDTH 13 0
BBX 13 17 0 -5
BITMAP
7F007F80
0F800D00
0BD00900
09F40900
087C0900
082E0900
080B8900
0803D900
0801F900
08007D00
0D002D00
7F800900
00000000
001D0000
001E0000
00060000
00180000
ENDCHAR
STARTCHAR ncommaaccent
ENCODING 326
SWIDTH 576 0
DWIDTH 10 0
BBX 10 14 0 -5
BITMAP
6D6E00
1E0740
0D0380
0D0380
0D0380
0D0380
0D0380
1D0380
7F8FE0
000000
00F000
00B400
002000
009000
ENDCHAR
STARTCHAR Ncaron
ENCODING 327
SWIDTH 742 0
DWIDTH 13 0
BBX 13 16 0 0
BITMAP
00404000
00368000
001F0000
00000000
7F007F80
0F800D00
0BD00900
09F40900
087C0900
082E0900
080B8900
0803D900
0801F900
08007D00
0D002D00
7F800900
ENDCHAR
STARTCHAR ncaron
ENCODING 328
SWIDTH 576 0
DWIDTH 10 0
BBX 10 13 0 0
BITMAP
020600
00DC00
007400
000000
6D6E00
1E0740
0D0380
0D0380
0D0380
0D0380
0D0380
1D0380
7F8FE0
ENDCHAR
STARTCHAR napostrophe
ENCODING 329
SWIDTH 576 0
DWIDTH 10 0
BBX 13 13 -3 0
BITMAP
74000000
B8000000
18000000
20000000
41B5B800
00781D00
00340E00
00340E00
00340E00
00340E00
00340E00
00740E00
01FE3F80
ENDCHAR
STARTCHAR Eng
ENCODING 330
SWIDTH 742 0
DWIDTH 13 0
BBX 13 16 0 -4
BITMAP
7F007F80
0F800D00
0BD00900
09F40900
087C0900
082E0900
080B4900
0803D900
0801F900
0800BD00
0D002D00
7F800D00
00000900
00000800
000B1800
0007E000
ENDCHAR
STARTCHAR eng
ENCODING 331
SWIDTH 559 0
DWIDTH 10 0
BBX 9 13 0 -4
BITMAP
6D6E00
1E0740
0D0380
0D0380
0D0380
0D0380
0D0380
1D0380
7F8380
000380
000340
01D300
00B900
ENDCHAR
STARTCHAR Omacron
ENCODING 332
SWIDTH 738 0
DWIDTH 13 0
BBX 12 14 1 0
BITMAP
02AA40
000000
06AA40
1D01E0
780074
B0003C
F0002D
F0002D
F0002D
F0002D
B4003C
780074
1D01E0
06AA40
ENDCHAR
STARTCHAR omacron
ENCODING 333
SWIDTH 514 0
DWIDTH 9 0
BBX 9 11 0 0
BITMAP
0AA900
000000
06B800
1C0A00
380740
740380
740380
740380
380740
2D0A00
07A800
ENDCHAR
STARTCHAR Obreve
ENCODING 334
SWIDTH 738 0
DWIDTH 13 0
BBX 12 16 1 0
BITMAP
020140
024200
00A900
000000
06AA40
1D01E0
780074
B0003C
F0002D
F0002D
F0002D
F0002D
B4003C
780074
1D01E0
06AA40
ENDCHAR
STARTCHAR obreve
ENCODING 335
SWIDTH 514 0
DWIDTH 9 0
BBX 9 13 0 0
BITMAP
080500
090800
02A400
000000
06B800
1C0A00
380740
740380
740380
740380
380740
2D0A00
07A800
ENDCHAR
STARTCHAR Ohungarumlaut
ENCODING 336
SWIDTH 738 0
DWIDTH 13 0
BBX 12 15 1 0
BITMAP
007AD0
009600
000000
06AA40
1D01E0
780074
B0003C
F0002D
F0002D
F0002D
F0002D
B4003C
780074
1D01E0
06AA40
ENDCHAR
STARTCHAR ohungarumlaut
ENCODING 337
SWIDTH 514 0
DWIDTH 9 0
BBX 9 13 0 0
BITMAP
00AA00
01CD00
021800
000000
06B800
1C0A00
380740
740380
740380
740380
380740
2D0A00
07A800
ENDCHAR
STARTCHAR OE
ENCODING 338
SWIDTH 945 0
DWIDTH 17 0
BBX 16 12 1 0
BITMAP
06AFEABC
1E03C00C
7802C004
B402C010
F002C050
E002EAD0
F002C050
F002C000
B402C005
7802C009
1D03C01D
06AFEAFC
ENDCHAR
STARTCHAR oe
ENCODING 339
SWIDTH 807 0
DWIDTH 15 0
BBX 14 9 0 0
BITMAP
06A46B40
1C0E81D0
380740E0
7407EAE0
74034000
74078000
3807C010
2D0AE590
07A46F40
ENDCHAR
STARTCHAR Racute
ENCODING 340
SWIDTH 659 0
DWIDTH 12 0
BBX 11 16 1 0
BITMAP
006400
00E000
024000
000000
BEB900
2C0B40
2C0380
2C0380
2C0780
2C1E00
2EF400
2C7800
2C1E00
2C0B40
2C03D0
BF81F8
ENDCHAR
STARTCHAR racute
ENCODING 341
SWIDTH 380 0
DWIDTH 7 0
BBX 7 13 0 0
BITMAP
01D0
0280
0600
0000
2D78
1EB8
0E00
0D00
0D00
0D00
0D00
1D00
7F80
ENDCHAR
STARTCHAR Rcommaaccent
ENCODING 342
SWIDTH 659 0
DWIDTH 12 0
BBX 11 17 1 -5
BITMAP
BEB900
2C0B40
2C0380
2C0380
2C0780
2C1E00
2EF400
2C7800
2C1E00
2C0B40
2C03D0
BF81F8
000000
00E000
00F000
002000
009000
ENDCHAR
STARTCHAR rcommaaccent
ENCODING 343
SWIDTH 380 0
DWIDTH 7 0
BBX 7 14 0 -5
BITMAP
2D78
1EB8
0E00
0D00
0D00
0D00
0D00
1D00
7F80
0000
0E00
0F00
0200
0900
ENDCHAR
STARTCHAR Rcaron
ENCODING 344
SWIDTH 659 0
DWIDTH 12 0
BBX 11 16 1 0
BITMAP
040400
066400
01E000
000000
BEB900
2C0B40
2C0380
2C0380
2C0780
2C1E00
2EF400
2C7800
2C1E00
2C0B40
2C03D0
BF81F8
ENDCHAR
STARTCHAR rcaron
ENCODING 345
SWIDTH 380 0
DWIDTH 7 0
BBX 7 13 0 0
BITMAP
2420
0DC0
0740
0000
2D78
1EB8
0E00
0D00
0D00
0D00
0D00
1D00
7F80
ENDCHAR
STARTCHAR Sacute
ENCODING 346
SWIDTH 504 0
DWIDTH 9 0
BBX 9 16 0 0
BITMAP
006400
00E000
024000
000000
0ABE00
280B00
340300
380200
2F4000
0BE000
01BD00
001F00
500740
600740
740B00
7FA800
ENDCHAR
STARTCHAR sacute
ENCODING 347
SWIDTH 394 0
DWIDTH 7 0
BBX 7 13 0 0
BITMAP
01D0
0280
0200
0000
1AA0
3030
7420
3D00
0BD0
01F4
5038
6034
6AA0
ENDCHAR
STARTCHAR Scircumflex
ENCODING 348
SWIDTH 504 0
DWIDTH 9 0
BBX 9 16 0 0
BITMAP
009000
03B000
091800
000000
0ABE00
280B00
340300
380200
2F4000
0BE000
01BD00
001F00
500740
600740
740B00
7FA800
ENDCHAR
STARTCHAR scircumflex
ENCODING 349
SWIDTH 394 0
DWIDTH 7 0
BBX 7 13 0 0
BITMAP
0780
0DD0
2420
0000
1AA0
3030
7420
3D00
0BD0
01F4
5038
6034
6AA0
ENDCHAR
STARTCHAR uni015E
ENCODING 350
SWIDTH 504 0
DWIDTH 9 0
BBX 9 16 0 -4
BITMAP
0ABE00
280B00
340300
380200
2F4000
0BE000
01BD00
001F00
500740
600740
740B00
7FA800
004000
01A000
003000
02A000
ENDCHAR
STARTCHAR uni015F
ENCODING 351
SWIDTH 394 0
DWIDTH 7 0
BBX 7 13 0 -4
BITMAP
1AA0
3030
7420
3D00
0BD0
01F4
5038
6034
6AA0
0100
0680
00D0
0A80
ENDCHAR
STARTCHAR Scaron
ENCODING 352
SWIDTH 504 0
DWIDTH 9 0
BBX 9 16 0 0
BITMAP
040400
066400
01E000
000000
0ABE00
280B00
340300
380200
2F4000
0BE000
01BD00
001F00
500740
600740
740B00
7FA800
ENDCHAR
STARTCHAR scaron
ENCODING 353
SWIDTH 394 0
DWIDTH 7 0
BBX 7 13 0 0
BITMAP
2420
0DC0
0740
0000
1AA0
3030
7420
3D00
0BD0
01F4
5038
6034
6AA0
ENDCHAR
STARTCHAR uni0162
ENCODING 354
SWIDTH 603 0
DWIDTH 11 0
BBX 11 16 0 -4
BITMAP
BEFAF4
907424
807408
007400
007400
007400
007400
007400
007400
007400
00B400
02FE00
001000
006800
000D00
00A800
ENDCHAR
STARTCHAR uni0163
ENCODING 355
SWIDTH 315 0
DWIDTH 6 0
BBX 6 16 0 -4
BITMAP
0400
0800
1C00
6E80
1C00
1C00
1C00
1C00
1C00
1C00
1D10
0B80
0500
0680
00C0
0A40
ENDCHAR
STARTCHAR Tcaron
ENCODING 356
SWIDTH 603 0
DWIDTH 11 0
BBX 11 16 0 0
BITMAP
010100
019900
00B400
000000
BEFAF4
907424
807408
007400
007400
007400
007400
007400
007400
007400
00B400
02FE00
ENDCHAR
STARTCHAR tcaron
ENCODING 357
SWIDTH 353 0
DWIDTH 6 0
BBX 6 13 0 0
BITMAP
0070
0470
0860
1C40
6E80
1C00
1C00
1C00
1C00
1C00
1C00
1D10
0B80
ENDCHAR
STARTCHAR Tbar
ENCODING 358
SWIDTH 603 0
DWIDTH 11 0
BBX 11 12 0 0
BITMAP
BEFAF4
907424
807408
007400
007400
0AFA40
007400
007400
007400
007400
00B400
02FE00
ENDCHAR
STARTCHAR tbar
ENCODING 359
SWIDTH 328 0
DWIDTH 6 0
BBX 6 12 0 0
BITMAP
0400
0900
1D00
2E90
1D00
1D00
6E90
1D00
1D00
1D00
1D10
0B80
ENDCHAR
STARTCHAR Utilde
ENCODING 360
SWIDTH 752 0
DWIDTH 14 0
BBX 13 15 0 0
BITMAP
002A6000
00429000
00000000
7FD03FC0
0F000A00
0E000A00
0E000A00
0E000A00
0E000A00
0E000A00
0E000900
0B000900
0B000800
03802800
01BA9000
ENDCHAR
STARTCHAR utilde
ENCODING 361
SWIDTH 570 0
DWIDTH 10 0
BBX 10 12 0 0
BITMAP
029600
046900
000000
6C1B40
1C0340
1C0340
1C0340
1C0340
1C0340
1D0340
0E0B40
07A790
ENDCHAR
STARTCHAR Umacron
ENCODING 362
SWIDTH 752 0
DWIDTH 14 0
BBX 13 14 0 0
BITMAP
006AA000
00000000
7FD03FC0
0F000A00
0E000A00
0E000A00
0E000A00
0E000A00
0E000A00
0E000900
0B000900
0B000800
03802800
01BA9000
ENDCHAR
STARTCHAR umacron
ENCODING 363
SWIDTH 570 0
DWIDTH 10 0
BBX 10 11 0 0
BITMAP
06A900
000000
6C1B40
1C0340
1C0340
1C0340
1C0340
1C0340
1D0340
0E0B40
07A790
ENDCHAR
STARTCHAR Ubreve
ENCODING 364
SWIDTH 752 0
DWIDTH 14 0
BBX 13 16 0 0
BITMAP
00502000
00205000
001A8000
00000000
7FD03FC0
0F000A00
0E000A00
0E000A00
0E000A00
0E000A00
0E000A00
0E000900
0B000900
0B000800
03802800
01BA9000
ENDCHAR
STARTCHAR ubreve
ENCODING 365
SWIDTH 570 0
DWIDTH 10 0
BBX 10 13 0 0
BITMAP
080100
050800
01A400
000000
6C1B40
1C0340
1C0340
1C0340
1C0340
1C0340
1D0340
0E0B40
07A790
ENDCHAR
STARTCHAR Uring
ENCODING 366
SWIDTH 752 0
DWIDTH 14 0
BBX 13 17 0 0
BITMAP
000A4000
00248000
0024C000
000A4000
00000000
7FD03FC0
0F000A00
0E000A00
0E000A00
0E000A00
0E000A00
0E000A00
0E000900
0B000900
0B000800
03802800
01BA9000
ENDCHAR
STARTCHAR uring
ENCODING 367
SWIDTH 570 0
DWIDTH 10 0
BBX 10 14 0 0
BITMAP
01A000
020800
020800
01A400
000000
6C1B40
1C0340
1C0340
1C0340
1C0340
1C0340
1D0340
0E0B40
07A790
ENDCHAR
STARTCHAR Uhungarumlaut
ENCODING 368
SWIDTH 752 0
DWIDTH 14 0
BBX 13 15 0 0
BITMAP
000B7800
00189000
00000000
7FD03FC0
0F000A00
0E000A00
0E000A00
0E000A00
0E000A00
0E000A00
0E000900
0B000900
0B000800
03802800
01BA9000
ENDCHAR
STARTCHAR uhungarumlaut
ENCODING 369
SWIDTH 570 0
DWIDTH 10 0
BBX 10 13 0 0
BITMAP
00A740
00DA00
024800
000000
6C1B40
1C0340
1C0340
1C0340
1C0340
1C0340
1D0340
0E0B40
07A790
ENDCHAR
STARTCHAR Uogonek
ENCODING 370
SWIDTH 753 0
DWIDTH 14 0
BBX 13 16 0 -4
BITMAP
7FD03FC0
0F000A00
0E000A00
0E000A00
0E000A00
0E000A00
0E000A00
0E000A00
0B000900
0B000900
03802800
01BAE000
00024000
00090000
000D0000
000B9000
ENDCHAR
STARTCHAR uogonek
ENCODING 371
SWIDTH 570 0
DWIDTH 10 0
BBX 10 13 0 -4
BITMAP
6C1B40
1C0340
1C0340
1C0340
1C0340
1C0340
1D0340
0E0B40
07A7D0
000900
001800
002800
001E40
ENDCHAR
STARTCHAR Wcircumflex
ENCODING 372
SWIDTH 944 0
DWIDTH 17 0
BBX 17 16 0 0
BITMAP
0001400000
0007A00000
0009180000
0000000000
FF4FF42F80
2D02D00A00
1E01E00900
0F00F00C00
0740F41800
0381B82400
02D22C3000
01E21D6000
00F90F9000
007C078000
0038034000
0024020000
ENDCHAR
STARTCHAR wcircumflex
ENCODING 373
SWIDTH 749 0
DWIDTH 13 0
BBX 15 13 -1 0
BITMAP
00078000
00099000
00142000
00000000
7F4FD1F8
0E038060
0B02C090
0742D080
0386A140
01D87200
00E83A00
00B42D00
00701C00
ENDCHAR
STARTCHAR Ycircumflex
ENCODING 374
SWIDTH 647 0
DWIDTH 12 0
BBX 12 16 0 0
BITMAP
001400
007A00
008240
000000
FF80FE
2E0034
0B4090
078180
02D200
00F600
007C00
003800
003800
003800
003C00
02FF40
ENDCHAR
STARTCHAR ycircumflex
ENCODING 375
SWIDTH 483 0
DWIDTH 9 0
BBX 10 17 -1 -4
BITMAP
007800
009900
014200
000000
7F43E0
0E0180
0B0240
078200
02C600
01D900
00A800
007400
003000
006000
009000
2A8000
2E0000
ENDCHAR
STARTCHAR Ydieresis
ENCODING 376
SWIDTH 647 0
DWIDTH 12 0
BBX 12 15 0 0
BITMAP
02C2C0
02C2C0
000000
FF80FE
2E0034
0B4090
078180
02D200
00F600
007C00
003800
003800
003800
003C00
02FF40
ENDCHAR
STARTCHAR Zacute
ENCODING 377
SWIDTH 594 0
DWIDTH 11 0
BBX 10 16 0 0
BITMAP
001900
003800
009000
000000
2FAAF0
2402D0
200780
000F00
002D00
007800
00F000
02D000
078000
0F0020
2D0070
7EABE0
ENDCHAR
STARTCHAR zacute
ENCODING 378
SWIDTH 458 0
DWIDTH 8 0
BBX 8 13 0 0
BITMAP
00B0
00D0
0140
0000
3EBE
203C
10B4
01E0
02C0
0740
1E02
2C0A
7EBD
ENDCHAR
STARTCHAR Zdotaccent
ENCODING 379
SWIDTH 594 0
DWIDTH 11 0
BBX 10 15 0 0
BITMAP
007800
007400
000000
2FAAF0
2402D0
200780
000F00
002D00
007800
00F000
02D000
078000
0F0020
2D0070
7EABE0
ENDCHAR
STARTCHAR zdotaccent
ENCODING 380
SWIDTH 458 0
DWIDTH 8 0
BBX 8 12 0 0
BITMAP
02D0
01C0
0000
3EBE
203C
10B4
01E0
02C0
0740
1E02
2C0A
7EBD
ENDCHAR
STARTCHAR Zcaron
ENCODING 381
SWIDTH 594 0
DWIDTH 11 0
BBX 10 16 0 0
BITMAP
010100
01DA00
007800
000000
2FAAF0
2402D0
200780
000F00
002D00
007800
00F000
02D000
078000
0F0020
2D0070
7EABE0
ENDCHAR
STARTCHAR zcaron
ENCODING 382
SWIDTH 458 0
DWIDTH 8 0
BBX 8 13 0 0
BITMAP
0818
0660
02D0
0000
3EBE
203C
10B4
01E0
02C0
0740
1E02
2C0A
7EBD
ENDCHAR
STARTCHAR longs
ENCODING 383
SWIDTH 285 0
DWIDTH 5 0
BBX 7 13 0 0
BITMAP
02F4
0928
0D00
0D00
6D00
0D00
0D00
0D00
0D00
0D00
0D00
1D00
BF80
ENDCHAR
STARTCHAR uni0180
ENCODING 384
SWIDTH 522 0
DWIDTH 9 0
BBX 9 13 0 0
BITMAP
6C0000
2C0000
BEA400
2C0000
2DAD00
2D0B00
2C0380
2C0380
2C0380
2C0380
2C0740
2D0A00
1BA400
ENDCHAR
STARTCHAR uni0188
ENCODING 392
SWIDTH 446 0
DWIDTH 8 0
BBX 10 12 0 0
BITMAP
0006D0
000850
000800
06B800
182D00
340900
700000
700000
740000
380100
2D5800
0BE400
ENDCHAR
STARTCHAR uni0190
ENCODING 400
SWIDTH 518 0
DWIDTH 9 0
BBX 9 12 0 0
BITMAP
06BE00
2C0B40
380240
380000
1D0000
07E400
1D0000
380000
780000
780040
2D0140
0BE900
ENDCHAR
STARTCHAR uni0192
ENCODING 402
SWIDTH 301 0
DWIDTH 5 0
BBX 9 17 -2 -4
BITMAP
002F40
009280
00D000
01D000
06E900
01D000
01D000
01D000
01D000
01D000
01D000
01D000
01D000
01D000
01C000
B1C000
7E4000
ENDCHAR
STARTCHAR uni0195
ENCODING 405
SWIDTH 798 0
DWIDTH 14 0
BBX 14 13 0 0
BITMAP
6D000000
1D000000
1D000000
1D000000
1DAD0280
1E0742C0
1D0340D0
1D038050
1D038050
1D038050
1D038040
1D028040
7F40AA00
ENDCHAR
STARTCHAR uni0199
ENCODING 409
SWIDTH 538 0
DWIDTH 10 0
BBX 10 13 0 0
BITMAP
02B800
091D00
0D0000
1D0000
1D2F80
1D1D00
1D6000
1D8000
1ED000
1DB400
1D2C00
1D0F00
7F5FD0
ENDCHAR
STARTCHAR uni019A
ENCODING 410
SWIDTH 287 0
DWIDTH 5 0
BBX 5 13 0 0
BITMAP
6D00
1D00
0D00
0D00
0D00
0D00
6F80
0D00
0D00
0D00
0D00
1D00
7F80
ENDCHAR
STARTCHAR uni019B
ENCODING 411
SWIDTH 495 0
DWIDTH 9 0
BBX 9 13 0 0
BITMAP
7D0000
16A400
06C000
048000
009000
00E000
02E400
039800
0B0800
0E0900
2C0600
380300
FE0BC0
ENDCHAR
STARTCHAR uni019E
ENCODING 414
SWIDTH 559 0
DWIDTH 10 0
BBX 10 13 0 -4
BITMAP
6D6E00
1E0740
0D0380
0D0380
0D0380
0D0380
0D0380
1D0380
7F8380
000380
000380
000380
0003E0
ENDCHAR
STARTCHAR Ohorn
ENCODING 416
SWIDTH 737 0
DWIDTH 13 0
BBX 12 15 1 0
BITMAP
00000E
00000A
00000A
06AFE8
1D01E0
780074
B0003C
F0002D
E0002D
E0002D
F0002C
B0003C
780074
1D01E0
06AA40
ENDCHAR
STARTCHAR ohorn
ENCODING 417
SWIDTH 516 0
DWIDTH 9 0
BBX 9 12 0 0
BITMAP
0001C0
0001C0
0000C0
06BE40
1C0A00
380740
740380
740380
740380
380740
2D0A00
07A800
ENDCHAR
STARTCHAR uni01A5
ENCODING 421
SWIDTH 522 0
DWIDTH 9 0
BBX 9 17 0 -4
BITMAP
06F800
0C2C00
1C0000
2C0000
2DBD00
2D0B00
2C0380
2C0380
2C0380
2C0380
2C0340
2D0A00
2EA800
2C0000
2C0000
2C0000
BF8000
ENDCHAR
STARTCHAR uni01AA
ENCODING 426
SWIDTH 298 0
DWIDTH 5 0
BBX 8 17 -1 -4
BITMAP
6A00
8340
8280
8280
6A80
0280
0280
0280
0280
0280
0280
0280
0280
0280
02C0
01C7
00AE
ENDCHAR
STARTCHAR uni01AB
ENCODING 427
SWIDTH 321 0
DWIDTH 6 0
BBX 6 16 0 -4
BITMAP
0400
0800
1C00
6E80
1C00
1C00
1C00
1C00
1C00
1C00
1D10
0BA0
0060
0060
0850
0A80
ENDCHAR
STARTCHAR uni01AD
ENCODING 429
SWIDTH 315 0
DWIDTH 6 0
BBX 7 13 0 0
BITMAP
02B8
091C
1C00
1C00
7E80
1C00
1C00
1C00
1C00
1C00
1C00
1D10
0B80
ENDCHAR
STARTCHAR Uhorn
ENCODING 431
SWIDTH 762 0
DWIDTH 14 0
BBX 15 16 0 0
BITMAP
00000014
00000038
00000028
00000024
7FD03F40
0F000A00
0E000A00
0E000A00
0E000A00
0E000A00
0E000A00
0E000900
0B000900
0B000800
03801800
01BA9000
ENDCHAR
STARTCHAR uhorn
ENCODING 432
SWIDTH 574 0
DWIDTH 10 0
BBX 11 12 0 0
BITMAP
000010
000034
000024
6C1BE0
2C0740
1C0340
1C0340
1C0340
1C0340
1D0340
0E0740
07A790
ENDCHAR
STARTCHAR uni01B5
ENCODING 437
SWIDTH 594 0
DWIDTH 11 0
BBX 10 12 0 0
BITMAP
2FAAF0
2402D0
200780
000F00
002D00
0AFE80
00F000
02D000
078000
0F0020
2D0070
7EABE0
ENDCHAR
STARTCHAR uni01BA
ENCODING 442
SWIDTH 430 0
DWIDTH 8 0
BBX 7 13 0 -4
BITMAP
7AB8
50B0
42C0
0740
0FA0
0078
002C
002C
00B4
1A40
2010
6074
2AE0
ENDCHAR
STARTCHAR uni01BB
ENCODING 443
SWIDTH 508 0
DWIDTH 9 0
BBX 9 13 0 0
BITMAP
06E400
241D00
100E00
000F00
000E00
001D00
2ABE40
00A000
018000
060040
080240
2FFF00
7FFF00
ENDCHAR
STARTCHAR uni01BE
ENCODING 446
SWIDTH 406 0
DWIDTH 7 0
BBX 7 12 0 0
BITMAP
0100
0900
1D00
6F90
0D00
0A80
00B4
0038
0028
5038
6034
6A90
ENDCHAR
STARTCHAR uni01C0
ENCODING 448
SWIDTH 250 0
DWIDTH 5 0
BBX 2 13 1 0
BITMAP
70
70
70
70
70
70
70
70
70
70
70
70
70
ENDCHAR
STARTCHAR uni01C1
ENCODING 449
SWIDTH 423 0
DWIDTH 8 0
BBX 5 13 1 0
BITMAP
71C0
71C0
71C0
71C0
71C0
71C0
71C0
71C0
71C0
71C0
71C0
71C0
71C0
ENDCHAR
STARTCHAR uni01C2
ENCODING 450
SWIDTH 422 0
DWIDTH 8 0
BBX 7 13 0 0
BITMAP
0380
0380
0380
0380
6BE8
0380
0380
6BE8
0380
0380
0380
0380
0380
ENDCHAR
STARTCHAR uni01C3
ENCODING 451
SWIDTH 245 0
DWIDTH 4 0
BBX 2 13 1 0
BITMAP
70
B0
B0
B0
70
60
60
60
60
10
00
B0
B0
ENDCHAR
STARTCHAR uni01DE
ENCODING 478
SWIDTH 718 0
DWIDTH 13 0
BBX 13 16 0 0
BITMAP
01AA8000
01D1D000
01D1D000
00000000
001C0000
002D0000
002E0000
00974000
00C38000
0182C000
0201E000
07AAF000
09007400
0C003C00
28002D00
BE00BF80
ENDCHAR
STARTCHAR uni01DF
ENCODING 479
SWIDTH 480 0
DWIDTH 9 0
BBX 9 14 0 0
BITMAP
1AA800
000000
2C2C00
2C2C00
000000
0AE000
283800
382C00
002C00
06AC00
2D2C00
742C00
742C00
2E5E40
ENDCHAR
STARTCHAR uni01F0
ENCODING 496
SWIDTH 263 0
DWIDTH 5 0
BBX 7 17 -2 -4
BITMAP
0818
0660
02D0
0000
06D0
01D0
01D0
01D0
01D0
01D0
01D0
01D0
01D0
01D0
01C0
B180
7E00
ENDCHAR
STARTCHAR Aringacute
ENCODING 506
SWIDTH 718 0
DWIDTH 13 0
BBX 13 20 0 0
BITMAP
00064000
001E0000
00240000
00290000
00520000
00520000
00290000
00000000
001C0000
002D0000
002E0000
00974000
00C38000
0182C000
0201E000
07AAF000
09007400
0C003C00
28002D00
BE00BF80
ENDCHAR
STARTCHAR aringacute
ENCODING 507
SWIDTH 480 0
DWIDTH 9 0
BBX 9 17 0 0
BITMAP
006000
01D000
060000
029000
092000
092000
029000
000000
0AE000
283800
382C00
002C00
06AC00
2D2C00
742C00
742C00
2E5E40
ENDCHAR
STARTCHAR AEacute
ENCODING 508
SWIDTH 894 0
DWIDTH 16 0
BBX 17 16 -1 0
BITMAP
0000018000
0000074000
0000180000
0000000000
000BFABF00
0003B00700
0005B00200
000CB00000
0024B00800
0030B01800
00BAFAB800
01C0B01800
0240B00040
0600B00140
0D00B00340
7F46FABF00
ENDCHAR
STARTCHAR aeacute
ENCODING 509
SWIDTH 709 0
DWIDTH 13 0
BBX 12 13 0 0
BITMAP
000E00
002800
002000
000000
1AE2B8
383D0D
24280B
007EAB
0A6800
282C00
742D01
742F56
2E46F8
ENDCHAR
STARTCHAR Oslashacute
ENCODING 510
SWIDTH 737 0
DWIDTH 13 0
BBX 12 16 1 0
BITMAP
001900
003800
009000
000000
06AA60
1D01E0
7801F4
B0023C
F0082D
E0242D
F0502D
F1802D
B6003C
7C0074
2D01E0
56AA40
ENDCHAR
STARTCHAR oslashacute
ENCODING 511
SWIDTH 514 0
DWIDTH 9 0
BBX 9 13 0 0
BITMAP
00B000
00D000
014000
000000
06BA00
1C0E00
382B40
745380
748380
760380
3D0740
2C0A00
26A800
ENDCHAR
STARTCHAR uni0218
ENCODING 536
SWIDTH 504 0
DWIDTH 9 0
BBX 9 17 0 -5
BITMAP
0ABE00
280B00
340300
380200
2F4000
0BE000
01BD00
001F00
500740
600740
740B00
7FA800
000000
02D000
02E000
005000
018000
ENDCHAR
STARTCHAR uni0219
ENCODING 537
SWIDTH 394 0
DWIDTH 7 0
BBX 7 14 0 -5
BITMAP
1AA0
3030
7420
3D00
0BD0
01F4
5038
6034
6AA0
0000
0740
0780
0180
0600
ENDCHAR
STARTCHAR uni021A
ENCODING 538
SWIDTH 603 0
DWIDTH 11 0
BBX 11 17 0 -5
BITMAP
BEFAF4
907424
807408
007400
007400
007400
007400
007400
007400
007400
00B400
02FE00
000000
007400
007800
001400
006000
ENDCHAR
STARTCHAR uni021B
ENCODING 539
SWIDTH 315 0
DWIDTH 6 0
BBX 6 17 0 -5
BITMAP
0400
0800
1C00
6E80
1C00
1C00
1C00
1C00
1C00
1C00
1D10
0B80
0000
0B40
0B80
0140
0600
ENDCHAR
STARTCHAR uni0221
ENCODING 545
SWIDTH 674 0
DWIDTH 12 0
BBX 12 16 0 -3
BITMAP
001B00
000B00
000B00
000B00
06AB00
1C0F00
340B00
740B00
740B00
740B00
780B1A
2D5B62
0BD2E9
000240
000200
000400
ENDCHAR
STARTCHAR uni0228
ENCODING 552
SWIDTH 626 0
DWIDTH 11 0
BBX 11 16 0 -4
BITMAP
6FABF0
0B0020
0B0010
0B0080
0B0180
0BAB80
0B0080
0B0000
0B0008
0B0018
0B0024
6FABF4
002000
002900
000A00
006800
ENDCHAR
STARTCHAR uni0229
ENCODING 553
SWIDTH 464 0
DWIDTH 8 0
BBX 8 13 0 -4
BITMAP
06A4
282C
340E
7AAE
7000
7400
3801
2E59
07F4
0140
01A0
0030
0290
ENDCHAR
STARTCHAR uni0234
ENCODING 564
SWIDTH 399 0
DWIDTH 7 0
BBX 8 16 0 -3
BITMAP
6C00
2C00
2C00
2C00
2C00
2C00
2C00
2C00
2C00
2C00
2C68
1D49
0BA4
0900
0800
1000
ENDCHAR
STARTCHAR uni0235
ENCODING 565
SWIDTH 702 0
DWIDTH 13 0
BBX 13 12 0 -3
BITMAP
6D6D0000
1E074000
0D034000
0D034000
0D034000
0D034000
0D034A40
1D03A480
7F81FA00
00008000
00024000
00010000
ENDCHAR
STARTCHAR uni0236
ENCODING 566
SWIDTH 406 0
DWIDTH 7 0
BBX 8 15 0 -3
BITMAP
0400
0800
1C00
6E90
1C00
1C00
1C00
1C00
1C00
1C68
1D85
0BA8
0500
0800
0400
ENDCHAR
STARTCHAR uni0237
ENCODING 567
SWIDTH 263 0
DWIDTH 5 0
BBX 6 13 -2 -4
BITMAP
06D0
01D0
01D0
01D0
01D0
01D0
01D0
01D0
01D0
01D0
01C0
B180
7E00
ENDCHAR
STARTCHAR uni0250
ENCODING 592
SWIDTH 475 0
DWIDTH 9 0
BBX 8 9 0 0
BITMAP
78BD
1D0E
1C0A
1C1D
1E90
1D00
1D0D
0D0D
07A4
ENDCHAR
STARTCHAR uni0251
ENCODING 593
SWIDTH 542 0
DWIDTH 10 0
BBX 9 9 0 0
BITMAP
06AB00
1C0F00
340B00
740B00
700B00
740B00
740B00
2C0B00
0BAB40
ENDCHAR
STARTCHAR uni0252
ENCODING 594
SWIDTH 544 0
DWIDTH 10 0
BBX 8 9 1 0
BITMAP
BAB8
781E
740B
7407
7407
7407
740A
781C
6AA0
ENDCHAR
STARTCHAR uni0253
ENCODING 595
SWIDTH 518 0
DWIDTH 9 0
BBX 8 13 1 0
BITMAP
1BD0
30B0
7000
B000
B6F4
B42C
B01D
B00E
B00E
B00E
B01D
B028
6E90
ENDCHAR
STARTCHAR uni0254
ENCODING 596
SWIDTH 454 0
DWIDTH 8 0
BBX 8 9 0 0
BITMAP
0BE0
2578
401D
000D
000E
000D
240C
3828
1E90
ENDCHAR
STARTCHAR uni0255
ENCODING 597
SWIDTH 447 0
DWIDTH 8 0
BBX 8 11 0 -2
BITMAP
06B8
182D
3404
7000
7000
7468
3985
2F05
0BE8
0800
1400
ENDCHAR
STARTCHAR uni0256
ENCODING 598
SWIDTH 528 0
DWIDTH 10 0
BBX 12 17 0 -4
BITMAP
001B00
000B00
000B00
000B00
06AB00
1C0F00
340B00
740B00
740B00
740B00
740B00
2C0B00
0BAB00
000700
000700
00030D
0001B8
ENDCHAR
STARTCHAR uni0257
ENCODING 599
SWIDTH 542 0
DWIDTH 10 0
BBX 12 13 0 0
BITMAP
0001BD
00030A
000700
000700
06AB00
1C0F00
340B00
740B00
740B00
740B00
740B00
2C0B00
0BAB40
ENDCHAR
STARTCHAR uni0258
ENCODING 600
SWIDTH 466 0
DWIDTH 8 0
BBX 8 9 0 0
BITMAP
0AA4
2C1C
3409
7AAE
000A
000E
401D
257C
0BE0
ENDCHAR
STARTCHAR uni0259
ENCODING 601
SWIDTH 464 0
DWIDTH 8 0
BBX 8 9 0 0
BITMAP
0BE0
257C
401D
000E
000A
7AAE
340D
281C
0AA0
ENDCHAR
STARTCHAR uni025A
ENCODING 602
SWIDTH 642 0
DWIDTH 12 0
BBX 12 9 0 0
BITMAP
0BE000
257C50
401E91
000E28
000A00
7AAE00
340D00
281C00
0AA000
ENDCHAR
STARTCHAR uni025B
ENCODING 603
SWIDTH 399 0
DWIDTH 7 0
BBX 7 9 0 0
BITMAP
1AE0
3438
3414
2800
0B80
2800
7400
7404
1AA0
ENDCHAR
STARTCHAR uni025C
ENCODING 604
SWIDTH 398 0
DWIDTH 7 0
BBX 7 9 0 0
BITMAP
2E90
7474
1034
00A0
0B80
0070
0034
4074
2A90
ENDCHAR
STARTCHAR uni025D
ENCODING 605
SWIDTH 575 0
DWIDTH 10 0
BBX 11 9 0 0
BITMAP
2E9000
707500
003B54
0051A0
0BD000
007400
003400
407400
2A9000
ENDCHAR
STARTCHAR uni025E
ENCODING 606
SWIDTH 500 0
DWIDTH 9 0
BBX 9 9 0 0
BITMAP
06A900
1D0B00
340700
740A00
70B800
740A00
340740
1C0B40
06A900
ENDCHAR
STARTCHAR uni025F
ENCODING 607
SWIDTH 272 0
DWIDTH 5 0
BBX 7 13 -2 -4
BITMAP
06D0
00D0
00D0
07F8
00D0
00D0
00D0
00D0
00D0
00D0
01C0
B180
7E00
ENDCHAR
STARTCHAR uni0260
ENCODING 608
SWIDTH 541 0
DWIDTH 10 0
BBX 12 17 0 -4
BITMAP
0001BE
00030B
000700
000B00
06AB00
1C0F00
340B00
740B00
740B00
740B00
780B00
2D5F00
0BDB00
000B00
100A00
381D00
1BA400
ENDCHAR
STARTCHAR uni0261
ENCODING 609
SWIDTH 521 0
DWIDTH 9 0
BBX 8 13 0 -4
BITMAP
06AA
1C0F
340B
740B
740B
740B
780B
2D5F
0BDB
000B
100A
381D
1BA4
ENDCHAR
STARTCHAR uni0262
ENCODING 610
SWIDTH 535 0
DWIDTH 10 0
BBX 10 9 0 0
BITMAP
06AF40
1D0340
380140
740000
741FD0
740340
380340
2D0740
06E900
ENDCHAR
STARTCHAR uni0263
ENCODING 611
SWIDTH 479 0
DWIDTH 9 0
BBX 10 13 -1 -4
BITMAP
7F43F0
0E0180
0B0240
074300
028600
01D800
00E800
00B400
007400
00A800
009C00
019C00
00B800
ENDCHAR
STARTCHAR uni0264
ENCODING 612
SWIDTH 466 0
DWIDTH 8 0
BBX 9 9 0 0
BITMAP
7A6E00
D2C740
42A100
097000
083400
082800
182800
083400
06A000
ENDCHAR
STARTCHAR uni0265
ENCODING 613
SWIDTH 553 0
DWIDTH 10 0
BBX 10 13 0 -4
BITMAP
6C0B80
2C0780
1C0380
1C0380
1C0380
1C0380
1D0380
0E0780
07A780
000380
000380
000380
0003E0
ENDCHAR
STARTCHAR uni0266
ENCODING 614
SWIDTH 577 0
DWIDTH 10 0
BBX 10 13 0 0
BITMAP
02B800
091D00
0D0000
1D0000
1D6E00
1E0740
1D0380
1D0280
1D0280
1D0280
1D0280
1D0380
7F4FE0
ENDCHAR
STARTCHAR uni0267
ENCODING 615
SWIDTH 562 0
DWIDTH 10 0
BBX 9 17 0 -4
BITMAP
02B800
091D00
0D0000
1D0000
1D6E00
1E0740
1D0380
1D0280
1D0280
1D0280
1D0280
1D0280
7F4280
000280
000340
01D340
00B900
ENDCHAR
STARTCHAR uni0268
ENCODING 616
SWIDTH 295 0
DWIDTH 5 0
BBX 5 13 0 0
BITMAP
0D00
1E00
0000
0000
2D00
1D00
0D00
0D00
6F80
0D00
0D00
0D00
7F80
ENDCHAR
STARTCHAR uni0269
ENCODING 617
SWIDTH 286 0
DWIDTH 5 0
BBX 6 9 0 0
BITMAP
6C00
2C00
1C00
1C00
1C00
1C00
1C00
1D10
0B80
ENDCHAR
STARTCHAR uni026A
ENCODING 618
SWIDTH 287 0
DWIDTH 5 0
BBX 5 9 0 0
BITMAP
7F40
1D00
0D00
0D00
0D00
0D00
0D00
1D00
7F40
ENDCHAR
STARTCHAR uni026B
ENCODING 619
SWIDTH 290 0
DWIDTH 5 0
BBX 5 13 0 0
BITMAP
6D00
1D00
0D00
0D00
0D00
6D40
4F80
0D00
0D00
0D00
0D00
1D00
7F80
ENDCHAR
STARTCHAR uni026C
ENCODING 620
SWIDTH 318 0
DWIDTH 6 0
BBX 6 13 0 0
BITMAP
2B00
0B00
0B00
0B00
6F00
CB00
CB10
AB80
1B00
0B00
0B00
0B00
2FD0
ENDCHAR
STARTCHAR uni026D
ENCODING 621
SWIDTH 248 0
DWIDTH 4 0
BBX 7 17 0 -4
BITMAP
6C00
2C00
2C00
2C00
2C00
2C00
2C00
2C00
2C00
2C00
2C00
2C00
2C00
2C00
1C00
0C74
06E0
ENDCHAR
STARTCHAR uni026E
ENCODING 622
SWIDTH 590 0
DWIDTH 11 0
BBX 11 17 0 -4
BITMAP
6D0000
1D0000
1D0000
1D0000
1EAAF0
1D01D0
1D0380
1D0B00
1D1D00
1D3D00
1D06D0
1D00B0
7F8074
000074
0100B0
0381D0
01EA40
ENDCHAR
STARTCHAR uni026F
ENCODING 623
SWIDTH 846 0
DWIDTH 15 0
BBX 15 9 0 0
BITMAP
6C1B42D0
1C0741D0
1C0740D0
1C0740D0
1C0740D0
1C0740D0
1C0740D0
0D0B82D0
07A1E8E4
ENDCHAR
STARTCHAR uni0270
ENCODING 624
SWIDTH 826 0
DWIDTH 15 0
BBX 15 13 0 -4
BITMAP
6C1B42D0
2C0741D0
1C0740D0
1C0740D0
1C0740D0
1C0740D0
1C0740D0
0D0B82D0
07A1E8D0
000000D0
000000D0
000000D0
000000F8
ENDCHAR
STARTCHAR uni0271
ENCODING 625
SWIDTH 835 0
DWIDTH 15 0
BBX 14 13 0 -4
BITMAP
6D6E1B80
1E07D0D0
0D0380E0
0D0380E0
0D0380E0
0D0380E0
0D0380E0
1D0380E0
7F9FE0E0
000000E0
000000D0
000074C0
00002E40
ENDCHAR
STARTCHAR uni0272
ENCODING 626
SWIDTH 574 0
DWIDTH 10 0
BBX 12 13 -2 -4
BITMAP
06D6E0
01E074
01D038
01D038
01D038
01D038
01D038
01D038
01D0FE
01D000
01C000
A18000
7E0000
ENDCHAR
STARTCHAR uni0273
ENCODING 627
SWIDTH 563 0
DWIDTH 10 0
BBX 12 13 0 -4
BITMAP
6D6E00
1E0740
1D0380
1D0380
1D0380
1D0380
1D0380
1D0380
7F8380
000280
000280
000187
0000AE
ENDCHAR
STARTCHAR uni0274
ENCODING 628
SWIDTH 568 0
DWIDTH 10 0
BBX 10 9 0 0
BITMAP
BD07E0
1F0180
1B8080
15E080
14B480
142D80
140F80
180780
BE0180
ENDCHAR
STARTCHAR uni0275
ENCODING 629
SWIDTH 514 0
DWIDTH 9 0
BBX 9 9 0 0
BITMAP
06B800
1D0E00
380740
740380
7AAB80
740380
380740
2D0A00
06A800
ENDCHAR
STARTCHAR uni0276
ENCODING 630
SWIDTH 732 0
DWIDTH 13 0
BBX 13 9 0 0
BITMAP
06BFAF00
1D0E0200
380A0100
740A0800
740BAC00
740A0800
380A0040
2D0E0240
06AFAF40
ENDCHAR
STARTCHAR uni0277
ENCODING 631
SWIDTH 672 0
DWIDTH 12 0
BBX 12 9 0 0
BITMAP
01AA80
0E00B0
280028
34281D
743C1D
742C1D
74281D
2C2828
0B92A0
ENDCHAR
STARTCHAR uni0278
ENCODING 632
SWIDTH 658 0
DWIDTH 12 0
BBX 12 17 0 -4
BITMAP
00A800
003800
002800
002800
06BF90
1D28B4
38283C
74282C
74281D
74282C
382828
2D2874
06BE80
002800
002800
003800
00BE00
ENDCHAR
STARTCHAR uni0279
ENCODING 633
SWIDTH 380 0
DWIDTH 7 0
BBX 7 9 0 0
BITMAP
0BF4
02C0
01C0
01C0
01C0
01C0
02C0
AAD0
B5E0
ENDCHAR
STARTCHAR uni027A
ENCODING 634
SWIDTH 374 0
DWIDTH 7 0
BBX 6 13 0 0
BITMAP
06C0
02C0
01C0
01C0
01C0
01C0
01C0
01C0
01C0
01C0
02C0
AAD0
B5E0
ENDCHAR
STARTCHAR uni027B
ENCODING 635
SWIDTH 375 0
DWIDTH 7 0
BBX 9 13 0 -4
BITMAP
0BF400
02C000
01C000
01C000
01C000
01C000
02C000
AAC000
B5C000
01C000
01C000
00D740
006E00
ENDCHAR
STARTCHAR uni027C
ENCODING 636
SWIDTH 378 0
DWIDTH 7 0
BBX 7 13 0 -4
BITMAP
2D74
1EB8
1E00
1D00
1D00
1D00
1D00
1D00
1D00
1D00
1D00
1D00
7F80
ENDCHAR
STARTCHAR uni027D
ENCODING 637
SWIDTH 373 0
DWIDTH 7 0
BBX 7 13 0 -4
BITMAP
6DB4
1E64
1D00
1D00
1D00
1D00
1D00
1D00
1D00
1D00
0D00
0938
06F4
ENDCHAR
STARTCHAR uni027E
ENCODING 638
SWIDTH 371 0
DWIDTH 7 0
BBX 7 9 0 0
BITMAP
02F4
0924
0D00
1D00
1D00
1D00
1D00
1D00
7F80
ENDCHAR
STARTCHAR uni027F
ENCODING 639
SWIDTH 371 0
DWIDTH 7 0
BBX 7 9 0 0
BITMAP
BA00
9240
0280
02C0
02C0
02C0
02C0
02C0
0BF4
ENDCHAR
STARTCHAR uni0280
ENCODING 640
SWIDTH 494 0
DWIDTH 9 0
BBX 9 9 0 0
BITMAP
2EA800
1D0D00
0D0E00
0D1D00
0FE000
0DB400
0D3C00
1D1E00
7F4BC0
ENDCHAR
STARTCHAR uni0281
ENCODING 641
SWIDTH 494 0
DWIDTH 9 0
BBX 9 9 0 0
BITMAP
7F4BC0
1D1E00
0D3C00
0DB400
0FE000
0D1D00
0D0E00
1D0D00
6FA800
ENDCHAR
STARTCHAR uni0282
ENCODING 642
SWIDTH 395 0
DWIDTH 7 0
BBX 7 13 0 -4
BITMAP
1AA0
3030
7420
3E00
0BD0
01F4
5038
6034
6AA0
6000
2000
2240
1B40
ENDCHAR
STARTCHAR uni0283
ENCODING 643
SWIDTH 253 0
DWIDTH 5 0
BBX 9 17 -2 -4
BITMAP
006E00
00C340
01C000
01C000
01C000
01C000
01C000
01C000
01C000
01C000
01C000
01C000
01C000
01C000
01C000
A28000
7A0000
ENDCHAR
STARTCHAR uni0284
ENCODING 644
SWIDTH 286 0
DWIDTH 5 0
BBX 9 17 -2 -4
BITMAP
002B40
00A240
00D000
00D000
01D000
01D000
01D000
01D000
01D000
01D000
01D000
01D000
06F800
01D000
01C000
618000
7E0000
ENDCHAR
STARTCHAR uni0285
ENCODING 645
SWIDTH 361 0
DWIDTH 7 0
BBX 9 13 0 -4
BITMAP
7A0000
A24000
018000
01C000
01C000
01C000
01C000
01C000
01C000
01C000
01C000
00C340
006E00
ENDCHAR
STARTCHAR uni0286
ENCODING 646
SWIDTH 253 0
DWIDTH 5 0
BBX 9 17 -2 -4
BITMAP
006E40
00C340
01C000
01C000
01C000
01C000
01C000
01C000
01C000
01C000
01C000
01C000
01C000
1BC000
52E400
928000
2A0000
ENDCHAR
STARTCHAR uni0287
ENCODING 647
SWIDTH 315 0
DWIDTH 6 0
BBX 5 12 0 -3
BITMAP
6D00
4B00
0700
0700
0700
0700
0700
0700
6F80
0700
0500
0400
ENDCHAR
STARTCHAR uni0288
ENCODING 648
SWIDTH 309 0
DWIDTH 6 0
BBX 6 16 1 -4
BITMAP
1000
2400
7400
FE40
7400
7400
7400
7400
7400
7400
7400
7400
7400
3400
24E0
0BD0
ENDCHAR
STARTCHAR uni0289
ENCODING 649
SWIDTH 580 0
DWIDTH 10 0
BBX 10 9 0 0
BITMAP
6D1B80
1D0380
1D0380
6EABE0
1D0380
1D0380
1D0380
0E0B80
07A7D0
ENDCHAR
STARTCHAR uni028A
ENCODING 650
SWIDTH 548 0
DWIDTH 10 0
BBX 9 9 0 0
BITMAP
2E0F80
090600
1C0340
280280
3402C0
7402C0
3802C0
2D0740
06A900
ENDCHAR
STARTCHAR uni028B
ENCODING 651
SWIDTH 530 0
DWIDTH 10 0
BBX 9 9 0 0
BITMAP
6C0A00
1C0740
1C0280
1C0180
1C0080
1C0080
1D0140
0E0600
06A400
ENDCHAR
STARTCHAR uni028C
ENCODING 652
SWIDTH 495 0
DWIDTH 9 0
BBX 9 9 0 0
BITMAP
01C000
02D000
02B000
057400
083800
182C00
241D00
300E00
F82FC0
ENDCHAR
STARTCHAR uni028D
ENCODING 653
SWIDTH 764 0
DWIDTH 14 0
BBX 14 9 0 0
BITMAP
01C07000
02D0B400
02A0B800
05726C00
08361D00
182D0B00
241D0740
300E0380
F82F8BE0
ENDCHAR
STARTCHAR uni028E
ENCODING 654
SWIDTH 492 0
DWIDTH 9 0
BBX 9 13 0 0
BITMAP
000B40
003A40
006000
008000
018000
02C000
02E000
05B000
087800
082C00
241D00
300F00
F82FC0
ENDCHAR
STARTCHAR uni028F
ENCODING 655
SWIDTH 454 0
DWIDTH 8 0
BBX 10 9 -1 0
BITMAP
7F47D0
0E0240
074600
02C800
00E400
00B000
00B000
00B000
02FD00
ENDCHAR
STARTCHAR uni0290
ENCODING 656
SWIDTH 458 0
DWIDTH 8 0
BBX 11 13 0 -4
BITMAP
3EBD00
203C00
10B400
01E000
02C000
074000
0E0200
2C0600
7EBD00
000500
000500
000224
0001B4
ENDCHAR
STARTCHAR uni0291
ENCODING 657
SWIDTH 458 0
DWIDTH 8 0
BBX 8 12 0 -3
BITMAP
3EBD
203C
10B4
01E0
02C0
0740
0E1A
2C92
7EE9
0200
0500
0800
ENDCHAR
STARTCHAR uni0292
ENCODING 658
SWIDTH 443 0
DWIDTH 8 0
BBX 8 13 0 -4
BITMAP
7EBD
6038
50B0
01D0
0780
0B90
0078
001D
000E
000E
501D
B428
2E90
ENDCHAR
STARTCHAR uni0293
ENCODING 659
SWIDTH 443 0
DWIDTH 8 0
BBX 8 16 0 -7
BITMAP
7EBD
6038
50B0
01D0
0780
0B90
0078
001D
000E
280E
521D
6168
1AE0
0060
0020
0004
ENDCHAR
STARTCHAR uni0294
ENCODING 660
SWIDTH 383 0
DWIDTH 7 0
BBX 7 13 0 0
BITMAP
1A90
7074
6028
0028
0038
0074
01D0
0D00
1D00
1D00
1D00
1D00
7F80
ENDCHAR
STARTCHAR uni0295
ENCODING 661
SWIDTH 383 0
DWIDTH 7 0
BBX 7 13 0 0
BITMAP
1A90
7074
A034
E000
A000
7400
1D00
02C0
01C0
01C0
01C0
02D0
0BF4
ENDCHAR
STARTCHAR uni0296
ENCODING 662
SWIDTH 408 0
DWIDTH 7 0
BBX 7 13 0 0
BITMAP
2D00
1D00
0D00
0D00
0D00
0E00
01D0
0074
0038
0028
6028
7034
2A90
ENDCHAR
STARTCHAR uni0297
ENCODING 663
SWIDTH 437 0
DWIDTH 8 0
BBX 8 12 0 -3
BITMAP
06B4
1C2D
2809
3400
7000
7000
7000
7000
3400
2801
1D09
06A4
ENDCHAR
STARTCHAR uni0298
ENCODING 664
SWIDTH 736 0
DWIDTH 13 0
BBX 13 13 0 0
BITMAP
00AA9000
07407800
1D001D00
28000B00
34000740
741D0380
741E0380
74000380
34000740
28000B00
1D001D00
07407800
00AA9000
ENDCHAR
STARTCHAR uni0299
ENCODING 665
SWIDTH 485 0
DWIDTH 9 0
BBX 8 9 0 0
BITMAP
6FB8
1D1D
0D0E
0D1D
0FF4
0D1E
0D0B
1D0B
6FA8
ENDCHAR
STARTCHAR uni029A
ENCODING 666
SWIDTH 500 0
DWIDTH 9 0
BBX 9 9 0 0
BITMAP
1AA400
381D00
340700
280740
0B8340
280740
740700
780D00
1AA400
ENDCHAR
STARTCHAR uni029B
ENCODING 667
SWIDTH 536 0
DWIDTH 10 0
BBX 12 12 0 0
BITMAP
0000AC
000189
000140
06AF40
1D0240
380140
740000
740FD0
740340
380340
2D0740
06E900
ENDCHAR
STARTCHAR uni029C
ENCODING 668
SWIDTH 599 0
DWIDTH 11 0
BBX 10 9 0 0
BITMAP
7F4BF0
1D02C0
0D02C0
0D02C0
0FABC0
0D02C0
0D02C0
1D02C0
7F4BF0
ENDCHAR
STARTCHAR uni029D
ENCODING 669
SWIDTH 263 0
DWIDTH 5 0
BBX 7 16 -2 -4
BITMAP
01D0
01D0
0000
06D0
01D0
01D0
01D0
01D0
01D0
01D0
01D0
01D0
1AD0
61E4
61C0
2A40
ENDCHAR
STARTCHAR uni029E
ENCODING 670
SWIDTH 542 0
DWIDTH 10 0
BBX 10 13 0 -4
BITMAP
BF2FC0
1E0B00
074B00
02DB00
00BB00
006B00
018B00
070B00
7F4B00
000B00
000B00
000B00
000BD0
ENDCHAR
STARTCHAR uni029F
ENCODING 671
SWIDTH 440 0
DWIDTH 8 0
BBX 8 9 0 0
BITMAP
7F40
1D00
1C00
1C00
1C00
1C00
1C01
1C05
7EAD
ENDCHAR
STARTCHAR uni02A0
ENCODING 672
SWIDTH 541 0
DWIDTH 10 0
BBX 12 17 0 -4
BITMAP
0001BE
00030B
000700
000B00
06AF00
1C0F00
340B00
740B00
740B00
740B00
780B00
2D5F00
0BDB00
000B00
000B00
000B00
006FC0
ENDCHAR
STARTCHAR uni02A1
ENCODING 673
SWIDTH 393 0
DWIDTH 7 0
BBX 7 13 0 0
BITMAP
1AA0
7434
7028
002C
0028
0034
01A0
0A00
0D00
6F90
0D00
1D00
7F80
ENDCHAR
STARTCHAR uni02A2
ENCODING 674
SWIDTH 393 0
DWIDTH 7 0
BBX 7 13 0 0
BITMAP
1A90
7474
B034
A000
B000
7400
2D00
0280
01D0
1AE4
01D0
01D0
0BF4
ENDCHAR
STARTCHAR uni02A3
ENCODING 675
SWIDTH 830 0
DWIDTH 15 0
BBX 15 13 0 0
BITMAP
001B0000
000B0000
000B0000
000B0000
06BFAAF4
1D0B00E0
340B02C0
740B0740
740B0E00
740B2C00
740B7414
2C0BA024
0BABFAF4
ENDCHAR
STARTCHAR uni02A4
ENCODING 676
SWIDTH 838 0
DWIDTH 15 0
BBX 15 17 0 -4
BITMAP
001B0000
000B0000
000B0000
000B0000
06AFAAF4
1D0B00F0
340B02D0
740B0380
740B0B00
740B1D00
740B1B80
2C0B00B4
0BAB8038
00000038
00004038
0001D0B0
0000AA40
ENDCHAR
STARTCHAR uni02A5
ENCODING 677
SWIDTH 829 0
DWIDTH 15 0
BBX 15 16 0 -3
BITMAP
001B0000
000B0000
000B0000
000B0000
06AFAAF4
1D0B00E0
340B02C0
740B0740
740B0E00
740B2C00
740B74A4
2C0BA208
0BABEEA4
00001800
00002000
00001000
ENDCHAR
STARTCHAR uni02A6
ENCODING 678
SWIDTH 614 0
DWIDTH 11 0
BBX 10 12 1 0
BITMAP
100000
200000
700000
BAFA80
71C0C0
71D080
70F400
702F40
7006D0
7400D0
3801D0
0BAA40
ENDCHAR
STARTCHAR uni02A7
ENCODING 679
SWIDTH 513 0
DWIDTH 9 0
BBX 11 17 0 -4
BITMAP
0002B8
00061C
080A00
1C0A00
7EAE00
1C0A00
1C0A00
1C0A00
1C0A00
1C0A00
1C0A00
1D1A00
0B8A00
000A00
000A00
034D00
02E800
ENDCHAR
STARTCHAR uni02A8
ENCODING 680
SWIDTH 687 0
DWIDTH 12 0
BBX 11 12 1 0
BITMAP
100000
200000
700000
BA1AE0
703078
70A014
70D000
70D000
70E1A4
74B908
747808
2E5BA0
ENDCHAR
STARTCHAR uni02A9
ENCODING 681
SWIDTH 866 0
DWIDTH 16 0
BBX 15 17 0 -4
BITMAP
02F40000
09280000
0D000000
0D000000
7FAF9AD0
0D02D0B0
0D02C070
0D02C074
0D02C074
0D02C074
0D02C074
1D02C074
BF8BF074
00000070
00000070
000028A0
00001F80
ENDCHAR
STARTCHAR uni02AA
ENCODING 682
SWIDTH 595 0
DWIDTH 11 0
BBX 11 13 0 0
BITMAP
6C0000
2C0000
2C0000
2C0000
2C2AA0
2C6060
2CB020
2C7D00
2C1F80
2C01F0
2C0074
1D00B0
06AA80
ENDCHAR
STARTCHAR uni02AB
ENCODING 683
SWIDTH 580 0
DWIDTH 10 0
BBX 10 13 0 0
BITMAP
6D0000
1D0000
1D0000
1D0000
1FABE0
1D02C0
1D0740
1D0E00
1D2D00
1D3800
1DB020
1ED060
6FEBE0
ENDCHAR
STARTCHAR uni02AC
ENCODING 684
SWIDTH 599 0
DWIDTH 11 0
BBX 11 13 0 0
BITMAP
BCF8B8
283420
1C6880
0A8D80
074B40
020500
BCF8B8
347420
283850
0D6C80
0A8D80
074A40
034700
ENDCHAR
STARTCHAR uni02AD
ENCODING 685
SWIDTH 479 0
DWIDTH 9 0
BBX 7 12 1 0
BITMAP
BFF4
9024
9024
9024
9024
9014
0000
BFF4
9564
9024
9024
9024
ENDCHAR
STARTCHAR uni02AE
ENCODING 686
SWIDTH 595 0
DWIDTH 11 0
BBX 12 13 -1 -4
BITMAP
7A01B4
624074
018074
01C074
01C074
01C074
01C074
01D0B4
007A74
000074
000074
000074
00007E
ENDCHAR
STARTCHAR uni02AF
ENCODING 687
SWIDTH 600 0
DWIDTH 11 0
BBX 14 13 -1 -4
BITMAP
7A01B400
62407400
01807400
01C07400
01C07400
01C07400
01C07400
01D0B400
007A7400
00007400
00003400
000024E0
00000BD0
ENDCHAR
STARTCHAR uni02B0
ENCODING 688
SWIDTH 488 0
DWIDTH 9 0
BBX 9 10 0 5
BITMAP
780000
180000
180000
19F800
1D1C00
180D00
180D00
180D00
1C0D00
7E2E40
ENDCHAR
STARTCHAR uni02B1
ENCODING 689
SWIDTH 488 0
DWIDTH 9 0
BBX 9 11 0 5
BITMAP
02A000
0C3400
180000
180000
19F800
1D1C00
180D00
180D00
180D00
1C0D00
7E2E40
ENDCHAR
STARTCHAR uni02B2
ENCODING 690
SWIDTH 222 0
DWIDTH 4 0
BBX 4 13 -1 2
BITMAP
0B
06
00
1B
07
07
07
07
07
07
06
8A
B8
ENDCHAR
STARTCHAR uni02B3
ENCODING 691
SWIDTH 325 0
DWIDTH 6 0
BBX 6 7 0 5
BITMAP
69D0
1D90
1C00
1800
1800
1C00
7E00
ENDCHAR
STARTCHAR uni02B4
ENCODING 692
SWIDTH 325 0
DWIDTH 6 0
BBX 6 7 0 5
BITMAP
0BD0
0280
0280
0280
0280
6780
76D0
ENDCHAR
STARTCHAR uni02B5
ENCODING 693
SWIDTH 325 0
DWIDTH 6 0
BBX 7 9 0 3
BITMAP
0BD0
0280
0280
0280
0280
6780
7680
0184
0068
ENDCHAR
STARTCHAR uni02B6
ENCODING 694
SWIDTH 443 0
DWIDTH 8 0
BBX 8 7 0 5
BITMAP
6E1D
1C74
1CE0
1ED0
1C34
1C28
6EA4
ENDCHAR
STARTCHAR uni02B7
ENCODING 695
SWIDTH 653 0
DWIDTH 12 0
BBX 12 7 0 5
BITMAP
B87D2D
382818
1C2C24
0D2A20
0A5750
078380
034280
ENDCHAR
STARTCHAR uni02B8
ENCODING 696
SWIDTH 427 0
DWIDTH 8 0
BBX 8 10 0 2
BITMAP
B82D
3818
1C20
0E20
0750
0380
0280
0200
5600
7800
ENDCHAR
STARTCHAR uni02B9
ENCODING 697
SWIDTH 296 0
DWIDTH 5 0
BBX 3 6 1 7
BITMAP
1C
2C
34
70
90
40
ENDCHAR
STARTCHAR uni02BA
ENCODING 698
SWIDTH 456 0
DWIDTH 8 0
BBX 6 6 1 7
BITMAP
1C60
2CA0
34D0
7180
9240
4100
ENDCHAR
STARTCHAR uni02BB
ENCODING 699
SWIDTH 245 0
DWIDTH 4 0
BBX 3 5 1 9
BITMAP
14
60
80
F4
B4
ENDCHAR
STARTCHAR uni02BC
ENCODING 700
SWIDTH 244 0
DWIDTH 4 0
BBX 3 5 1 8
BITMAP
F0
F4
24
60
40
ENDCHAR
STARTCHAR uni02BD
ENCODING 701
SWIDTH 244 0
DWIDTH 4 0
BBX 3 5 1 8
BITMAP
B4
F4
80
60
04
ENDCHAR
STARTCHAR uni02BE
ENCODING 702
SWIDTH 203 0
DWIDTH 4 0
BBX 3 4 0 9
BITMAP
64
0C
0C
64
ENDCHAR
STARTCHAR uni02BF
ENCODING 703
SWIDTH 203 0
DWIDTH 4 0
BBX 3 4 0 9
BITMAP
28
60
60
28
ENDCHAR
STARTCHAR uni02C0
ENCODING 704
SWIDTH 364 0
DWIDTH 7 0
BBX 5 7 1 7
BITMAP
6900
D280
42C0
02C0
0740
3900
3400
ENDCHAR
STARTCHAR uni02C1
ENCODING 705
SWIDTH 364 0
DWIDTH 7 0
BBX 6 7 0 7
BITMAP
0A80
34A0
7000
7000
2800
0780
0280
ENDCHAR
STARTCHAR uni02C2
ENCODING 706
SWIDTH 324 0
DWIDTH 6 0
BBX 5 6 1 8
BITMAP
0100
1A00
B400
E000
2D00
0240
ENDCHAR
STARTCHAR uni02C3
ENCODING 707
SWIDTH 324 0
DWIDTH 6 0
BBX 5 6 0 8
BITMAP
5000
2800
0740
02C0
1D00
6000
ENDCHAR
STARTCHAR uni02C4
ENCODING 708
SWIDTH 324 0
DWIDTH 6 0
BBX 6 5 0 9
BITMAP
0400
0E00
2A40
30C0
90A0
ENDCHAR
STARTCHAR uni02C5
ENCODING 709
SWIDTH 324 0
DWIDTH 6 0
BBX 6 5 0 9
BITMAP
4050
6090
2580
1F00
0900
ENDCHAR
STARTCHAR circumflex
ENCODING 710
SWIDTH 342 0
DWIDTH 6 0
BBX 5 3 1 10
BITMAP
2C00
6A00
8240
ENDCHAR
STARTCHAR caron
ENCODING 711
SWIDTH 342 0
DWIDTH 6 0
BBX 5 3 1 10
BITMAP
8240
6A00
2C00
ENDCHAR
STARTCHAR uni02C8
ENCODING 712
SWIDTH 284 0
DWIDTH 5 0
BBX 1 5 2 9
BITMAP
80
80
80
80
80
ENDCHAR
STARTCHAR uni02C9
ENCODING 713
SWIDTH 350 0
DWIDTH 6 0
BBX 6 1 0 10
BITMAP
6AA0
ENDCHAR
STARTCHAR uni02CA
ENCODING 714
SWIDTH 222 0
DWIDTH 4 0
BBX 4 3 0 10
BITMAP
1D
28
60
ENDCHAR
STARTCHAR uni02CB
ENCODING 715
SWIDTH 222 0
DWIDTH 4 0
BBX 4 3 0 10
BITMAP
74
28
09
ENDCHAR
STARTCHAR uni02CC
ENCODING 716
SWIDTH 284 0
DWIDTH 5 0
BBX 1 5 2 -4
BITMAP
80
80
80
80
80
ENDCHAR
STARTCHAR uni02CD
ENCODING 717
SWIDTH 342 0
DWIDTH 6 0
BBX 6 1 0 -3
BITMAP
AAA0
ENDCHAR
STARTCHAR uni02CE
ENCODING 718
SWIDTH 222 0
DWIDTH 4 0
BBX 4 3 0 -3
BITMAP
74
28
09
ENDCHAR
STARTCHAR uni02CF
ENCODING 719
SWIDTH 223 0
DWIDTH 4 0
BBX 4 3 0 -3
BITMAP
1D
28
60
ENDCHAR
STARTCHAR uni02D0
ENCODING 720
SWIDTH 341 0
DWIDTH 6 0
BBX 4 8 1 0
BITMAP
7D
3C
28
00
00
28
3C
7D
ENDCHAR
STARTCHAR uni02D1
ENCODING 721
SWIDTH 341 0
DWIDTH 6 0
BBX 4 3 1 6
BITMAP
7D
3C
28
ENDCHAR
STARTCHAR uni02D2
ENCODING 722
SWIDTH 341 0
DWIDTH 6 0
BBX 4 6 1 1
BITMAP
A8
0A
06
07
0A
A8
ENDCHAR
STARTCHAR uni02D3
ENCODING 723
SWIDTH 341 0
DWIDTH 6 0
BBX 4 6 1 1
BITMAP
1A
60
90
90
60
1A
ENDCHAR
STARTCHAR uni02D4
ENCODING 724
SWIDTH 341 0
DWIDTH 6 0
BBX 4 4 1 3
BITMAP
14
14
14
AA
ENDCHAR
STARTCHAR uni02D5
ENCODING 725
SWIDTH 341 0
DWIDTH 6 0
BBX 4 4 1 3
BITMAP
AA
14
14
14
ENDCHAR
STARTCHAR uni02D6
ENCODING 726
SWIDTH 341 0
DWIDTH 6 0
BBX 4 4 1 3
BITMAP
14
14
AE
14
ENDCHAR
STARTCHAR uni02D7
ENCODING 727
SWIDTH 341 0
DWIDTH 6 0
BBX 4 1 1 4
BITMAP
AA
ENDCHAR
STARTCHAR breve
ENCODING 728
SWIDTH 353 0
DWIDTH 6 0
BBX 6 3 0 10
BITMAP
5020
2050
1A80
ENDCHAR
STARTCHAR dotaccent
ENCODING 729
SWIDTH 194 0
DWIDTH 3 0
BBX 2 2 1 10
BITMAP
E0
E0
ENDCHAR
STARTCHAR ring
ENCODING 730
SWIDTH 265 0
DWIDTH 5 0
BBX 4 4 0 10
BITMAP
29
62
62
29
ENDCHAR
STARTCHAR ogonek
ENCODING 731
SWIDTH 277 0
DWIDTH 5 0
BBX 4 4 0 -4
BITMAP
18
30
70
2E
ENDCHAR
STARTCHAR tilde
ENCODING 732
SWIDTH 381 0
DWIDTH 7 0
BBX 6 2 0 10
BITMAP
2A50
52A0
ENDCHAR
STARTCHAR hungarumlaut
ENCODING 733
SWIDTH 350 0
DWIDTH 6 0
BBX 6 3 0 10
BITMAP
1DA0
35C0
6200
ENDCHAR
STARTCHAR uni02DE
ENCODING 734
SWIDTH 205 0
DWIDTH 4 0
BBX 5 3 -1 4
BITMAP
1000
6540
1A00
ENDCHAR
STARTCHAR uni02DF
ENCODING 735
SWIDTH 302 0
DWIDTH 5 0
BBX 5 4 0 9
BITMAP
7180
1E00
1B00
2180
ENDCHAR
STARTCHAR uni02E0
ENCODING 736
SWIDTH 413 0
DWIDTH 7 0
BBX 8 10 0 2
BITMAP
B82D
3814
1C20
0D60
0A80
0780
0380
06C0
08D0
0680
ENDCHAR
STARTCHAR uni02E1
ENCODING 737
SWIDTH 244 0
DWIDTH 4 0
BBX 4 10 0 5
BITMAP
6C
1C
1C
1C
1C
1C
1C
1C
1C
7E
ENDCHAR
STARTCHAR uni02E2
ENCODING 738
SWIDTH 337 0
DWIDTH 6 0
BBX 6 7 0 5
BITMAP
2A80
6080
7800
1F40
41D0
50A0
6A80
ENDCHAR
STARTCHAR uni02E3
ENCODING 739
SWIDTH 445 0
DWIDTH 8 0
BBX 8 7 0 5
BITMAP
7E2D
0D20
0790
02C0
05E0
1874
787D
ENDCHAR
STARTCHAR uni02E4
ENCODING 740
SWIDTH 364 0
DWIDTH 7 0
BBX 7 10 0 5
BITMAP
0AA0
3434
7410
7400
2800
0A40
01C0
01C0
01C0
06E4
ENDCHAR
STARTCHAR uni02E5
ENCODING 741
SWIDTH 423 0
DWIDTH 8 0
BBX 6 13 1 0
BITMAP
AAA0
0030
0030
0030
0030
0030
0030
0030
0030
0030
0030
0030
0010
ENDCHAR
STARTCHAR uni02E6
ENCODING 742
SWIDTH 414 0
DWIDTH 7 0
BBX 7 13 0 0
BITMAP
0004
0018
0018
0018
6AA8
0018
0018
0018
0018
0018
0018
0018
0018
ENDCHAR
STARTCHAR uni02E7
ENCODING 743
SWIDTH 414 0
DWIDTH 7 0
BBX 7 13 0 0
BITMAP
0018
0018
0018
0018
0018
0018
6AA8
0018
0018
0018
0018
0018
0018
ENDCHAR
STARTCHAR uni02E8
ENCODING 744
SWIDTH 414 0
DWIDTH 7 0
BBX 7 13 0 -1
BITMAP
0018
0018
0018
0018
0018
0018
0018
0018
6AA8
0018
0018
0018
0004
ENDCHAR
STARTCHAR uni02E9
ENCODING 745
SWIDTH 414 0
DWIDTH 7 0
BBX 7 13 0 0
BITMAP
0004
0018
0018
0018
0018
0018
0018
0018
0018
0018
0018
0018
6AA8
ENDCHAR
STARTCHAR uni02EC
ENCODING 748
SWIDTH 341 0
DWIDTH 6 0
BBX 6 4 0 -3
BITMAP
7090
2980
0F40
0600
ENDCHAR
STARTCHAR uni02ED
ENCODING 749
SWIDTH 380 0
DWIDTH 7 0
BBX 6 3 0 10
BITMAP
6AA0
0000
6AA0
ENDCHAR
STARTCHAR uni02F7
ENCODING 759
SWIDTH 381 0
DWIDTH 7 0
BBX 6 2 0 -3
BITMAP
2A50
52A0
ENDCHAR
STARTCHAR uni0300
ENCODING 768
SWIDTH 0 0
DWIDTH 0 0
BBX 3 3 -6 10
BITMAP
E0
74
18
ENDCHAR
STARTCHAR uni0301
ENCODING 769
SWIDTH 0 0
DWIDTH 0 0
BBX 3 3 -5 10
BITMAP
38
60
80
ENDCHAR
STARTCHAR uni0302
ENCODING 770
SWIDTH 0 0
DWIDTH 0 0
BBX 5 3 -7 10
BITMAP
0E00
2A40
6080
ENDCHAR
STARTCHAR uni0303
ENCODING 771
SWIDTH 0 0
DWIDTH 0 0
BBX 6 2 -7 10
BITMAP
6950
4680
ENDCHAR
STARTCHAR uni0304
ENCODING 772
SWIDTH 0 0
DWIDTH 0 0
BBX 6 1 -7 10
BITMAP
AA90
ENDCHAR
STARTCHAR uni0305
ENCODING 773
SWIDTH 0 0
DWIDTH 0 0
BBX 7 1 -7 10
BITMAP
AAA8
ENDCHAR
STARTCHAR uni0306
ENCODING 774
SWIDTH 0 0
DWIDTH 0 0
BBX 6 3 -7 10
BITMAP
8050
5080
2A40
ENDCHAR
STARTCHAR uni0307
ENCODING 775
SWIDTH 0 0
DWIDTH 0 0
BBX 2 2 -5 10
BITMAP
E0
E0
ENDCHAR
STARTCHAR uni0308
ENCODING 776
SWIDTH 0 0
DWIDTH 0 0
BBX 6 2 -7 10
BITMAP
E0E0
E0E0
ENDCHAR
STARTCHAR uni0309
ENCODING 777
SWIDTH 0 0
DWIDTH 0 0
BBX 4 4 -6 10
BITMAP
69
56
09
14
ENDCHAR
STARTCHAR uni030A
ENCODING 778
SWIDTH 0 0
DWIDTH 0 0
BBX 4 4 -6 10
BITMAP
68
C6
C6
68
ENDCHAR
STARTCHAR uni030B
ENCODING 779
SWIDTH 0 0
DWIDTH 0 0
BBX 6 3 -6 10
BITMAP
29D0
7380
9600
ENDCHAR
STARTCHAR uni030C
ENCODING 780
SWIDTH 0 0
DWIDTH 0 0
BBX 5 3 -7 10
BITMAP
6080
2640
0E00
ENDCHAR
STARTCHAR uni030D
ENCODING 781
SWIDTH 0 0
DWIDTH 0 0
BBX 2 4 -5 10
BITMAP
90
90
90
90
ENDCHAR
STARTCHAR uni030E
ENCODING 782
SWIDTH 0 0
DWIDTH 0 0
BBX 4 4 -6 10
BITMAP
C6
C6
C6
C6
ENDCHAR
STARTCHAR uni030F
ENCODING 783
SWIDTH 0 0
DWIDTH 0 0
BBX 6 3 -8 10
BITMAP
7640
29C0
0890
ENDCHAR
STARTCHAR uni0310
ENCODING 784
SWIDTH 0 0
DWIDTH 0 0
BBX 6 4 -7 10
BITMAP
0E00
4E10
5080
2A40
ENDCHAR
STARTCHAR uni0311
ENCODING 785
SWIDTH 0 0
DWIDTH 0 0
BBX 6 3 -7 10
BITMAP
2A40
5080
8050
ENDCHAR
STARTCHAR uni0312
ENCODING 786
SWIDTH 0 0
DWIDTH 0 0
BBX 3 4 -6 10
BITMAP
14
60
78
38
ENDCHAR
STARTCHAR uni0313
ENCODING 787
SWIDTH 0 0
DWIDTH 0 0
BBX 2 4 -5 10
BITMAP
E0
F0
20
90
ENDCHAR
STARTCHAR uni0314
ENCODING 788
SWIDTH 0 0
DWIDTH 0 0
BBX 3 4 -6 10
BITMAP
38
78
60
18
ENDCHAR
STARTCHAR uni0315
ENCODING 789
SWIDTH 0 0
DWIDTH 0 0
BBX 3 4 -5 9
BITMAP
74
70
60
50
ENDCHAR
STARTCHAR uni0316
ENCODING 790
SWIDTH 0 0
DWIDTH 0 0
BBX 3 3 -6 -4
BITMAP
E0
74
18
ENDCHAR
STARTCHAR uni0317
ENCODING 791
SWIDTH 0 0
DWIDTH 0 0
BBX 3 3 -5 -4
BITMAP
3C
70
90
ENDCHAR
STARTCHAR uni0318
ENCODING 792
SWIDTH 0 0
DWIDTH 0 0
BBX 3 4 -6 -5
BITMAP
08
08
6C
08
ENDCHAR
STARTCHAR uni0319
ENCODING 793
SWIDTH 0 0
DWIDTH 0 0
BBX 3 4 -6 -5
BITMAP
50
50
68
50
ENDCHAR
STARTCHAR uni031A
ENCODING 794
SWIDTH 0 0
DWIDTH 0 0
BBX 4 4 -6 9
BITMAP
AA
06
06
01
ENDCHAR
STARTCHAR uni031B
ENCODING 795
SWIDTH 0 0
DWIDTH 0 0
BBX 4 4 -4 8
BITMAP
05
0B
06
68
ENDCHAR
STARTCHAR uni031C
ENCODING 796
SWIDTH 0 0
DWIDTH 0 0
BBX 3 4 -6 -5
BITMAP
28
50
50
28
ENDCHAR
STARTCHAR uni031D
ENCODING 797
SWIDTH 0 0
DWIDTH 0 0
BBX 4 3 -6 -4
BITMAP
24
24
A9
ENDCHAR
STARTCHAR uni031E
ENCODING 798
SWIDTH 0 0
DWIDTH 0 0
BBX 4 3 -6 -4
BITMAP
A9
24
14
ENDCHAR
STARTCHAR uni031F
ENCODING 799
SWIDTH 0 0
DWIDTH 0 0
BBX 4 4 -6 -5
BITMAP
24
24
B9
24
ENDCHAR
STARTCHAR uni0320
ENCODING 800
SWIDTH 0 0
DWIDTH 0 0
BBX 4 1 -6 -3
BITMAP
A9
ENDCHAR
STARTCHAR uni0321
ENCODING 801
SWIDTH 0 0
DWIDTH 0 0
BBX 6 5 -8 -4
BITMAP
01D0
01D0
01C0
B180
6E00
ENDCHAR
STARTCHAR uni0322
ENCODING 802
SWIDTH 0 0
DWIDTH 0 0
BBX 6 5 -5 -4
BITMAP
7400
7400
3400
28E0
0B90
ENDCHAR
STARTCHAR uni0323
ENCODING 803
SWIDTH 0 0
DWIDTH 0 0
BBX 2 2 -5 -3
BITMAP
E0
E0
ENDCHAR
STARTCHAR uni0324
ENCODING 804
SWIDTH 0 0
DWIDTH 0 0
BBX 6 2 -7 -3
BITMAP
E0E0
E0E0
ENDCHAR
STARTCHAR uni0325
ENCODING 805
SWIDTH 0 0
DWIDTH 0 0
BBX 4 4 -6 -5
BITMAP
68
C6
C6
68
ENDCHAR
STARTCHAR uni0326
ENCODING 806
SWIDTH 0 0
DWIDTH 0 0
BBX 2 4 -5 -5
BITMAP
E0
F0
20
90
ENDCHAR
STARTCHAR uni0327
ENCODING 807
SWIDTH 0 0
DWIDTH 0 0
BBX 4 4 -6 -4
BITMAP
20
29
06
68
ENDCHAR
STARTCHAR uni0328
ENCODING 808
SWIDTH 0 0
DWIDTH 0 0
BBX 4 4 -6 -4
BITMAP
24
90
D1
79
ENDCHAR
STARTCHAR uni0329
ENCODING 809
SWIDTH 0 0
DWIDTH 0 0
BBX 2 3 -5 -4
BITMAP
90
90
90
ENDCHAR
STARTCHAR uni032A
ENCODING 810
SWIDTH 0 0
DWIDTH 0 0
BBX 5 3 -7 -4
BITMAP
6A80
5080
0040
ENDCHAR
STARTCHAR uni032B
ENCODING 811
SWIDTH 0 0
DWIDTH 0 0
BBX 6 3 -7 -3
BITMAP
4410
8960
6A80
ENDCHAR
STARTCHAR uni032C
ENCODING 812
SWIDTH 0 0
DWIDTH 0 0
BBX 5 3 -7 -4
BITMAP
6080
2640
0E00
ENDCHAR
STARTCHAR uni032D
ENCODING 813
SWIDTH 0 0
DWIDTH 0 0
BBX 5 3 -7 -4
BITMAP
0E00
2A40
6080
ENDCHAR
STARTCHAR uni032E
ENCODING 814
SWIDTH 0 0
DWIDTH 0 0
BBX 6 3 -7 -4
BITMAP
8050
5080
2A40
ENDCHAR
STARTCHAR uni032F
ENCODING 815
SWIDTH 0 0
DWIDTH 0 0
BBX 6 3 -7 -4
BITMAP
2A40
9090
4000
ENDCHAR
STARTCHAR uni0330
ENCODING 816
SWIDTH 0 0
DWIDTH 0 0
BBX 6 2 -7 -3
BITMAP
6950
4680
ENDCHAR
STARTCHAR uni0331
ENCODING 817
SWIDTH 0 0
DWIDTH 0 0
BBX 6 1 -7 -3
BITMAP
AA90
ENDCHAR
STARTCHAR uni0332
ENCODING 818
SWIDTH 0 0
DWIDTH 0 0
BBX 10 1 -9 -3
BITMAP
AAAA90
ENDCHAR
STARTCHAR uni0333
ENCODING 819
SWIDTH 0 0
DWIDTH 0 0
BBX 10 3 -9 -5
BITMAP
AAAA90
000000
AAAA90
ENDCHAR
STARTCHAR uni0334
ENCODING 820
SWIDTH 0 0
DWIDTH 0 0
BBX 6 2 -7 4
BITMAP
6960
4690
ENDCHAR
STARTCHAR uni0335
ENCODING 821
SWIDTH 0 0
DWIDTH 0 0
BBX 6 1 -7 4
BITMAP
AAA0
ENDCHAR
STARTCHAR uni0336
ENCODING 822
SWIDTH 0 0
DWIDTH 0 0
BBX 10 1 -9 4
BITMAP
AAAA90
ENDCHAR
STARTCHAR uni0337
ENCODING 823
SWIDTH 0 0
DWIDTH 0 0
BBX 5 4 -7 5
BITMAP
0040
0280
1900
6000
ENDCHAR
STARTCHAR uni0338
ENCODING 824
SWIDTH 0 0
DWIDTH 0 0
BBX 8 16 -8 -3
BITMAP
0001
0009
000C
0018
0030
0060
0090
0080
0240
0300
0600
0C00
1800
2400
3000
9000
ENDCHAR
STARTCHAR uni0339
ENCODING 825
SWIDTH 0 0
DWIDTH 0 0
BBX 2 4 -5 -5
BITMAP
90
20
20
90
ENDCHAR
STARTCHAR uni033A
ENCODING 826
SWIDTH 0 0
DWIDTH 0 0
BBX 5 3 -7 -3
BITMAP
5040
5080
6A80
ENDCHAR
STARTCHAR uni033B
ENCODING 827
SWIDTH 0 0
DWIDTH 0 0
BBX 4 4 -6 -4
BITMAP
A9
85
85
A9
ENDCHAR
STARTCHAR uni033C
ENCODING 828
SWIDTH 0 0
DWIDTH 0 0
BBX 6 2 -7 -3
BITMAP
A690
0900
ENDCHAR
STARTCHAR uni033D
ENCODING 829
SWIDTH 0 0
DWIDTH 0 0
BBX 4 3 -6 10
BITMAP
99
38
99
ENDCHAR
STARTCHAR uni033E
ENCODING 830
SWIDTH 0 0
DWIDTH 0 0
BBX 2 6 -5 9
BITMAP
90
C0
90
60
60
80
ENDCHAR
STARTCHAR uni033F
ENCODING 831
SWIDTH 0 0
DWIDTH 0 0
BBX 8 3 -8 9
BITMAP
AAA9
0000
AAA9
ENDCHAR
STARTCHAR uni0346
ENCODING 838
SWIDTH 0 0
DWIDTH 0 0
BBX 6 3 -7 9
BITMAP
AA90
9090
4040
ENDCHAR
STARTCHAR uni0347
ENCODING 839
SWIDTH 0 0
DWIDTH 0 0
BBX 6 3 -7 -4
BITMAP
AAA0
0000
AAA0
ENDCHAR
STARTCHAR uni034C
ENCODING 844
SWIDTH 0 0
DWIDTH 0 0
BBX 6 4 -7 10
BITMAP
6A90
0000
6950
4680
ENDCHAR
STARTCHAR uni034D
ENCODING 845
SWIDTH 0 0
DWIDTH 0 0
BBX 9 3 -9 -5
BITMAP
140200
7EABC0
180200
ENDCHAR
STARTCHAR uni0359
ENCODING 857
SWIDTH 0 0
DWIDTH 0 0
BBX 6 6 -7 -7
BITMAP
0900
9990
6A40
2A40
9990
0900
ENDCHAR
STARTCHAR uni035C
ENCODING 860
SWIDTH 0 0
DWIDTH 0 0
BBX 12 3 -6 -4
BITMAP
800002
640019
0AAAA0
ENDCHAR
STARTCHAR uni0360
ENCODING 864
SWIDTH 0 0
DWIDTH 0 0
BBX 10 2 -5 10
BITMAP
2A9010
406A80
ENDCHAR
STARTCHAR uni0361
ENCODING 865
SWIDTH 0 0
DWIDTH 0 0
BBX 8 2 -4 11
BITMAP
6AA8
8006
ENDCHAR
STARTCHAR uni0362
ENCODING 866
SWIDTH 0 0
DWIDTH 0 0
BBX 14 3 -7 -5
BITMAP
00000080
AAAAAAE0
00000080
ENDCHAR
STARTCHAR uni037E
ENCODING 894
SWIDTH 261 0
DWIDTH 5 0
BBX 3 12 1 -3
BITMAP
74
B4
00
00
00
00
00
60
B8
18
24
40
ENDCHAR
STARTCHAR tonos
ENCODING 900
SWIDTH 165 0
DWIDTH 3 0
BBX 3 3 0 10
BITMAP
74
70
50
ENDCHAR
STARTCHAR dieresistonos
ENCODING 901
SWIDTH 426 0
DWIDTH 8 0
BBX 7 3 0 10
BITMAP
1294
766C
0200
ENDCHAR
STARTCHAR Alphatonos
ENCODING 902
SWIDTH 718 0
DWIDTH 13 0
BBX 13 12 0 0
BITMAP
381C0000
342D0000
202E0000
00974000
00C38000
0182C000
0201E000
07AAF000
09007400
0C003C00
28002D00
BE00BF80
ENDCHAR
STARTCHAR anoteleia
ENCODING 903
SWIDTH 261 0
DWIDTH 5 0
BBX 3 2 1 7
BITMAP
74
B4
ENDCHAR
STARTCHAR Epsilontonos
ENCODING 904
SWIDTH 745 0
DWIDTH 13 0
BBX 14 12 -1 0
BITMAP
38BFAFD0
302D0090
601D0000
001D0200
001D0200
001EAF00
001D0200
001D0000
001D0020
001D0020
002D00A0
00BFAFD0
ENDCHAR
STARTCHAR Etatonos
ENCODING 905
SWIDTH 896 0
DWIDTH 16 0
BBX 17 12 -1 0
BITMAP
38BF82FF40
302D003C00
601D003800
001D003800
001D003800
001EAAB800
001D003800
001D003800
001D003800
001D003800
002D003C00
00BF82FF40
ENDCHAR
STARTCHAR Iotatonos
ENCODING 906
SWIDTH 478 0
DWIDTH 9 0
BBX 9 12 -1 0
BITMAP
38BF80
302D00
601D00
001D00
001D00
001D00
001D00
001D00
001D00
001D00
002D00
00BF80
ENDCHAR
STARTCHAR Omicrontonos
ENCODING 908
SWIDTH 806 0
DWIDTH 15 0
BBX 15 12 -1 0
BITMAP
380AA900
30780780
60E001E0
01D000B4
02C00074
02C00078
02C00078
02C00074
01D000B0
00E000E0
00780280
000AA900
ENDCHAR
STARTCHAR Upsilontonos
ENCODING 910
SWIDTH 787 0
DWIDTH 14 0
BBX 16 12 -1 0
BITMAP
75FF42FD
603D00A0
901E0080
000B4240
0003C600
0001E800
0000B400
00007400
00007400
00007400
0000B400
0006FE00
ENDCHAR
STARTCHAR Omegatonos
ENCODING 911
SWIDTH 830 0
DWIDTH 15 0
BBX 15 12 -1 0
BITMAP
380AFA00
307FAFD0
60F402F0
01E000B4
02D000B4
02D00078
01D00074
00E000B0
007001D0
02280248
03AE0AAC
03FF0FF8
ENDCHAR
STARTCHAR iotadieresistonos
ENCODING 912
SWIDTH 259 0
DWIDTH 5 0
BBX 7 13 -1 0
BITMAP
0740
A774
5510
0000
0B00
0A00
0A00
0A00
0D00
0D00
0900
0A50
0780
ENDCHAR
STARTCHAR Alpha
ENCODING 913
SWIDTH 718 0
DWIDTH 13 0
BBX 13 12 0 0
BITMAP
001C0000
002D0000
002E0000
00974000
00C38000
0182C000
0201E000
07AAF000
09007400
0C003C00
28002D00
BE00BF80
ENDCHAR
STARTCHAR Beta
ENCODING 914
SWIDTH 618 0
DWIDTH 11 0
BBX 11 12 0 0
BITMAP
6FAE40
0B01E0
0B00F0
0B00E0
0B01D0
0BAE40
0B01D0
0B00B4
0B0074
0B00B4
0B01F0
6FAB80
ENDCHAR
STARTCHAR Gamma
ENCODING 915
SWIDTH 569 0
DWIDTH 10 0
BBX 10 12 0 0
BITMAP
2FFFE0
0B0060
0B0020
0B0010
0B0000
0B0000
0B0000
0B0000
0B0000
0B0000
0B4000
7FE000
ENDCHAR
STARTCHAR Delta
ENCODING 916
SWIDTH 667 0
DWIDTH 12 0
BBX 12 12 0 0
BITMAP
002800
003C00
006D00
00CF00
018740
024380
0602D0
0901E0
0800F0
2400B4
3955BC
7FFFFD
ENDCHAR
STARTCHAR Epsilon
ENCODING 917
SWIDTH 626 0
DWIDTH 11 0
BBX 11 12 0 0
BITMAP
6FABF0
0B0020
0B0010
0B0080
0B0180
0BAB80
0B0080
0B0000
0B0008
0B0018
0B0024
6FABF4
ENDCHAR
STARTCHAR Zeta
ENCODING 918
SWIDTH 594 0
DWIDTH 11 0
BBX 10 12 0 0
BITMAP
2FAAF0
2402D0
200780
000F00
002D00
007800
00F000
02D000
078000
0F0020
2D0070
7EABE0
ENDCHAR
STARTCHAR Eta
ENCODING 919
SWIDTH 777 0
DWIDTH 14 0
BBX 14 12 0 0
BITMAP
7FE0BFD0
0B000E00
0B000E00
0B000E00
0B000E00
0BAAAE00
0B000E00
0B000E00
0B000E00
0B000E00
0B000E00
6FE0BF90
ENDCHAR
STARTCHAR Theta
ENCODING 920
SWIDTH 738 0
DWIDTH 13 0
BBX 12 12 1 0
BITMAP
06FE40
1FABE0
7D00B4
B4003C
F2022D
F2FF2D
F2AA2D
F1012D
B4003C
7D00B4
1FABE0
06FE40
ENDCHAR
STARTCHAR Iota
ENCODING 921
SWIDTH 357 0
DWIDTH 6 0
BBX 6 12 0 0
BITMAP
7FE0
0B00
0B00
0B00
0B00
0B00
0B00
0B00
0B00
0B00
0B00
7FE0
ENDCHAR
STARTCHAR Kappa
ENCODING 922
SWIDTH 702 0
DWIDTH 13 0
BBX 13 12 0 0
BITMAP
7FE2FE00
0B00A000
0B018000
0B060000
0B180000
0BA00000
0BB40000
0B2E0000
0B0B8000
0B02E000
0B00B800
7FE2FF40
ENDCHAR
STARTCHAR Lambda
ENCODING 923
SWIDTH 710 0
DWIDTH 13 0
BBX 13 12 0 0
BITMAP
00180000
002D0000
002E0000
009B0000
00878000
0142C000
0201D000
0600F000
0900B400
0C007800
28003D00
FE00FF80
ENDCHAR
STARTCHAR Mu
ENCODING 924
SWIDTH 895 0
DWIDTH 16 0
BBX 16 12 0 0
BITMAP
7F4001FD
0FC002F0
0AD007E0
09E009E0
08F00CE0
087818E0
083C34E0
082D60E0
080E90E0
080BC0E0
0D0740F0
7F8207FD
ENDCHAR
STARTCHAR Nu
ENCODING 925
SWIDTH 742 0
DWIDTH 13 0
BBX 13 12 0 0
BITMAP
7F007F80
0F800D00
0BD00900
09F40900
087C0900
082E0900
080B8900
0803D900
0801F900
08007D00
0D002D00
7F800900
ENDCHAR
STARTCHAR Xi
ENCODING 926
SWIDTH 648 0
DWIDTH 12 0
BBX 10 12 1 0
BITMAP
BFFFD0
AAAA90
400010
040200
080200
0FFE00
0EAA00
000000
400020
800020
EAAAE0
FFFFE0
ENDCHAR
STARTCHAR Omicron
ENCODING 927
SWIDTH 738 0
DWIDTH 13 0
BBX 12 12 1 0
BITMAP
06AA40
1D01E0
780074
B0003C
F0002D
F0002D
F0002D
F0002D
B4003C
780074
1D01E0
06AA40
ENDCHAR
STARTCHAR Pi
ENCODING 928
SWIDTH 759 0
DWIDTH 14 0
BBX 13 12 0 0
BITMAP
6FEABF80
0B001D00
0B001D00
0B001D00
0B001D00
0B001D00
0B001D00
0B001D00
0B001D00
0B001D00
0B402D00
7FE0FFC0
ENDCHAR
STARTCHAR Rho
ENCODING 929
SWIDTH 569 0
DWIDTH 10 0
BBX 9 12 1 0
BITMAP
BEB900
2C0B40
2C0380
2C0380
2C0380
2C0B00
2EA400
2C0000
2C0000
2C0000
2D0000
BF8000
ENDCHAR
STARTCHAR Sigma
ENCODING 931
SWIDTH 604 0
DWIDTH 11 0
BBX 11 12 0 0
BITMAP
7FFFE0
2E0060
0B4020
03D000
00F000
007400
006000
018000
030014
090024
2EAAB0
7FFFF0
ENDCHAR
STARTCHAR Tau
ENCODING 932
SWIDTH 603 0
DWIDTH 11 0
BBX 11 12 0 0
BITMAP
BEFAF4
907424
807408
007400
007400
007400
007400
007400
007400
007400
00B400
02FE00
ENDCHAR
STARTCHAR Upsilon
ENCODING 933
SWIDTH 647 0
DWIDTH 12 0
BBX 12 12 0 0
BITMAP
FF80FE
2E0034
0B4090
078180
02D200
00F600
007C00
003800
003800
003800
003C00
02FF40
ENDCHAR
STARTCHAR Phi
ENCODING 934
SWIDTH 718 0
DWIDTH 13 0
BBX 13 12 0 0
BITMAP
00FFC000
002E0000
0BAEB800
2D1D1E00
781D0B00
741D0B40
781D0B40
381D0B00
1E1D2D00
06AEA000
002D0000
00FFC000
ENDCHAR
STARTCHAR Chi
ENCODING 935
SWIDTH 664 0
DWIDTH 12 0
BBX 12 12 0 0
BITMAP
BFD1FE
0F4070
0780C0
02D240
00F600
007C00
007D00
008B00
024780
0A02E0
1C00F4
BE02FE
ENDCHAR
STARTCHAR Psi
ENCODING 936
SWIDTH 720 0
DWIDTH 13 0
BBX 13 12 0 0
BITMAP
A0FFC280
382D0B00
2C1D0E00
2C1D0E00
2C1D0E00
2C1D1E00
1E5D7D00
07FFF400
006E4000
001D0000
001D0000
00FFC000
ENDCHAR
STARTCHAR Omega
ENCODING 937
SWIDTH 777 0
DWIDTH 14 0
BBX 12 12 1 0
BITMAP
01BF80
1FEBF4
3E007C
78002D
B8001E
B4001E
74001D
38002C
1C0034
8A00A2
EA82EB
FFC3FE
ENDCHAR
STARTCHAR Iotadieresis
ENCODING 938
SWIDTH 357 0
DWIDTH 6 0
BBX 6 15 0 0
BITMAP
B0B0
B0B0
0000
7FE0
0B00
0B00
0B00
0B00
0B00
0B00
0B00
0B00
0B00
0B00
7FE0
ENDCHAR
STARTCHAR Upsilondieresis
ENCODING 939
SWIDTH 647 0
DWIDTH 12 0
BBX 12 15 0 0
BITMAP
02C2C0
02C2C0
000000
FF80FE
2E0034
0B4090
078180
02D200
00F600
007C00
003800
003800
003800
003C00
02FF40
ENDCHAR
STARTCHAR alphatonos
ENCODING 940
SWIDTH 561 0
DWIDTH 10 0
BBX 10 13 0 0
BITMAP
007000
00A000
009000
000000
07E1D0
1E6680
300B40
600A00
500900
500D00
602600
399760
1F8390
ENDCHAR
STARTCHAR epsilontonos
ENCODING 941
SWIDTH 381 0
DWIDTH 7 0
BBX 7 13 0 0
BITMAP
00E0
00D0
0080
0000
0BE4
2EB4
3000
2540
1B80
3000
7010
3EB4
1BE0
ENDCHAR
STARTCHAR etatonos
ENCODING 942
SWIDTH 510 0
DWIDTH 9 0
BBX 8 17 0 -4
BITMAP
0038
0030
0060
0000
787C
ACEE
0E47
0A03
0903
0D03
0D03
1D03
1C07
0007
000B
000A
000E
ENDCHAR
STARTCHAR iotatonos
ENCODING 943
SWIDTH 259 0
DWIDTH 5 0
BBX 4 13 1 0
BITMAP
38
30
60
00
B0
A0
A0
A0
D0
D0
90
A5
78
ENDCHAR
STARTCHAR upsilondieresistonos
ENCODING 944
SWIDTH 491 0
DWIDTH 9 0
BBX 8 13 0 0
BITMAP
01C0
369C
1654
0000
7814
AC09
1C06
1807
1807
1407
180E
1EBC
0BE0
ENDCHAR
STARTCHAR alpha
ENCODING 945
SWIDTH 561 0
DWIDTH 10 0
BBX 10 9 0 0
BITMAP
07E1D0
1E6680
300B40
600A00
500900
500D00
602600
399760
1F8390
ENDCHAR
STARTCHAR beta
ENCODING 946
SWIDTH 530 0
DWIDTH 10 0
BBX 8 18 1 -4
BITMAP
02F4
0FAC
1809
3009
3008
6024
67D0
9118
9009
9006
A006
F00A
EEAD
D6E4
D000
E000
E000
9000
ENDCHAR
STARTCHAR gamma
ENCODING 947
SWIDTH 466 0
DWIDTH 8 0
BBX 8 13 0 -4
BITMAP
780F
AD1E
0A2C
0638
0330
0260
0280
0280
0240
0340
0740
0B00
0700
ENDCHAR
STARTCHAR delta
ENCODING 948
SWIDTH 479 0
DWIDTH 9 0
BBX 8 14 0 0
BITMAP
07E4
0EBD
0809
0600
01D0
02F4
1FAC
240E
6007
5007
5007
700A
3EBC
0BE0
ENDCHAR
STARTCHAR epsilon
ENCODING 949
SWIDTH 381 0
DWIDTH 7 0
BBX 7 9 0 0
BITMAP
0BE4
2EB4
3000
2540
1B80
3000
7010
3EB4
1BE0
ENDCHAR
STARTCHAR zeta
ENCODING 950
SWIDTH 386 0
DWIDTH 7 0
BBX 8 18 0 -5
BITMAP
0200
0A09
077D
01E0
0740
0D00
2800
3000
6000
5000
5000
7400
2FE0
06F8
001C
0008
02A4
0780
ENDCHAR
STARTCHAR eta
ENCODING 951
SWIDTH 510 0
DWIDTH 9 0
BBX 8 13 0 -4
BITMAP
787C
ACEE
0E47
0A03
0903
0D03
0D03
1D03
1C07
0007
000B
000A
000E
ENDCHAR
STARTCHAR theta
ENCODING 952
SWIDTH 514 0
DWIDTH 9 0
BBX 8 14 1 0
BITMAP
0BD0
2EB4
7028
900C
8009
8009
FFFD
EAA9
C009
C009
900C
6028
3EB0
0B90
ENDCHAR
STARTCHAR iota
ENCODING 953
SWIDTH 259 0
DWIDTH 5 0
BBX 4 9 1 0
BITMAP
B0
A0
A0
A0
D0
D0
90
A5
78
ENDCHAR
STARTCHAR kappa
ENCODING 954
SWIDTH 495 0
DWIDTH 9 0
BBX 9 9 0 0
BITMAP
7C0740
AD2F00
0D7400
0DD000
0E8000
0E9000
0D6000
0D3A80
1D1F00
ENDCHAR
STARTCHAR lambda
ENCODING 955
SWIDTH 506 0
DWIDTH 9 0
BBX 9 14 0 0
BITMAP
060000
0F8000
11C000
009000
005000
00A000
00E000
02A000
032000
0A2400
0D2400
2C1800
381E80
B40B40
ENDCHAR
STARTCHAR mu
ENCODING 956
SWIDTH 552 0
DWIDTH 10 0
BBX 10 13 0 -4
BITMAP
2C0700
2C0700
280600
280600
240900
240D00
282A00
3EA760
37D3D0
340000
340000
740000
240000
ENDCHAR
STARTCHAR nu
ENCODING 957
SWIDTH 453 0
DWIDTH 8 0
BBX 8 10 0 -1
BITMAP
7818
AD0E
0D0E
090E
051D
0528
0574
06D0
0740
0100
ENDCHAR
STARTCHAR xi
ENCODING 958
SWIDTH 390 0
DWIDTH 7 0
BBX 7 17 0 -4
BITMAP
1800
1D6C
07A4
1D00
2400
1860
0AF0
2400
5000
6000
7900
2FE0
06FC
001C
0008
02A4
0390
ENDCHAR
STARTCHAR omicron
ENCODING 959
SWIDTH 475 0
DWIDTH 9 0
BBX 8 9 0 0
BITMAP
06F4
1EAD
340A
6002
5003
6002
300A
2EBC
0BE0
ENDCHAR
STARTCHAR pi
ENCODING 960
SWIDTH 591 0
DWIDTH 11 0
BBX 11 9 0 0
BITMAP
1BFFF4
6AABA0
414200
024600
030600
070A00
0A0A00
1D0BA0
2C07D0
ENDCHAR
STARTCHAR rho
ENCODING 961
SWIDTH 515 0
DWIDTH 9 0
BBX 8 13 1 -4
BITMAP
07E4
2EBC
3009
6006
9006
A005
B00D
EEB8
D7E0
D000
E000
E000
9000
ENDCHAR
STARTCHAR uni03C2
ENCODING 962
SWIDTH 377 0
DWIDTH 7 0
BBX 7 13 0 -4
BITMAP
07F4
2EA4
2000
5000
5000
6000
3D00
1FD0
02F4
0018
0008
02B4
0380
ENDCHAR
STARTCHAR sigma
ENCODING 963
SWIDTH 545 0
DWIDTH 10 0
BBX 10 9 0 0
BITMAP
06FFE0
1EAE90
340500
600300
600300
600300
340B00
2EBD00
0BE400
ENDCHAR
STARTCHAR tau
ENCODING 964
SWIDTH 392 0
DWIDTH 7 0
BBX 7 9 0 0
BITMAP
2FFC
ABA8
4200
0300
0300
0700
0700
07A0
02D0
ENDCHAR
STARTCHAR upsilon
ENCODING 965
SWIDTH 491 0
DWIDTH 9 0
BBX 8 9 0 0
BITMAP
7814
AC09
1C06
1807
1807
1407
180E
1EBC
0BE0
ENDCHAR
STARTCHAR phi
ENCODING 966
SWIDTH 603 0
DWIDTH 11 0
BBX 10 14 0 -4
BITMAP
004000
0B8B80
2D2EE0
303430
607020
506020
606030
3861E0
1FFF80
01B900
00A000
00B000
00B000
005000
ENDCHAR
STARTCHAR chi
ENCODING 967
SWIDTH 462 0
DWIDTH 8 0
BBX 10 13 -1 -4
BITMAP
1E01E0
2B42C0
018740
00CE00
00AC00
007400
00A000
01E000
036000
0A1400
1D1C00
380E90
B40780
ENDCHAR
STARTCHAR psi
ENCODING 968
SWIDTH 620 0
DWIDTH 11 0
BBX 11 17 0 -4
BITMAP
003800
002800
002800
002400
782480
AC2460
1C2430
182434
182434
143470
1834A0
0FBBD0
02FE00
003400
003400
007400
006400
ENDCHAR
STARTCHAR omega
ENCODING 969
SWIDTH 660 0
DWIDTH 12 0
BBX 12 9 0 0
BITMAP
074050
1E0024
342818
60380C
50380D
60240D
30241C
2EAEB8
0B87E0
ENDCHAR
STARTCHAR iotadieresis
ENCODING 970
SWIDTH 259 0
DWIDTH 5 0
BBX 6 12 -1 0
BITMAP
B0B0
5050
0000
0B00
0A00
0A00
0A00
0D00
0D00
0900
0A50
0780
ENDCHAR
STARTCHAR upsilondieresis
ENCODING 971
SWIDTH 491 0
DWIDTH 9 0
BBX 8 12 0 0
BITMAP
2C28
1414
0000
7814
AC09
1C06
1807
1807
1407
180E
1EBC
0BE0
ENDCHAR
STARTCHAR omicrontonos
ENCODING 972
SWIDTH 475 0
DWIDTH 9 0
BBX 8 13 0 0
BITMAP
0070
00A0
0090
0000
06F4
1EAD
340A
6002
5003
6002
300A
2EBC
0BE0
ENDCHAR
STARTCHAR upsilontonos
ENCODING 973
SWIDTH 491 0
DWIDTH 9 0
BBX 8 13 0 0
BITMAP
00E0
00D0
0080
0000
7814
AC09
1C06
1807
1807
1407
180E
1EBC
0BE0
ENDCHAR
STARTCHAR omegatonos
ENCODING 974
SWIDTH 660 0
DWIDTH 12 0
BBX 12 13 0 0
BITMAP
001D00
001C00
001400
000000
074050
1E0024
342818
60380C
50380D
60240D
30241C
2EAEB8
0B87E0
ENDCHAR
STARTCHAR uni03D0
ENCODING 976
SWIDTH 438 0
DWIDTH 8 0
BBX 7 14 1 0
BITMAP
02E0
0EB4
2814
3004
7824
9BE0
D140
D640
FFE0
E420
A014
B024
3EB0
1B90
ENDCHAR
STARTCHAR uni03D1
ENCODING 977
SWIDTH 541 0
DWIDTH 10 0
BBX 9 14 0 0
BITMAP
02F400
07AC00
090900
080200
080300
080200
024280
01FFC0
2D1A40
6E0240
0A0240
060700
07AE00
02F800
ENDCHAR
STARTCHAR uni03D2
ENCODING 978
SWIDTH 616 0
DWIDTH 11 0
BBX 11 12 0 0
BITMAP
2F41B8
ABC3BC
02D62C
00E800
00A800
007800
007400
007400
007400
007400
007800
03FF40
ENDCHAR
STARTCHAR uni03D5
ENCODING 981
SWIDTH 575 0
DWIDTH 10 0
BBX 10 17 0 -4
BITMAP
003400
003400
003400
007400
06FE00
1FBB80
3870D0
607060
506020
606060
346090
2EAB80
0BFE00
00A000
00E000
00E000
00D000
ENDCHAR
STARTCHAR uni03D6
ENCODING 982
SWIDTH 821 0
DWIDTH 15 0
BBX 15 9 0 0
BITMAP
2FFFFFF8
ABEAABA4
43010280
060381C0
050381C0
050341C0
060302C0
03ADEB40
01F47D00
ENDCHAR
STARTCHAR uni03D8
ENCODING 984
SWIDTH 627 0
DWIDTH 11 0
BBX 11 12 0 0
BITMAP
02FE40
1FABE0
3D00F4
780078
780078
780078
380074
1D00E0
06AA40
007400
007400
02FE00
ENDCHAR
STARTCHAR uni03D9
ENCODING 985
SWIDTH 475 0
DWIDTH 9 0
BBX 8 13 0 -4
BITMAP
06F4
1EAD
340A
6002
5003
6002
7006
2E6C
0BE4
0180
0280
0280
0280
ENDCHAR
STARTCHAR uni03DA
ENCODING 986
SWIDTH 578 0
DWIDTH 10 0
BBX 10 12 0 0
BITMAP
02FFE0
1FABE0
3D00A0
780060
780000
780000
3D0000
1FE900
02FD00
001D00
001D00
00BF80
ENDCHAR
STARTCHAR uni03DB
ENCODING 987
SWIDTH 490 0
DWIDTH 9 0
BBX 9 13 0 -4
BITMAP
02FF80
1EAA40
200000
500000
500000
600000
3D0000
1FD000
02F400
002800
001400
06A000
078000
ENDCHAR
STARTCHAR uni03DC
ENCODING 988
SWIDTH 588 0
DWIDTH 11 0
BBX 11 12 0 0
BITMAP
6FFFF4
0B0024
0B0000
0B0080
0B0180
0BAB80
0B0080
0B0000
0B0000
0B0000
0B4000
7FE000
ENDCHAR
STARTCHAR uni03DD
ENCODING 989
SWIDTH 386 0
DWIDTH 7 0
BBX 9 14 -2 -5
BITMAP
02FF80
02EA40
028000
028000
018000
01AE00
019900
024000
024000
020000
030000
4A0000
BD0000
240000
ENDCHAR
STARTCHAR uni03DE
ENCODING 990
SWIDTH 525 0
DWIDTH 9 0
BBX 9 12 0 0
BITMAP
0BF000
028000
060000
080000
140000
3FFFC0
6AAB40
000200
000900
001800
007400
02FD00
ENDCHAR
STARTCHAR uni03DF
ENCODING 991
SWIDTH 434 0
DWIDTH 8 0
BBX 9 12 -1 0
BITMAP
2D0000
6E0000
060000
060000
050000
09AD00
0FE800
090800
001800
001800
002E80
001E00
ENDCHAR
STARTCHAR uni03E0
ENCODING 992
SWIDTH 697 0
DWIDTH 13 0
BBX 13 12 0 0
BITMAP
00B40000
00780000
002D0000
003E0000
006B4000
00C78000
0247D000
030DE000
0928B400
1C307800
24903D00
61C1FF80
ENDCHAR
STARTCHAR uni03E1
ENCODING 993
SWIDTH 458 0
DWIDTH 8 0
BBX 9 17 -1 -5
BITMAP
780000
2F0000
0BC000
01E000
007800
002C00
0AD900
1E0700
000300
006F40
02E640
004240
000140
000240
000240
000200
000200
ENDCHAR
STARTCHAR uni03F0
ENCODING 1008
SWIDTH 504 0
DWIDTH 9 0
BBX 10 9 0 0
BITMAP
7803C0
AD0B40
091D00
053800
05B000
06E000
0B6400
1E1E90
7C0B80
ENDCHAR
STARTCHAR uni03F1
ENCODING 1009
SWIDTH 467 0
DWIDTH 8 0
BBX 7 13 1 -4
BITMAP
0BD0
3AB4
5028
8008
C018
E064
EFF0
9640
7800
1F40
01C0
1A80
1D00
ENDCHAR
STARTCHAR uni03F4
ENCODING 1012
SWIDTH 737 0
DWIDTH 13 0
BBX 12 12 1 0
BITMAP
06FE40
1FABE0
7C00B4
B4003C
F0002D
FFFFFD
F0002D
F0002D
B4003C
7D00B4
1FABE0
06FE40
ENDCHAR
STARTCHAR uni03F5
ENCODING 1013
SWIDTH 380 0
DWIDTH 7 0
BBX 7 9 0 0
BITMAP
07E4
1EA0
2000
6A90
7FC0
6000
3010
2EB4
0BE0
ENDCHAR
STARTCHAR uni03F6
ENCODING 1014
SWIDTH 382 0
DWIDTH 7 0
BBX 7 9 0 0
BITMAP
6F40
6AD0
0020
1AB0
1FF4
0020
0070
7AE0
2F80
ENDCHAR
STARTCHAR uni0400
ENCODING 1024
SWIDTH 626 0
DWIDTH 11 0
BBX 11 16 0 0
BITMAP
009000
007400
001900
000000
6FABF0
0B0020
0B0010
0B0080
0B0180
0BAB80
0B0080
0B0000
0B0008
0B0018
0B0024
6FABF4
ENDCHAR
STARTCHAR uni0401
ENCODING 1025
SWIDTH 626 0
DWIDTH 11 0
BBX 11 15 0 0
BITMAP
038380
038380
000000
6FABF0
0B0020
0B0010
0B0080
0B0180
0BAB80
0B0080
0B0000
0B0008
0B0018
0B0024
6FABF4
ENDCHAR
STARTCHAR uni0402
ENCODING 1026
SWIDTH 731 0
DWIDTH 13 0
BBX 13 12 0 0
BITMAP
7EFAB800
90741800
80740800
00740000
00740000
007AA800
00740B00
00740740
00740380
00740340
00768700
02F5E900
ENDCHAR
STARTCHAR uni0403
ENCODING 1027
SWIDTH 548 0
DWIDTH 10 0
BBX 9 16 1 0
BITMAP
006400
00E000
024000
000000
BFFF40
2C0240
2C0140
2C0040
2C0000
2C0000
2C0000
2C0000
2C0000
2C0000
2D0000
FF8000
ENDCHAR
STARTCHAR uni0404
ENCODING 1028
SWIDTH 668 0
DWIDTH 12 0
BBX 10 12 1 0
BITMAP
06AFF0
1D01F0
740070
B00020
E00000
FAA900
E00000
F00000
B00000
780010
1D00A0
06AA40
ENDCHAR
STARTCHAR uni0405
ENCODING 1029
SWIDTH 504 0
DWIDTH 9 0
BBX 9 12 0 0
BITMAP
0ABE00
280B00
340300
380200
2F4000
0BE000
01BD00
001F00
500740
600740
740B00
7FA800
ENDCHAR
STARTCHAR uni0406
ENCODING 1030
SWIDTH 357 0
DWIDTH 6 0
BBX 6 12 0 0
BITMAP
7FE0
0B00
0B00
0B00
0B00
0B00
0B00
0B00
0B00
0B00
0B00
7FE0
ENDCHAR
STARTCHAR uni0407
ENCODING 1031
SWIDTH 357 0
DWIDTH 6 0
BBX 6 15 0 0
BITMAP
B0B0
B0B0
0000
7FE0
0B00
0B00
0B00
0B00
0B00
0B00
0B00
0B00
0B00
0B00
7FE0
ENDCHAR
STARTCHAR uni0408
ENCODING 1032
SWIDTH 396 0
DWIDTH 7 0
BBX 7 12 0 0
BITMAP
1BF8
02D0
02C0
02C0
02C0
02C0
02C0
02C0
02C0
42C0
E2C0
7A40
ENDCHAR
STARTCHAR uni0409
ENCODING 1033
SWIDTH 924 0
DWIDTH 17 0
BBX 17 12 -1 0
BITMAP
01BEBE4000
00203C0000
0020380000
0020380000
0020380000
00203EA900
0060380B40
00903803C0
00803802C0
01803803C0
7B40380B40
3D01BEB900
ENDCHAR
STARTCHAR uni040A
ENCODING 1034
SWIDTH 1013 0
DWIDTH 18 0
BBX 18 12 0 0
BITMAP
7FE0BF8000
0B001D0000
0B001D0000
0B001D0000
0B001D0000
0BAAAFBA00
0B001D07C0
0B001D01E0
0B001D01E0
0B001D01E0
0B401D03C0
6FE0BFAE00
ENDCHAR
STARTCHAR uni040B
ENCODING 1035
SWIDTH 761 0
DWIDTH 14 0
BBX 14 12 0 0
BITMAP
7EFAB800
90741800
80740800
00740000
00740000
007AA800
00740E00
00740B00
00740B00
00740B00
00B40B00
02FE2FD0
ENDCHAR
STARTCHAR uni040C
ENCODING 1036
SWIDTH 658 0
DWIDTH 12 0
BBX 11 16 1 0
BITMAP
001900
003800
009000
000000
BF80B4
2D02F8
2C0610
2C0900
2C0800
2EB400
2C2C00
2C1E00
2C0B00
2C0780
2D02D0
BF81F8
ENDCHAR
STARTCHAR uni040D
ENCODING 1037
SWIDTH 780 0
DWIDTH 14 0
BBX 14 16 0 0
BITMAP
00900000
00740000
00090000
00000000
7FE0BFD0
0B000E00
0B001E00
0B006E00
0B008E00
0B020E00
0B090E00
0B240E00
0B900E00
0B800E00
0B000E00
6FE0BFD0
ENDCHAR
STARTCHAR uni040E
ENCODING 1038
SWIDTH 625 0
DWIDTH 11 0
BBX 12 17 0 0
BITMAP
014140
0382C0
0282C0
00AA00
000000
FF41FD
2D0074
0E0060
074080
03C180
01D200
00B600
007C00
002800
002000
1EA000
1F8000
ENDCHAR
STARTCHAR uni040F
ENCODING 1039
SWIDTH 759 0
DWIDTH 14 0
BBX 13 16 0 -4
BITMAP
7FE0BF80
0B402D00
0B001D00
0B001D00
0B001D00
0B001D00
0B001D00
0B001D00
0B001D00
0B001D00
0B001D00
6FAABF80
00090000
00090000
000E0000
000E0000
ENDCHAR
STARTCHAR uni0410
ENCODING 1040
SWIDTH 718 0
DWIDTH 13 0
BBX 13 12 0 0
BITMAP
001C0000
002D0000
002E0000
00974000
00C38000
0182C000
0201E000
07AAF000
09007400
0C003C00
28002D00
BE00BF80
ENDCHAR
STARTCHAR uni0411
ENCODING 1041
SWIDTH 617 0
DWIDTH 11 0
BBX 10 12 1 0
BITMAP
BFFF80
2C0280
2C0080
2C0000
2C0000
2EB900
2C0B80
2C02D0
2C02D0
2C02D0
2C0780
BEB900
ENDCHAR
STARTCHAR uni0412
ENCODING 1042
SWIDTH 618 0
DWIDTH 11 0
BBX 11 12 0 0
BITMAP
6FAE40
0B01E0
0B00F0
0B00E0
0B01D0
0BAE40
0B01D0
0B00B4
0B0074
0B00B4
0B01F0
6FAB80
ENDCHAR
STARTCHAR uni0413
ENCODING 1043
SWIDTH 548 0
DWIDTH 10 0
BBX 9 12 1 0
BITMAP
BFFF40
2C0240
2C0140
2C0040
2C0000
2C0000
2C0000
2C0000
2C0000
2C0000
2D0000
FF8000
ENDCHAR
STARTCHAR uni0414
ENCODING 1044
SWIDTH 663 0
DWIDTH 12 0
BBX 12 15 0 -3
BITMAP
0BEBF8
0180E0
0140E0
0140E0
0240E0
0200E0
0300E0
0600E0
0900E0
0C00E0
2800E0
FAAAF8
E0001D
C0000C
800008
ENDCHAR
STARTCHAR uni0415
ENCODING 1045
SWIDTH 626 0
DWIDTH 11 0
BBX 11 12 0 0
BITMAP
6FABF0
0B0020
0B0010
0B0080
0B0180
0BAB80
0B0080
0B0000
0B0008
0B0018
0B0024
6FABF4
ENDCHAR
STARTCHAR uni0416
ENCODING 1046
SWIDTH 937 0
DWIDTH 17 0
BBX 17 12 0 0
BITMAP
780BF81F40
BE01D03F40
1201D06100
0181D09000
0081D18000
007BEB4000
00E1D2C000
02C1D1D000
0781D0B000
0B01D07800
1E01D02D00
BC0BF81F80
ENDCHAR
STARTCHAR uni0417
ENCODING 1047
SWIDTH 545 0
DWIDTH 10 0
BBX 9 12 1 0
BITMAP
9AE400
E02D00
801E00
801E00
006800
0BE000
002D00
000F00
000B40
000B00
901D00
1AE400
ENDCHAR
STARTCHAR uni0418
ENCODING 1048
SWIDTH 780 0
DWIDTH 14 0
BBX 14 12 0 0
BITMAP
7FE0BFD0
0B000E00
0B001E00
0B006E00
0B008E00
0B020E00
0B090E00
0B240E00
0B900E00
0B800E00
0B000E00
6FE0BFD0
ENDCHAR
STARTCHAR uni0419
ENCODING 1049
SWIDTH 780 0
DWIDTH 14 0
BBX 14 16 0 0
BITMAP
00A0A000
00E0B000
002A8000
00000000
7FE0BFD0
0B000E00
0B001E00
0B006E00
0B008E00
0B020E00
0B090E00
0B240E00
0B900E00
0B800E00
0B000E00
6FE0BFD0
ENDCHAR
STARTCHAR uni041A
ENCODING 1050
SWIDTH 658 0
DWIDTH 12 0
BBX 11 12 1 0
BITMAP
BF80B4
2D02F8
2C0610
2C0900
2C0800
2EB400
2C2C00
2C1E00
2C0B00
2C0780
2D02D0
BF81F8
ENDCHAR
STARTCHAR uni041B
ENCODING 1051
SWIDTH 684 0
DWIDTH 12 0
BBX 13 12 -1 0
BITMAP
01BEBE40
00202C00
00202C00
00202C00
00202C00
00202C00
00602C00
00902C00
00802C00
01802C00
7B403C00
3D01FF40
ENDCHAR
STARTCHAR uni041C
ENCODING 1052
SWIDTH 895 0
DWIDTH 16 0
BBX 16 12 0 0
BITMAP
7F4001FD
0FC002F0
0AD007E0
09E009E0
08F00CE0
087818E0
083C34E0
082D60E0
080E90E0
080BC0E0
0D0740F0
7F8207FD
ENDCHAR
STARTCHAR uni041D
ENCODING 1053
SWIDTH 777 0
DWIDTH 14 0
BBX 14 12 0 0
BITMAP
7FE0BFD0
0B000E00
0B000E00
0B000E00
0B000E00
0BAAAE00
0B000E00
0B000E00
0B000E00
0B000E00
0B000E00
6FE0BF90
ENDCHAR
STARTCHAR uni041E
ENCODING 1054
SWIDTH 738 0
DWIDTH 13 0
BBX 12 12 1 0
BITMAP
06AA40
1D01E0
780074
B0003C
F0002D
F0002D
F0002D
F0002D
B4003C
780074
1D01E0
06AA40
ENDCHAR
STARTCHAR uni041F
ENCODING 1055
SWIDTH 759 0
DWIDTH 14 0
BBX 13 12 0 0
BITMAP
6FEABF80
0B001D00
0B001D00
0B001D00
0B001D00
0B001D00
0B001D00
0B001D00
0B001D00
0B001D00
0B402D00
7FE0FFC0
ENDCHAR
STARTCHAR uni0420
ENCODING 1056
SWIDTH 569 0
DWIDTH 10 0
BBX 9 12 1 0
BITMAP
BEB900
2C0B40
2C0380
2C0380
2C0380
2C0B00
2EA400
2C0000
2C0000
2C0000
2D0000
BF8000
ENDCHAR
STARTCHAR uni0421
ENCODING 1057
SWIDTH 670 0
DWIDTH 12 0
BBX 10 12 1 0
BITMAP
02AFF0
1E01F0
780070
B00020
F00000
E00000
E00000
F00000
B00000
780010
1E0060
06EA40
ENDCHAR
STARTCHAR uni0422
ENCODING 1058
SWIDTH 603 0
DWIDTH 11 0
BBX 11 12 0 0
BITMAP
BEFAF4
907424
807408
007400
007400
007400
007400
007400
007400
007400
00B400
02FE00
ENDCHAR
STARTCHAR uni0423
ENCODING 1059
SWIDTH 625 0
DWIDTH 11 0
BBX 12 12 0 0
BITMAP
FF41FD
2D0074
0E0060
074080
03C180
01D200
00B600
007C00
002800
002000
1EA000
1F8000
ENDCHAR
STARTCHAR uni0424
ENCODING 1060
SWIDTH 725 0
DWIDTH 13 0
BBX 13 12 0 0
BITMAP
00BF8000
001D0000
06AEF400
2D1D1E00
381D0B40
741D0740
741D0740
381D0B00
1E1D1D00
06AEA400
001D0000
00BF8000
ENDCHAR
STARTCHAR uni0425
ENCODING 1061
SWIDTH 664 0
DWIDTH 12 0
BBX 12 12 0 0
BITMAP
BFD1FE
0F4070
0780C0
02D240
00F600
007C00
007D00
008B00
024780
0A02E0
1C00F4
BE02FE
ENDCHAR
STARTCHAR uni0426
ENCODING 1062
SWIDTH 756 0
DWIDTH 14 0
BBX 13 15 0 -3
BITMAP
7FE0BF80
0B402D00
0B001D00
0B001D00
0B001D00
0B001D00
0B001D00
0B001D00
0B001D00
0B001D00
0B001D00
6FAABF80
000002C0
00000180
00000080
ENDCHAR
STARTCHAR uni0427
ENCODING 1063
SWIDTH 650 0
DWIDTH 12 0
BBX 11 12 0 0
BITMAP
BF4BF8
2D01D0
1D01D0
1D01D0
1D01D0
1E01D0
06AAD0
0001D0
0001D0
0001D0
0001D0
000BF8
ENDCHAR
STARTCHAR uni0428
ENCODING 1064
SWIDTH 1053 0
DWIDTH 19 0
BBX 19 12 0 0
BITMAP
7FD2FE1FF4
0B00740380
0B00740380
0B00740380
0B00740380
0B00740380
0B00740380
0B00740380
0B00740380
0B00740380
0B00740380
6FAAFAABE0
ENDCHAR
STARTCHAR uni0429
ENCODING 1065
SWIDTH 1044 0
DWIDTH 19 0
BBX 18 15 0 -3
BITMAP
7FD2FE2FE0
0B00B40740
0B00740740
0B00740740
0B00740740
0B00740740
0B00740740
0B00740740
0B00740740
0B00740740
0B00740740
6FAAFAABE0
00000000B0
0000000030
0000000020
ENDCHAR
STARTCHAR uni042A
ENCODING 1066
SWIDTH 723 0
DWIDTH 13 0
BBX 13 12 0 0
BITMAP
BFFE0000
90740000
80740000
00740000
00740000
007AE400
00741E00
00740B40
00740740
00740B40
00741E00
02FEA400
ENDCHAR
STARTCHAR uni042B
ENCODING 1067
SWIDTH 887 0
DWIDTH 16 0
BBX 16 12 0 0
BITMAP
7FE00BF9
0B0001E0
0B0000E0
0B0000E0
0B0000E0
0BAE40E0
0B02D0E0
0B00F0E0
0B00B0E0
0B00F0E0
0B01D1E0
3FAA4BF9
ENDCHAR
STARTCHAR uni042C
ENCODING 1068
SWIDTH 606 0
DWIDTH 11 0
BBX 11 12 0 0
BITMAP
7FE000
0B0000
0B0000
0B0000
0B0000
0BAA40
0B02E0
0B00B4
0B00B4
0B00B4
0B01E0
2FAE40
ENDCHAR
STARTCHAR uni042D
ENCODING 1069
SWIDTH 667 0
DWIDTH 12 0
BBX 10 12 1 0
BITMAP
FFA900
F40780
D001D0
8000E0
0000B0
06AAF0
0000B0
0000F0
0000E0
4002C0
A00740
1AA800
ENDCHAR
STARTCHAR uni042E
ENCODING 1070
SWIDTH 1042 0
DWIDTH 19 0
BBX 18 12 0 0
BITMAP
7FE01AA800
0B00B40B40
0B01D002C0
0B03C001D0
0B038000E0
0BAB8000E0
0B078000E0
0B038000E0
0B02C001D0
0B01D002C0
0B00B40740
6FE01AA800
ENDCHAR
STARTCHAR uni042F
ENCODING 1071
SWIDTH 654 0
DWIDTH 12 0
BBX 11 12 0 0
BITMAP
01AAF8
0B41D0
0E01D0
1E01D0
0F01D0
0781D0
01FAD0
01E1D0
03C1D0
0B41D0
1E01E0
FD0BF8
ENDCHAR
STARTCHAR uni0430
ENCODING 1072
SWIDTH 480 0
DWIDTH 9 0
BBX 9 9 0 0
BITMAP
0AE000
283800
382C00
002C00
06AC00
2D2C00
742C00
742C00
2E5E40
ENDCHAR
STARTCHAR uni0431
ENCODING 1073
SWIDTH 520 0
DWIDTH 9 0
BBX 9 14 0 0
BITMAP
000040
001B40
02FD00
0F9000
280000
32B800
690B00
780740
780380
740380
380380
280340
1D0A00
06A800
ENDCHAR
STARTCHAR uni0432
ENCODING 1074
SWIDTH 505 0
DWIDTH 9 0
BBX 9 9 0 0
BITMAP
6FB900
1D0B00
0D0700
0D0A00
0FB800
0D0B00
0D0740
1D0740
6FA900
ENDCHAR
STARTCHAR uni0433
ENCODING 1075
SWIDTH 429 0
DWIDTH 8 0
BBX 8 9 0 0
BITMAP
6EAD
1D09
0D05
0D00
0D00
0D00
0D00
1D00
7F80
ENDCHAR
STARTCHAR uni0434
ENCODING 1076
SWIDTH 530 0
DWIDTH 10 0
BBX 9 12 0 -3
BITMAP
1BAF80
020E00
020E00
060E00
050E00
080E00
080E00
240E00
FAAF80
D001C0
C000C0
800080
ENDCHAR
STARTCHAR uni0435
ENCODING 1077
SWIDTH 464 0
DWIDTH 8 0
BBX 8 9 0 0
BITMAP
06A4
282C
340E
7AAE
7000
7400
3801
2E59
07F4
ENDCHAR
STARTCHAR uni0436
ENCODING 1078
SWIDTH 754 0
DWIDTH 14 0
BBX 14 9 0 0
BITMAP
783F83C0
550E0980
020E0800
020E2400
01EFF000
078E3800
0B0E1D00
1D0E0B00
B83F87D0
ENDCHAR
STARTCHAR uni0437
ENCODING 1079
SWIDTH 435 0
DWIDTH 8 0
BBX 7 9 0 0
BITMAP
2AE0
3038
1028
0064
06E0
0038
002C
5028
1AE0
ENDCHAR
STARTCHAR uni0438
ENCODING 1080
SWIDTH 609 0
DWIDTH 11 0
BBX 11 9 0 0
BITMAP
7F47F4
1D01D0
0D07C0
0D09C0
0D21C0
0D81C0
0F01C0
1D01D0
7F47F4
ENDCHAR
STARTCHAR uni0439
ENCODING 1081
SWIDTH 609 0
DWIDTH 11 0
BBX 11 13 0 0
BITMAP
074740
070340
01A900
000000
7F47F4
1D01D0
0D07C0
0D09C0
0D21C0
0D81C0
0F01C0
1D01D0
7F47F4
ENDCHAR
STARTCHAR uni043A
ENCODING 1082
SWIDTH 521 0
DWIDTH 9 0
BBX 10 9 0 0
BITMAP
7F4780
1D0980
0D1400
0D2000
0FF000
0D7800
0D2D00
1D0F00
7F47D0
ENDCHAR
STARTCHAR uni043B
ENCODING 1083
SWIDTH 553 0
DWIDTH 10 0
BBX 10 9 0 0
BITMAP
0BAB90
014700
024700
020700
020700
020700
050700
AC0740
F42FD0
ENDCHAR
STARTCHAR uni043C
ENCODING 1084
SWIDTH 697 0
DWIDTH 13 0
BBX 12 9 0 0
BITMAP
7E007E
1F00B8
1B80A8
16C168
15D228
14F628
147C28
183838
BE24BE
ENDCHAR
STARTCHAR uni043D
ENCODING 1085
SWIDTH 605 0
DWIDTH 11 0
BBX 11 9 0 0
BITMAP
7F4BF4
1D02C0
0D01C0
0D01C0
0FABC0
0D01C0
0D01C0
1D02C0
7F4BF4
ENDCHAR
STARTCHAR uni043E
ENCODING 1086
SWIDTH 514 0
DWIDTH 9 0
BBX 9 9 0 0
BITMAP
06B800
1C0A00
380740
740380
740380
740380
380740
2D0A00
07A800
ENDCHAR
STARTCHAR uni043F
ENCODING 1087
SWIDTH 591 0
DWIDTH 11 0
BBX 10 9 0 0
BITMAP
6EABE0
1D0280
0D0280
0D0280
0D0280
0D0280
0D0280
1D02C0
7F4BE0
ENDCHAR
STARTCHAR uni0440
ENCODING 1088
SWIDTH 537 0
DWIDTH 10 0
BBX 9 13 0 -4
BITMAP
6DAD00
1E0740
1D0380
1D02C0
1D02C0
1D02C0
1D0380
1E0700
1EE800
1D0000
1D0000
1D0000
7F8000
ENDCHAR
STARTCHAR uni0441
ENCODING 1089
SWIDTH 446 0
DWIDTH 8 0
BBX 8 9 0 0
BITMAP
06B4
182D
3409
7000
7000
7400
3801
2D58
0BE4
ENDCHAR
STARTCHAR uni0442
ENCODING 1090
SWIDTH 456 0
DWIDTH 8 0
BBX 8 9 0 0
BITMAP
BBEF
92C3
82C2
02C0
02C0
02C0
02C0
02C0
0BF4
ENDCHAR
STARTCHAR uni0443
ENCODING 1091
SWIDTH 483 0
DWIDTH 9 0
BBX 10 13 -1 -4
BITMAP
7F43E0
0E0180
0B0240
078200
02C600
01D900
00A800
007400
003000
006000
009000
2A8000
2E0000
ENDCHAR
STARTCHAR uni0444
ENCODING 1092
SWIDTH 710 0
DWIDTH 13 0
BBX 12 17 0 -4
BITMAP
006C00
001C00
001C00
001C00
0BADB8
2C2D0D
381C0A
741C0B
741C0B
741C0B
381C0A
2C2D0D
0BAEB4
001C00
001C00
001D00
00BF40
ENDCHAR
STARTCHAR uni0445
ENCODING 1093
SWIDTH 479 0
DWIDTH 9 0
BBX 9 9 0 0
BITMAP
BF1F40
1D0C00
0B2400
039000
02D000
02B000
083800
241D00
F83F80
ENDCHAR
STARTCHAR uni0446
ENCODING 1094
SWIDTH 590 0
DWIDTH 11 0
BBX 10 12 0 -3
BITMAP
7F4BE0
1D0380
0D0280
0D0280
0D0280
0D0280
0D0280
1D0380
6FABE0
000070
000030
000020
ENDCHAR
STARTCHAR uni0447
ENCODING 1095
SWIDTH 535 0
DWIDTH 10 0
BBX 9 9 0 0
BITMAP
BE2F80
380B00
280A00
280A00
2C0A00
0AAE00
000A00
000B00
002F80
ENDCHAR
STARTCHAR uni0448
ENCODING 1096
SWIDTH 812 0
DWIDTH 15 0
BBX 14 9 0 0
BITMAP
7F5FCBE0
1D070280
0D070280
0D070280
0D070280
0D070280
0D070280
1D070280
7FAFEBE0
ENDCHAR
STARTCHAR uni0449
ENCODING 1097
SWIDTH 814 0
DWIDTH 15 0
BBX 15 12 0 -3
BITMAP
7F5FCBE0
1D070280
0D070280
0D070280
0D070280
0D070280
0D070280
1D070280
6FAFEBE0
00000074
00000020
00000020
ENDCHAR
STARTCHAR uni044A
ENCODING 1098
SWIDTH 568 0
DWIDTH 10 0
BBX 10 9 0 0
BITMAP
BBE000
92C000
82C000
42C000
02EA40
02C1D0
02C0E0
02C1D0
0BEA40
ENDCHAR
STARTCHAR uni044B
ENCODING 1099
SWIDTH 728 0
DWIDTH 13 0
BBX 13 9 0 0
BITMAP
7F407F40
1D001D00
0D001D00
0D001D00
0FA81D00
0D0F1D00
0D0B1D00
1D0A1D00
7FB87F40
ENDCHAR
STARTCHAR uni044C
ENCODING 1100
SWIDTH 489 0
DWIDTH 9 0
BBX 9 9 0 0
BITMAP
7F4000
1D0000
0D0000
0D0000
0FA900
0D0B00
0D0740
1D0B00
6FB900
ENDCHAR
STARTCHAR uni044D
ENCODING 1101
SWIDTH 467 0
DWIDTH 8 0
BBX 8 9 0 0
BITMAP
2AA0
702C
500D
000E
06AE
000E
000D
502C
1AE0
ENDCHAR
STARTCHAR uni044E
ENCODING 1102
SWIDTH 774 0
DWIDTH 14 0
BBX 14 9 0 0
BITMAP
7F41A900
1D0B0780
0D0D02C0
0D1D01D0
0FBC01D0
0D1D01D0
0D0D02C0
1D0B0340
7F42E900
ENDCHAR
STARTCHAR uni044F
ENCODING 1103
SWIDTH 518 0
DWIDTH 9 0
BBX 9 9 0 0
BITMAP
0BAF80
2C0E00
380D00
2D0D00
07ED00
074D00
0F0D00
1D0E00
BC7F80
ENDCHAR
STARTCHAR uni0450
ENCODING 1104
SWIDTH 464 0
DWIDTH 8 0
BBX 8 13 0 0
BITMAP
0740
0280
0080
0000
06A4
282C
340E
7AAE
7000
7400
3801
2E59
07F4
ENDCHAR
STARTCHAR uni0451
ENCODING 1105
SWIDTH 464 0
DWIDTH 8 0
BBX 8 12 0 0
BITMAP
1D2D
1D1C
0000
06A4
282C
340E
7AAE
7000
7400
3801
2E59
07F4
ENDCHAR
STARTCHAR uni0452
ENCODING 1106
SWIDTH 563 0
DWIDTH 10 0
BBX 9 18 0 -4
BITMAP
050000
7D0000
1D0000
6FA400
0D0000
0D6E00
0E0740
0D0280
0D0280
0D0280
0D0280
0D0280
1D0280
7F8280
000240
000300
028600
01F800
ENDCHAR
STARTCHAR uni0453
ENCODING 1107
SWIDTH 429 0
DWIDTH 8 0
BBX 8 13 0 0
BITMAP
00E0
0180
0200
0000
6EAD
1D09
0D05
0D00
0D00
0D00
0D00
1D00
7F80
ENDCHAR
STARTCHAR uni0454
ENCODING 1108
SWIDTH 460 0
DWIDTH 8 0
BBX 8 9 0 0
BITMAP
06B8
2C1D
3809
7400
7AA0
7400
3400
2C05
0BA4
ENDCHAR
STARTCHAR uni0455
ENCODING 1109
SWIDTH 394 0
DWIDTH 7 0
BBX 7 9 0 0
BITMAP
1AA0
3030
7420
3D00
0BD0
01F4
5038
6034
6AA0
ENDCHAR
STARTCHAR uni0456
ENCODING 1110
SWIDTH 285 0
DWIDTH 5 0
BBX 5 12 0 0
BITMAP
1D00
1D00
0000
6D00
1D00
0D00
0D00
0D00
0D00
0D00
1D00
7F40
ENDCHAR
STARTCHAR uni0457
ENCODING 1111
SWIDTH 285 0
DWIDTH 5 0
BBX 6 12 -1 0
BITMAP
74A0
74B0
0000
1B40
0740
0340
0340
0340
0340
0340
0740
1FD0
ENDCHAR
STARTCHAR uni0458
ENCODING 1112
SWIDTH 263 0
DWIDTH 5 0
BBX 6 16 -2 -4
BITMAP
01D0
01D0
0000
06D0
01D0
01D0
01D0
01D0
01D0
01D0
01D0
01D0
01D0
01C0
B180
7E00
ENDCHAR
STARTCHAR uni0459
ENCODING 1113
SWIDTH 742 0
DWIDTH 13 0
BBX 13 9 0 0
BITMAP
0BAF8000
014B0000
024B0000
020B0000
020BA900
020B0780
050B02C0
AC0B0380
F41FAA00
ENDCHAR
STARTCHAR uni045A
ENCODING 1114
SWIDTH 790 0
DWIDTH 14 0
BBX 14 9 0 0
BITMAP
7F4BF400
1D02C000
0D02C000
0D02C000
0FABEA40
0D02C1E0
0D02C0B0
1D02C1E0
7F4BEB80
ENDCHAR
STARTCHAR uni045B
ENCODING 1115
SWIDTH 579 0
DWIDTH 10 0
BBX 10 13 0 0
BITMAP
6D0000
1D0000
6FA400
0D0000
0D6E00
0E0740
0D0380
0D0280
0D0280
0D0280
0D0280
1D0380
7F8FF0
ENDCHAR
STARTCHAR uni045C
ENCODING 1116
SWIDTH 521 0
DWIDTH 9 0
BBX 10 13 0 0
BITMAP
007400
00A000
008000
000000
7F4780
1D0980
0D1400
0D2000
0FF000
0D7800
0D2D00
1D0F00
7F47D0
ENDCHAR
STARTCHAR uni045D
ENCODING 1117
SWIDTH 609 0
DWIDTH 11 0
BBX 11 13 0 0
BITMAP
02C000
00A000
002000
000000
7F47F4
1D01D0
0D07C0
0D09C0
0D21C0
0D81C0
0F01C0
1D01D0
7F47F4
ENDCHAR
STARTCHAR uni045E
ENCODING 1118
SWIDTH 483 0
DWIDTH 9 0
BBX 10 17 -1 -4
BITMAP
074340
074380
01A900
000000
7F43E0
0E0180
0B0240
074200
02C600
01D500
00E800
007800
003000
002000
009000
1A8000
2E0000
ENDCHAR
STARTCHAR uni045F
ENCODING 1119
SWIDTH 587 0
DWIDTH 11 0
BBX 10 13 0 -4
BITMAP
7F4BE0
1D0280
0D0280
0D0280
0D0280
0D0280
0D0280
1D0280
6FABE0
002000
007000
00B000
001000
ENDCHAR
STARTCHAR uni0462
ENCODING 1122
SWIDTH 727 0
DWIDTH 13 0
BBX 13 14 0 0
BITMAP
07FE0000
00F40000
00B00000
BAFABD00
90B00900
80B00500
00B00000
00BAE400
00B02E00
00B00B40
00B00B40
00B00B40
00B01E00
02FAE400
ENDCHAR
STARTCHAR uni0463
ENCODING 1123
SWIDTH 561 0
DWIDTH 10 0
BBX 10 13 0 0
BITMAP
0A8000
028000
028000
028000
BBEF00
928300
828200
028000
02EA40
0281D0
0280E0
0281D0
0BEA40
ENDCHAR
STARTCHAR uni046A
ENCODING 1130
SWIDTH 881 0
DWIDTH 16 0
BBX 17 12 -1 0
BITMAP
00FAAAE000
007800C000
002D024000
000F060000
00078C0000
0002E40000
001AFA4000
00B4E2D000
01E0E0F000
02D0E07800
0780E02D00
7F47F81F80
ENDCHAR
STARTCHAR uni046B
ENCODING 1131
SWIDTH 667 0
DWIDTH 12 0
BBX 12 9 0 0
BITMAP
0FAAE0
078080
02D240
00B600
01BE40
0769D0
0E28B0
2C2838
B87D2E
ENDCHAR
STARTCHAR uni0472
ENCODING 1138
SWIDTH 737 0
DWIDTH 13 0
BBX 12 12 1 0
BITMAP
06AA40
1D01E0
780074
B0002C
F2E02D
E5B82D
E02F6D
F0002D
B0003C
780074
1D01E0
06AA40
ENDCHAR
STARTCHAR uni0473
ENCODING 1139
SWIDTH 514 0
DWIDTH 9 0
BBX 9 9 0 0
BITMAP
06B800
1C0A00
340740
768380
746780
740380
380740
2D0A00
07A800
ENDCHAR
STARTCHAR uni0474
ENCODING 1140
SWIDTH 705 0
DWIDTH 13 0
BBX 13 12 0 0
BITMAP
FF400B80
2D001FC0
1E002440
0B007000
07809000
03C0C000
02D18000
00E24000
00B20000
007A0000
002C0000
00180000
ENDCHAR
STARTCHAR uni0475
ENCODING 1141
SWIDTH 520 0
DWIDTH 9 0
BBX 11 9 -1 0
BITMAP
7F40B8
0E01F8
0B0240
074200
038500
01C800
00E800
00B400
007000
ENDCHAR
STARTCHAR uni0490
ENCODING 1168
SWIDTH 525 0
DWIDTH 9 0
BBX 9 15 1 0
BITMAP
000140
000240
000740
BFFF40
2C0000
2C0000
2C0000
2C0000
2C0000
2C0000
2C0000
2C0000
2C0000
2D0000
FF8000
ENDCHAR
STARTCHAR uni0491
ENCODING 1169
SWIDTH 404 0
DWIDTH 7 0
BBX 8 12 0 0
BITMAP
0004
0009
000C
6EA8
1D00
0D00
0D00
0D00
0D00
0D00
1D00
7F80
ENDCHAR
STARTCHAR uni1D00
ENCODING 7424
SWIDTH 511 0
DWIDTH 9 0
BBX 11 9 -1 0
BITMAP
003400
00B800
00AC00
014E00
020B00
07AF40
080380
0802D0
7D07F4
ENDCHAR
STARTCHAR uni1D07
ENCODING 7431
SWIDTH 495 0
DWIDTH 9 0
BBX 9 9 0 0
BITMAP
6EAE00
1D0200
0D0100
0D0800
0EA800
0D0800
0D0140
1D0200
6EAF00
ENDCHAR
STARTCHAR uni1D1C
ENCODING 7452
SWIDTH 584 0
DWIDTH 11 0
BBX 11 9 0 0
BITMAP
BF43F4
1D00C0
1C0080
1C0080
1C0080
1C0080
1D0080
0E0140
06A900
ENDCHAR
STARTCHAR uni1D81
ENCODING 7553
SWIDTH 539 0
DWIDTH 10 0
BBX 10 17 0 -4
BITMAP
001B00
000B00
000B00
000B00
06AB00
1D0F00
340B00
740B00
740B00
740B00
740B00
2C0B00
0BAB80
000090
000090
001880
001E40
ENDCHAR
STARTCHAR uni1D84
ENCODING 7556
SWIDTH 542 0
DWIDTH 10 0
BBX 10 17 0 -4
BITMAP
6D0000
1D0000
1D0000
1D0000
1D2F80
1D1D00
1D6000
1D8000
1ED000
1DB400
1D2D00
1D0B40
7F5FE0
000020
000020
000850
000B80
ENDCHAR
STARTCHAR uni1D85
ENCODING 7557
SWIDTH 283 0
DWIDTH 5 0
BBX 5 17 0 -4
BITMAP
6D00
1D00
1D00
1D00
1D00
1D00
1D00
1D00
1D00
1D00
1D00
1D00
7F80
0080
0080
3140
2A00
ENDCHAR
STARTCHAR uni1D8A
ENCODING 7562
SWIDTH 395 0
DWIDTH 7 0
BBX 7 13 0 -4
BITMAP
1AA0
3030
7420
3E00
0BD0
01F4
5038
6034
6AB0
0020
0020
0920
0790
ENDCHAR
STARTCHAR uni1D8D
ENCODING 7565
SWIDTH 479 0
DWIDTH 9 0
BBX 9 13 0 -4
BITMAP
BF1F40
1D0C00
0B2400
039000
02D000
02B000
083800
241D00
F83F80
000080
000080
003140
002A00
ENDCHAR
STARTCHAR uni1D8E
ENCODING 7566
SWIDTH 458 0
DWIDTH 8 0
BBX 8 13 0 -4
BITMAP
3EBD
203C
10B4
01E0
02C0
0740
0E02
2C06
7EBD
0005
0005
0189
00A8
ENDCHAR
STARTCHAR uni1D98
ENCODING 7576
SWIDTH 368 0
DWIDTH 7 0
BBX 9 17 0 -4
BITMAP
006F40
00D340
01C000
01C000
01C000
01C000
01C000
01C000
01C000
01C000
01C000
A1C000
BA4000
800000
800000
960000
2E0000
ENDCHAR
STARTCHAR uni1D9B
ENCODING 7579
SWIDTH 462 0
DWIDTH 8 0
BBX 8 7 0 5
BITMAP
7AF8
291D
280E
280A
2809
281C
2AA0
ENDCHAR
STARTCHAR uni1DA3
ENCODING 7587
SWIDTH 488 0
DWIDTH 9 0
BBX 9 10 0 2
BITMAP
7D2E00
280D00
280D00
280D00
2C0D00
1D2D00
0B9D00
000D00
000D00
000E40
ENDCHAR
STARTCHAR uni1E00
ENCODING 7680
SWIDTH 718 0
DWIDTH 13 0
BBX 13 17 0 -5
BITMAP
001C0000
002D0000
002E0000
00974000
00C38000
0182C000
0201E000
07AAF000
09007400
0C003C00
28002D00
BE00BF80
00000000
00690000
00820000
00820000
00690000
ENDCHAR
STARTCHAR uni1E01
ENCODING 7681
SWIDTH 480 0
DWIDTH 9 0
BBX 9 14 0 -5
BITMAP
0AE000
283800
382C00
002C00
06AC00
2D2C00
742C00
742C00
2E5E40
000000
029000
092000
092000
029000
ENDCHAR
STARTCHAR uni1E02
ENCODING 7682
SWIDTH 618 0
DWIDTH 11 0
BBX 11 15 0 0
BITMAP
00B400
007000
000000
6FAE40
0B01E0
0B00F0
0B00E0
0B01D0
0BAE40
0B01D0
0B00B4
0B0074
0B00B4
0B01F0
6FAB80
ENDCHAR
STARTCHAR uni1E03
ENCODING 7683
SWIDTH 522 0
DWIDTH 9 0
BBX 9 16 0 0
BITMAP
01D000
01D000
000000
6C0000
2C0000
2C0000
2C0000
2DAD00
2D0B00
2C0380
2C0380
2C0380
2C0380
2C0740
2D0A00
1BA400
ENDCHAR
STARTCHAR uni1E04
ENCODING 7684
SWIDTH 618 0
DWIDTH 11 0
BBX 11 15 0 -3
BITMAP
6FAE40
0B01E0
0B00F0
0B00E0
0B01D0
0BAE40
0B01D0
0B00B4
0B0074
0B00B4
0B01F0
6FAB80
000000
00B400
007000
ENDCHAR
STARTCHAR uni1E05
ENCODING 7685
SWIDTH 522 0
DWIDTH 9 0
BBX 9 16 0 -3
BITMAP
6C0000
2C0000
2C0000
2C0000
2DAD00
2D0B00
2C0380
2C0380
2C0380
2C0380
2C0740
2D0A00
1BA400
000000
01D000
01D000
ENDCHAR
STARTCHAR uni1E06
ENCODING 7686
SWIDTH 618 0
DWIDTH 11 0
BBX 11 15 0 -3
BITMAP
6FAE40
0B01E0
0B00F0
0B00E0
0B01D0
0BAE40
0B01D0
0B00B4
0B0074
0B00B4
0B01F0
6FAB80
000000
000000
06AA00
ENDCHAR
STARTCHAR uni1E07
ENCODING 7687
SWIDTH 522 0
DWIDTH 9 0
BBX 9 16 0 -3
BITMAP
6C0000
2C0000
2C0000
2C0000
2DAD00
2D0B00
2C0380
2C0380
2C0380
2C0380
2C0740
2D0A00
1BA400
000000
000000
0AA800
ENDCHAR
STARTCHAR uni1E08
ENCODING 7688
SWIDTH 670 0
DWIDTH 12 0
BBX 10 20 1 -4
BITMAP
000900
002800
00A000
000000
02AFF0
1E01F0
780070
B00020
F00000
E00000
E00000
F00000
B00000
780010
1E0060
06EA40
005000
006800
000C00
00A400
ENDCHAR
STARTCHAR uni1E09
ENCODING 7689
SWIDTH 446 0
DWIDTH 8 0
BBX 8 17 0 -4
BITMAP
00B0
00D0
0140
0000
06B4
182D
3409
7000
7000
7400
3801
2D58
0BE4
0140
01A0
0030
02A0
ENDCHAR
STARTCHAR uni1E0A
ENCODING 7690
SWIDTH 730 0
DWIDTH 13 0
BBX 13 15 0 0
BITMAP
002C0000
002C0000
00000000
6FAE9000
0B01B400
0B002D00
0B000E00
0B000B00
0B000B40
0B000B40
0B000B00
0B000E00
0B002D00
0B00B400
6FAA9000
ENDCHAR
STARTCHAR uni1E0B
ENCODING 7691
SWIDTH 539 0
DWIDTH 10 0
BBX 9 16 0 0
BITMAP
00E000
00E000
000000
001B00
000B00
000B00
000B00
06AB00
1D0F00
340B00
740B00
740B00
740B00
740B00
2C0B00
0BAB80
ENDCHAR
STARTCHAR uni1E0C
ENCODING 7692
SWIDTH 730 0
DWIDTH 13 0
BBX 13 15 0 -3
BITMAP
6FAE9000
0B01B400
0B002D00
0B000E00
0B000B00
0B000B40
0B000B40
0B000B00
0B000E00
0B002D00
0B00B400
6FAA9000
00000000
00380000
00380000
ENDCHAR
STARTCHAR uni1E0D
ENCODING 7693
SWIDTH 539 0
DWIDTH 10 0
BBX 9 16 0 -3
BITMAP
001B00
000B00
000B00
000B00
06AB00
1D0F00
340B00
740B00
740B00
740B00
740B00
2C0B00
0BAB80
000000
00E000
00E000
ENDCHAR
STARTCHAR uni1E0E
ENCODING 7694
SWIDTH 730 0
DWIDTH 13 0
BBX 13 15 0 -3
BITMAP
6FAE9000
0B01B400
0B002D00
0B000E00
0B000B00
0B000B40
0B000B40
0B000B00
0B000E00
0B002D00
0B00B400
6FAA9000
00000000
00000000
02AA4000
ENDCHAR
STARTCHAR uni1E0F
ENCODING 7695
SWIDTH 539 0
DWIDTH 10 0
BBX 9 16 0 -3
BITMAP
001B00
000B00
000B00
000B00
06AB00
1D0F00
340B00
740B00
740B00
740B00
740B00
2C0B00
0BAB80
000000
000000
0AA900
ENDCHAR
STARTCHAR uni1E10
ENCODING 7696
SWIDTH 730 0
DWIDTH 13 0
BBX 13 17 0 -5
BITMAP
6FAE9000
0B01B400
0B002D00
0B000E00
0B000B00
0B000B40
0B000B40
0B000B00
0B000E00
0B002D00
0B00B400
6FAA9000
00000000
00780000
007C0000
00080000
00240000
ENDCHAR
STARTCHAR uni1E11
ENCODING 7697
SWIDTH 539 0
DWIDTH 10 0
BBX 9 18 0 -5
BITMAP
001B00
000B00
000B00
000B00
06AB00
1D0F00
340B00
740B00
740B00
740B00
740B00
2C0B00
0BAB80
000000
00E000
00F000
002000
009000
ENDCHAR
STARTCHAR uni1E12
ENCODING 7698
SWIDTH 730 0
DWIDTH 13 0
BBX 13 16 0 -4
BITMAP
6FAE9000
0B01B400
0B002D00
0B000E00
0B000B00
0B000B40
0B000B40
0B000B00
0B000E00
0B002D00
0B00B400
6FAA9000
00000000
00380000
00990000
01420000
ENDCHAR
STARTCHAR uni1E13
ENCODING 7699
SWIDTH 539 0
DWIDTH 10 0
BBX 9 17 0 -4
BITMAP
001B00
000B00
000B00
000B00
06AB00
1D0F00
340B00
740B00
740B00
740B00
740B00
2C0B00
0BAB80
000000
00E000
026400
050800
ENDCHAR
STARTCHAR uni1E14
ENCODING 7700
SWIDTH 626 0
DWIDTH 11 0
BBX 11 18 0 0
BITMAP
009000
007400
001900
000000
02AA40
000000
6FABF0
0B0020
0B0010
0B0080
0B0180
0BAB80
0B0080
0B0000
0B0008
0B0018
0B0024
6FABF4
ENDCHAR
STARTCHAR uni1E15
ENCODING 7701
SWIDTH 464 0
DWIDTH 8 0
BBX 8 16 0 0
BITMAP
0740
0280
0080
0000
0000
1AA8
0000
06A4
282C
340E
7AAE
7000
7400
3801
2E59
07F4
ENDCHAR
STARTCHAR uni1E16
ENCODING 7702
SWIDTH 626 0
DWIDTH 11 0
BBX 11 18 0 0
BITMAP
000900
002800
00A000
000000
02AA40
000000
6FABF0
0B0020
0B0010
0B0080
0B0180
0BAB80
0B0080
0B0000
0B0008
0B0018
0B0024
6FABF4
ENDCHAR
STARTCHAR uni1E17
ENCODING 7703
SWIDTH 464 0
DWIDTH 8 0
BBX 8 16 0 0
BITMAP
00B4
00D0
0180
0000
0000
1AA8
0000
06A4
282C
340E
7AAE
7000
7400
3801
2E59
07F4
ENDCHAR
STARTCHAR uni1E18
ENCODING 7704
SWIDTH 626 0
DWIDTH 11 0
BBX 11 16 0 -4
BITMAP
6FABF0
0B0020
0B0010
0B0080
0B0180
0BAB80
0B0080
0B0000
0B0008
0B0018
0B0024
6FABF4
000000
007800
009900
014200
ENDCHAR
STARTCHAR uni1E19
ENCODING 7705
SWIDTH 464 0
DWIDTH 8 0
BBX 8 13 0 -4
BITMAP
06A4
282C
340E
7AAE
7000
7400
3801
2E59
07F4
0000
02D0
0770
0818
ENDCHAR
STARTCHAR uni1E1A
ENCODING 7706
SWIDTH 626 0
DWIDTH 11 0
BBX 11 15 0 -3
BITMAP
6FABF0
0B0020
0B0010
0B0080
0B0180
0BAB80
0B0080
0B0000
0B0008
0B0018
0B0024
6FABF4
000000
01A540
011A00
ENDCHAR
STARTCHAR uni1E1B
ENCODING 7707
SWIDTH 464 0
DWIDTH 8 0
BBX 8 12 0 -3
BITMAP
06A4
282C
340E
7AAE
7000
7400
3801
2E59
07F4
0000
0A58
10A4
ENDCHAR
STARTCHAR uni1E1C
ENCODING 7708
SWIDTH 626 0
DWIDTH 11 0
BBX 11 20 0 -4
BITMAP
020140
024200
00A900
000000
6FABF0
0B0020
0B0010
0B0080
0B0180
0BAB80
0B0080
0B0000
0B0008
0B0018
0B0024
6FABF4
002000
002900
000A00
006800
ENDCHAR
STARTCHAR uni1E1D
ENCODING 7709
SWIDTH 464 0
DWIDTH 8 0
BBX 8 17 0 -4
BITMAP
1408
0818
06A0
0000
06A4
282C
340E
7AAE
7000
7400
3801
2E59
07F4
0140
01A0
0030
0290
ENDCHAR
STARTCHAR uni1E1E
ENCODING 7710
SWIDTH 588 0
DWIDTH 11 0
BBX 11 15 0 0
BITMAP
003800
003800
000000
6FFFF4
0B0024
0B0000
0B0080
0B0180
0BAB80
0B0080
0B0000
0B0000
0B0000
0B4000
7FE000
ENDCHAR
STARTCHAR uni1E1F
ENCODING 7711
SWIDTH 307 0
DWIDTH 6 0
BBX 7 16 0 0
BITMAP
1E00
0D00
0000
02F4
0928
0D00
0D00
6F90
0D00
0D00
0D00
0D00
0D00
0D00
1D00
BF80
ENDCHAR
STARTCHAR uni1E20
ENCODING 7712
SWIDTH 720 0
DWIDTH 13 0
BBX 12 14 1 0
BITMAP
02AA40
000000
02AFF0
1D01B0
380030
B00020
F00000
E00000
E002FD
F000B4
B000B0
7800B0
2E00B0
06EA80
ENDCHAR
STARTCHAR uni1E21
ENCODING 7713
SWIDTH 484 0
DWIDTH 9 0
BBX 9 15 0 -4
BITMAP
1AA800
000000
0AFE40
282C00
381D00
381D00
2C2C00
0AA000
240000
390000
2FFE00
200740
600240
B40600
2EA400
ENDCHAR
STARTCHAR uni1E22
ENCODING 7714
SWIDTH 777 0
DWIDTH 14 0
BBX 14 15 0 0
BITMAP
000B0000
000A0000
00000000
7FE0BFD0
0B000E00
0B000E00
0B000E00
0B000E00
0BAAAE00
0B000E00
0B000E00
0B000E00
0B000E00
0B000E00
6FE0BF90
ENDCHAR
STARTCHAR uni1E23
ENCODING 7715
SWIDTH 577 0
DWIDTH 10 0
BBX 10 16 0 0
BITMAP
00B000
00B000
000000
6D0000
1D0000
1D0000
1D0000
1D6E00
1E0740
1D0380
1D0280
1D0280
1D0280
1D0280
1D0380
7F4FE0
ENDCHAR
STARTCHAR uni1E24
ENCODING 7716
SWIDTH 777 0
DWIDTH 14 0
BBX 14 15 0 -3
BITMAP
7FE0BFD0
0B000E00
0B000E00
0B000E00
0B000E00
0BAAAE00
0B000E00
0B000E00
0B000E00
0B000E00
0B000E00
6FE0BF90
00000000
000F0000
000A0000
ENDCHAR
STARTCHAR uni1E25
ENCODING 7717
SWIDTH 577 0
DWIDTH 10 0
BBX 10 16 0 -3
BITMAP
6D0000
1D0000
1D0000
1D0000
1D6E00
1E0740
1D0380
1D0280
1D0280
1D0280
1D0280
1D0380
7F4FE0
000000
00B000
00B000
ENDCHAR
STARTCHAR uni1E26
ENCODING 7718
SWIDTH 777 0
DWIDTH 14 0
BBX 14 15 0 0
BITMAP
00B0A000
00A0A000
00000000
7FE0BFD0
0B000E00
0B000E00
0B000E00
0B000E00
0BAAAE00
0B000E00
0B000E00
0B000E00
0B000E00
0B000E00
6FE0BF90
ENDCHAR
STARTCHAR uni1E27
ENCODING 7719
SWIDTH 577 0
DWIDTH 10 0
BBX 10 16 0 0
BITMAP
0B0B00
0B0B00
000000
6D0000
1D0000
1D0000
1D0000
1D6E00
1E0740
1D0380
1D0280
1D0280
1D0280
1D0280
1D0380
7F4FE0
ENDCHAR
STARTCHAR uni1E28
ENCODING 7720
SWIDTH 777 0
DWIDTH 14 0
BBX 14 16 0 -4
BITMAP
7FE0BFD0
0B000E00
0B000E00
0B000E00
0B000E00
0BAAAE00
0B000E00
0B000E00
0B000E00
0B000E00
0B000E00
6FE0BF90
04000000
0A400000
01C00000
0A400000
ENDCHAR
STARTCHAR uni1E29
ENCODING 7721
SWIDTH 577 0
DWIDTH 10 0
BBX 10 17 0 -4
BITMAP
6D0000
1D0000
1D0000
1D0000
1D6E00
1E0740
1D0380
1D0280
1D0280
1D0280
1D0280
1D0380
7F4FE0
040000
1A0000
030000
2A0000
ENDCHAR
STARTCHAR uni1E2A
ENCODING 7722
SWIDTH 777 0
DWIDTH 14 0
BBX 14 16 0 -4
BITMAP
7FE0BFD0
0B000E00
0B000E00
0B000E00
0B000E00
0BAAAE00
0B000E00
0B000E00
0B000E00
0B000E00
0B000E00
6FE0BF90
00000000
00802000
00609000
001A4000
ENDCHAR
STARTCHAR uni1E2B
ENCODING 7723
SWIDTH 577 0
DWIDTH 10 0
BBX 10 17 0 -4
BITMAP
6D0000
1D0000
1D0000
1D0000
1D6E00
1E0740
1D0380
1D0280
1D0280
1D0280
1D0280
1D0380
7F4FE0
000000
050200
020500
01A800
ENDCHAR
STARTCHAR uni1E2C
ENCODING 7724
SWIDTH 357 0
DWIDTH 6 0
BBX 6 15 0 -3
BITMAP
7FE0
0B00
0B00
0B00
0B00
0B00
0B00
0B00
0B00
0B00
0B00
7FE0
0000
2960
4290
ENDCHAR
STARTCHAR uni1E2D
ENCODING 7725
SWIDTH 285 0
DWIDTH 5 0
BBX 7 15 -1 -3
BITMAP
0740
0740
0000
1B40
0740
0340
0340
0340
0340
0340
0740
1FD0
0000
2A54
52A0
ENDCHAR
STARTCHAR uni1E2E
ENCODING 7726
SWIDTH 357 0
DWIDTH 6 0
BBX 6 19 0 0
BITMAP
0180
0740
0900
0000
B0B0
B0B0
0000
7FE0
0B00
0B00
0B00
0B00
0B00
0B00
0B00
0B00
0B00
0B00
7FE0
ENDCHAR
STARTCHAR uni1E2F
ENCODING 7727
SWIDTH 285 0
DWIDTH 5 0
BBX 6 16 -1 0
BITMAP
02C0
0340
0900
0000
74A0
74B0
0000
1B40
0740
0340
0340
0340
0340
0340
0740
1FD0
ENDCHAR
STARTCHAR uni1E30
ENCODING 7728
SWIDTH 702 0
DWIDTH 13 0
BBX 13 16 0 0
BITMAP
00060000
001E0000
00240000
00000000
7FE2FE00
0B00A000
0B018000
0B060000
0B180000
0BA00000
0BB40000
0B2E0000
0B0B8000
0B02E000
0B00B800
7FE2FF40
ENDCHAR
STARTCHAR uni1E31
ENCODING 7729
SWIDTH 542 0
DWIDTH 10 0
BBX 10 17 0 0
BITMAP
001400
00B400
018000
000000
6D0000
1D0000
1D0000
1D0000
1D2F80
1D1D00
1D6000
1D8000
1ED000
1DB400
1D2D00
1D0B40
7F5FE0
ENDCHAR
STARTCHAR uni1E32
ENCODING 7730
SWIDTH 702 0
DWIDTH 13 0
BBX 13 15 0 -3
BITMAP
7FE2FE00
0B00A000
0B018000
0B060000
0B180000
0BA00000
0BB40000
0B2E0000
0B0B8000
0B02E000
0B00B800
7FE2FF40
00000000
002D0000
001D0000
ENDCHAR
STARTCHAR uni1E33
ENCODING 7731
SWIDTH 542 0
DWIDTH 10 0
BBX 10 16 0 -3
BITMAP
6D0000
1D0000
1D0000
1D0000
1D2F80
1D1D00
1D6000
1D8000
1ED000
1DB400
1D2D00
1D0B40
7F5FE0
000000
00E000
00E000
ENDCHAR
STARTCHAR uni1E34
ENCODING 7732
SWIDTH 702 0
DWIDTH 13 0
BBX 13 15 0 -3
BITMAP
7FE2FE00
0B00A000
0B018000
0B060000
0B180000
0BA00000
0BB40000
0B2E0000
0B0B8000
0B02E000
0B00B800
7FE2FF40
00000000
00000000
01AA8000
ENDCHAR
STARTCHAR uni1E35
ENCODING 7733
SWIDTH 542 0
DWIDTH 10 0
BBX 10 16 0 -3
BITMAP
6D0000
1D0000
1D0000
1D0000
1D2F80
1D1D00
1D6000
1D8000
1ED000
1DB400
1D2D00
1D0B40
7F5FE0
000000
000000
0AA900
ENDCHAR
STARTCHAR uni1E36
ENCODING 7734
SWIDTH 585 0
DWIDTH 11 0
BBX 10 15 0 -3
BITMAP
7FE000
0B4000
0B0000
0B0000
0B0000
0B0000
0B0000
0B0000
0B0010
0B0020
0B0070
2FEBE0
000000
00B000
00B000
ENDCHAR
STARTCHAR uni1E37
ENCODING 7735
SWIDTH 283 0
DWIDTH 5 0
BBX 5 16 0 -3
BITMAP
6D00
1D00
1D00
1D00
1D00
1D00
1D00
1D00
1D00
1D00
1D00
1D00
7F80
0000
1D00
1D00
ENDCHAR
STARTCHAR uni1E38
ENCODING 7736
SWIDTH 585 0
DWIDTH 11 0
BBX 10 17 0 -3
BITMAP
6AA000
000000
7FE000
0B4000
0B0000
0B0000
0B0000
0B0000
0B0000
0B0000
0B0010
0B0020
0B0070
2FEBE0
000000
00B000
00B000
ENDCHAR
STARTCHAR uni1E39
ENCODING 7737
SWIDTH 283 0
DWIDTH 5 0
BBX 5 18 0 -3
BITMAP
AA80
0000
6D00
1D00
1D00
1D00
1D00
1D00
1D00
1D00
1D00
1D00
1D00
1D00
7F80
0000
1D00
1D00
ENDCHAR
STARTCHAR uni1E3A
ENCODING 7738
SWIDTH 585 0
DWIDTH 11 0
BBX 10 15 0 -3
BITMAP
7FE000
0B4000
0B0000
0B0000
0B0000
0B0000
0B0000
0B0000
0B0010
0B0020
0B0070
2FEBE0
000000
000000
06AA00
ENDCHAR
STARTCHAR uni1E3B
ENCODING 7739
SWIDTH 283 0
DWIDTH 5 0
BBX 5 16 0 -3
BITMAP
6D00
1D00
1D00
1D00
1D00
1D00
1D00
1D00
1D00
1D00
1D00
1D00
7F80
0000
0000
AA80
ENDCHAR
STARTCHAR uni1E3C
ENCODING 7740
SWIDTH 585 0
DWIDTH 11 0
BBX 10 16 0 -4
BITMAP
7FE000
0B4000
0B0000
0B0000
0B0000
0B0000
0B0000
0B0000
0B0010
0B0020
0B0070
2FEBE0
000000
00B400
019800
020500
ENDCHAR
STARTCHAR uni1E3D
ENCODING 7741
SWIDTH 283 0
DWIDTH 5 0
BBX 5 17 0 -4
BITMAP
6D00
1D00
1D00
1D00
1D00
1D00
1D00
1D00
1D00
1D00
1D00
1D00
7F80
0000
1D00
3700
9180
ENDCHAR
STARTCHAR uni1E3E
ENCODING 7742
SWIDTH 895 0
DWIDTH 16 0
BBX 16 16 0 0
BITMAP
00009000
0002D000
000A0000
00000000
7F4001FD
0FC002F0
0AD007E0
09E009E0
08F00CE0
087818E0
083C34E0
082D60E0
080E90E0
080BC0E0
0D0740F0
7F8207FD
ENDCHAR
STARTCHAR uni1E3F
ENCODING 7743
SWIDTH 852 0
DWIDTH 15 0
BBX 15 13 0 0
BITMAP
0001E000
00028000
00020000
00000000
6D6E1B80
1E07D1D0
0D0380E0
0D0380E0
0D0380E0
0D0380E0
0D0380E0
1D0380E0
7F9FE3F8
ENDCHAR
STARTCHAR uni1E40
ENCODING 7744
SWIDTH 895 0
DWIDTH 16 0
BBX 16 15 0 0
BITMAP
00038000
00038000
00000000
7F4001FD
0FC002F0
0AD007E0
09E009E0
08F00CE0
087818E0
083C34E0
082D60E0
080E90E0
080BC0E0
0D0740F0
7F8207FD
ENDCHAR
STARTCHAR uni1E41
ENCODING 7745
SWIDTH 852 0
DWIDTH 15 0
BBX 15 12 0 0
BITMAP
00038000
00038000
00000000
6D6E1B80
1E07D1D0
0D0380E0
0D0380E0
0D0380E0
0D0380E0
0D0380E0
1D0380E0
7F9FE3F8
ENDCHAR
STARTCHAR uni1E42
ENCODING 7746
SWIDTH 895 0
DWIDTH 16 0
BBX 16 15 0 -3
BITMAP
7F4001FD
0FC002F0
0AD007E0
09E009E0
08F00CE0
087818E0
083C34E0
082D60E0
080E90E0
080BC0E0
0D0740F0
7F8207FD
00000000
00074000
00074000
ENDCHAR
STARTCHAR uni1E43
ENCODING 7747
SWIDTH 852 0
DWIDTH 15 0
BBX 15 12 0 -3
BITMAP
6D6E1B80
1E07D1D0
0D0380E0
0D0380E0
0D0380E0
0D0380E0
0D0380E0
1D0380E0
7F9FE3F8
00000000
00038000
00038000
ENDCHAR
STARTCHAR uni1E44
ENCODING 7748
SWIDTH 742 0
DWIDTH 13 0
BBX 13 15 0 0
BITMAP
000E0000
000E0000
00000000
7F007F80
0F800D00
0BD00900
09F40900
087C0900
082E0900
080B8900
0803D900
0801F900
08007D00
0D002D00
7F800900
ENDCHAR
STARTCHAR uni1E45
ENCODING 7749
SWIDTH 576 0
DWIDTH 10 0
BBX 10 12 0 0
BITMAP
007400
007400
000000
6D6E00
1E0740
0D0380
0D0380
0D0380
0D0380
0D0380
1D0380
7F8FE0
ENDCHAR
STARTCHAR uni1E46
ENCODING 7750
SWIDTH 742 0
DWIDTH 13 0
BBX 13 15 0 -3
BITMAP
7F007F80
0F800D00
0BD00900
09F40900
087C0900
082E0900
080B8900
0803D900
0801F900
08007D00
0D002D00
7F800900
00000000
001D0000
001D0000
ENDCHAR
STARTCHAR uni1E47
ENCODING 7751
SWIDTH 576 0
DWIDTH 10 0
BBX 10 12 0 -3
BITMAP
6D6E00
1E0740
0D0380
0D0380
0D0380
0D0380
0D0380
1D0380
7F8FE0
000000
00B000
00B000
ENDCHAR
STARTCHAR uni1E48
ENCODING 7752
SWIDTH 742 0
DWIDTH 13 0
BBX 13 15 0 -3
BITMAP
7F007F80
0F800D00
0BD00900
09F40900
087C0900
082E0900
080B8900
0803D900
0801F900
08007D00
0D002D00
7F800900
00000000
00000000
00AA8000
ENDCHAR
STARTCHAR uni1E49
ENCODING 7753
SWIDTH 576 0
DWIDTH 10 0
BBX 10 12 0 -3
BITMAP
6D6E00
1E0740
0D0380
0D0380
0D0380
0D0380
0D0380
1D0380
7F8FE0
000000
000000
06AA00
ENDCHAR
STARTCHAR uni1E4A
ENCODING 7754
SWIDTH 742 0
DWIDTH 13 0
BBX 13 16 0 -4
BITMAP
7F007F80
0F800D00
0BD00900
09F40900
087C0900
082E0900
080B8900
0803D900
0801F900
08007D00
0D002D00
7F800900
00000000
001D0000
00370000
00818000
ENDCHAR
STARTCHAR uni1E4B
ENCODING 7755
SWIDTH 576 0
DWIDTH 10 0
BBX 10 13 0 -4
BITMAP
6D6E00
1E0740
0D0380
0D0380
0D0380
0D0380
0D0380
1D0380
7F8FE0
000000
00B400
019800
020500
ENDCHAR
STARTCHAR uni1E4C
ENCODING 7756
SWIDTH 738 0
DWIDTH 13 0
BBX 12 18 1 0
BITMAP
001900
003800
009000
01A540
011A00
000000
06AA40
1D01E0
780074
B0003C
F0002D
F0002D
F0002D
F0002D
B4003C
780074
1D01E0
06AA40
ENDCHAR
STARTCHAR uni1E4D
ENCODING 7757
SWIDTH 514 0
DWIDTH 9 0
BBX 9 16 0 0
BITMAP
007400
00A000
008000
000000
069500
046800
000000
06B800
1C0A00
380740
740380
740380
740380
380740
2D0A00
07A800
ENDCHAR
STARTCHAR uni1E4E
ENCODING 7758
SWIDTH 738 0
DWIDTH 13 0
BBX 12 17 1 0
BITMAP
074740
074740
01A540
011A00
000000
06AA40
1D01E0
780074
B0003C
F0002D
F0002D
F0002D
F0002D
B4003C
780074
1D01E0
06AA40
ENDCHAR
STARTCHAR uni1E4F
ENCODING 7759
SWIDTH 514 0
DWIDTH 9 0
BBX 9 14 0 0
BITMAP
0E1E00
0E0D00
069500
046800
000000
06B800
1C0A00
380740
740380
740380
740380
380740
2D0A00
07A800
ENDCHAR
STARTCHAR uni1E50
ENCODING 7760
SWIDTH 738 0
DWIDTH 13 0
BBX 12 18 1 0
BITMAP
009000
00B400
001800
000000
02AA40
000000
06AA40
1D01E0
780074
B0003C
F0002D
F0002D
F0002D
F0002D
B4003C
780074
1D01E0
06AA40
ENDCHAR
STARTCHAR uni1E51
ENCODING 7761
SWIDTH 514 0
DWIDTH 9 0
BBX 9 16 0 0
BITMAP
038000
01C000
005000
000000
000000
0AA900
000000
06B800
1C0A00
380740
740380
740380
740380
380740
2D0A00
07A800
ENDCHAR
STARTCHAR uni1E52
ENCODING 7762
SWIDTH 738 0
DWIDTH 13 0
BBX 12 18 1 0
BITMAP
001900
003800
009000
000000
02AA40
000000
06AA40
1D01E0
780074
B0003C
F0002D
F0002D
F0002D
F0002D
B4003C
780074
1D01E0
06AA40
ENDCHAR
STARTCHAR uni1E53
ENCODING 7763
SWIDTH 514 0
DWIDTH 9 0
BBX 9 16 0 0
BITMAP
007400
00A000
008000
000000
000000
0AA900
000000
06B800
1C0A00
380740
740380
740380
740380
380740
2D0A00
07A800
ENDCHAR
STARTCHAR uni1E54
ENCODING 7764
SWIDTH 569 0
DWIDTH 10 0
BBX 9 16 1 0
BITMAP
006000
01D000
024000
000000
BEB900
2C0B40
2C0380
2C0380
2C0380
2C0B00
2EA400
2C0000
2C0000
2C0000
2D0000
BF8000
ENDCHAR
STARTCHAR uni1E55
ENCODING 7765
SWIDTH 537 0
DWIDTH 10 0
BBX 9 17 0 -4
BITMAP
003800
006000
008000
000000
6DAD00
1E0740
1D0380
1D02C0
1D02C0
1D02C0
1D0380
1E0700
1EE800
1D0000
1D0000
1D0000
7F8000
ENDCHAR
STARTCHAR uni1E56
ENCODING 7766
SWIDTH 569 0
DWIDTH 10 0
BBX 9 15 1 0
BITMAP
02C000
02C000
000000
BEB900
2C0B40
2C0380
2C0380
2C0380
2C0B00
2EA400
2C0000
2C0000
2C0000
2D0000
BF8000
ENDCHAR
STARTCHAR uni1E57
ENCODING 7767
SWIDTH 537 0
DWIDTH 10 0
BBX 9 16 0 -4
BITMAP
00E000
00E000
000000
6DAD00
1E0740
1D0380
1D02C0
1D02C0
1D02C0
1D0380
1E0700
1EE800
1D0000
1D0000
1D0000
7F8000
ENDCHAR
STARTCHAR uni1E58
ENCODING 7768
SWIDTH 659 0
DWIDTH 12 0
BBX 11 15 1 0
BITMAP
01D000
01D000
000000
BEB900
2C0B40
2C0380
2C0380
2C0780
2C1E00
2EF400
2C7800
2C1E00
2C0B40
2C03D0
BF81F8
ENDCHAR
STARTCHAR uni1E59
ENCODING 7769
SWIDTH 380 0
DWIDTH 7 0
BBX 7 12 0 0
BITMAP
0740
0740
0000
2D78
1EB8
0E00
0D00
0D00
0D00
0D00
1D00
7F80
ENDCHAR
STARTCHAR uni1E5A
ENCODING 7770
SWIDTH 659 0
DWIDTH 12 0
BBX 11 15 1 -3
BITMAP
BEB900
2C0B40
2C0380
2C0380
2C0780
2C1E00
2EF400
2C7800
2C1E00
2C0B40
2C03D0
BF81F8
000000
00F000
00A000
ENDCHAR
STARTCHAR uni1E5B
ENCODING 7771
SWIDTH 380 0
DWIDTH 7 0
BBX 7 12 0 -3
BITMAP
2D78
1EB8
0E00
0D00
0D00
0D00
0D00
1D00
7F80
0000
0E00
0E00
ENDCHAR
STARTCHAR uni1E5C
ENCODING 7772
SWIDTH 659 0
DWIDTH 12 0
BBX 11 17 1 -3
BITMAP
0AA900
000000
BEB900
2C0B40
2C0380
2C0380
2C0780
2C1E00
2EF400
2C7800
2C1E00
2C0B40
2C03D0
BF81F8
000000
00F000
00A000
ENDCHAR
STARTCHAR uni1E5D
ENCODING 7773
SWIDTH 380 0
DWIDTH 7 0
BBX 7 14 0 -3
BITMAP
2AA0
0000
2D78
1EB8
0E00
0D00
0D00
0D00
0D00
1D00
7F80
0000
0E00
0E00
ENDCHAR
STARTCHAR uni1E5E
ENCODING 7774
SWIDTH 659 0
DWIDTH 12 0
BBX 11 15 1 -3
BITMAP
BEB900
2C0B40
2C0380
2C0380
2C0780
2C1E00
2EF400
2C7800
2C1E00
2C0B40
2C03D0
BF81F8
000000
000000
06A900
ENDCHAR
STARTCHAR uni1E5F
ENCODING 7775
SWIDTH 380 0
DWIDTH 7 0
BBX 7 12 0 -3
BITMAP
2D78
1EB8
0E00
0D00
0D00
0D00
0D00
1D00
7F80
0000
0000
AA90
ENDCHAR
STARTCHAR uni1E60
ENCODING 7776
SWIDTH 504 0
DWIDTH 9 0
BBX 9 15 0 0
BITMAP
01D000
01D000
000000
0ABE00
280B00
340300
380200
2F4000
0BE000
01BD00
001F00
500740
600740
740B00
7FA800
ENDCHAR
STARTCHAR uni1E61
ENCODING 7777
SWIDTH 394 0
DWIDTH 7 0
BBX 7 12 0 0
BITMAP
0740
0740
0000
1AA0
3030
7420
3D00
0BD0
01F4
5038
6034
6AA0
ENDCHAR
STARTCHAR uni1E62
ENCODING 7778
SWIDTH 504 0
DWIDTH 9 0
BBX 9 15 0 -3
BITMAP
0ABE00
280B00
340300
380200
2F4000
0BE000
01BD00
001F00
500740
600740
740B00
7FA800
000000
01D000
01D000
ENDCHAR
STARTCHAR uni1E63
ENCODING 7779
SWIDTH 394 0
DWIDTH 7 0
BBX 7 12 0 -3
BITMAP
1AA0
3030
7420
3D00
0BD0
01F4
5038
6034
6AA0
0000
0740
0740
ENDCHAR
STARTCHAR uni1E64
ENCODING 7780
SWIDTH 504 0
DWIDTH 9 0
BBX 9 16 0 0
BITMAP
051900
0B7800
019000
000000
0ABE00
280B00
340300
380200
2F4000
0BE000
01BD00
001F00
500740
600740
740B00
7FA800
ENDCHAR
STARTCHAR uni1E65
ENCODING 7781
SWIDTH 394 0
DWIDTH 7 0
BBX 7 14 0 0
BITMAP
0400
1DE0
0680
0200
0000
1AA0
3030
7420
3D00
0BD0
01F4
5038
6034
6AA0
ENDCHAR
STARTCHAR uni1E66
ENCODING 7782
SWIDTH 504 0
DWIDTH 9 0
BBX 9 17 0 0
BITMAP
00D000
049400
066400
01E000
000000
0ABE00
280B00
340300
380200
2F4000
0BE000
01BD00
001F00
500740
600740
740B00
7FA800
ENDCHAR
STARTCHAR uni1E67
ENCODING 7783
SWIDTH 394 0
DWIDTH 7 0
BBX 7 14 0 0
BITMAP
0100
2BA0
0EC0
0740
0000
1AA0
3030
7420
3D00
0BD0
01F4
5038
6034
6AA0
ENDCHAR
STARTCHAR uni1E68
ENCODING 7784
SWIDTH 504 0
DWIDTH 9 0
BBX 9 18 0 -3
BITMAP
01D000
01D000
000000
0ABE00
280B00
340300
380200
2F4000
0BE000
01BD00
001F00
500740
600740
740B00
7FA800
000000
01D000
01D000
ENDCHAR
STARTCHAR uni1E69
ENCODING 7785
SWIDTH 394 0
DWIDTH 7 0
BBX 7 15 0 -3
BITMAP
0740
0740
0000
1AA0
3030
7420
3D00
0BD0
01F4
5038
6034
6AA0
0000
0740
0740
ENDCHAR
STARTCHAR uni1E6A
ENCODING 7786
SWIDTH 603 0
DWIDTH 11 0
BBX 11 15 0 0
BITMAP
007400
007400
000000
BEFAF4
907424
807408
007400
007400
007400
007400
007400
007400
007400
00B400
02FE00
ENDCHAR
STARTCHAR uni1E6B
ENCODING 7787
SWIDTH 315 0
DWIDTH 6 0
BBX 6 14 0 0
BITMAP
0E00
0E00
0400
0800
1C00
6E80
1C00
1C00
1C00
1C00
1C00
1C00
1D10
0B80
ENDCHAR
STARTCHAR uni1E6C
ENCODING 7788
SWIDTH 603 0
DWIDTH 11 0
BBX 11 15 0 -3
BITMAP
BEFAF4
907424
807408
007400
007400
007400
007400
007400
007400
007400
00B400
02FE00
000000
007400
007400
ENDCHAR
STARTCHAR uni1E6D
ENCODING 7789
SWIDTH 315 0
DWIDTH 6 0
BBX 6 15 0 -3
BITMAP
0400
0800
1C00
6E80
1C00
1C00
1C00
1C00
1C00
1C00
1D10
0B80
0000
0B40
0740
ENDCHAR
STARTCHAR uni1E6E
ENCODING 7790
SWIDTH 603 0
DWIDTH 11 0
BBX 11 15 0 -3
BITMAP
BEFAF4
907424
807408
007400
007400
007400
007400
007400
007400
007400
00B400
02FE00
000000
000000
02AA00
ENDCHAR
STARTCHAR uni1E6F
ENCODING 7791
SWIDTH 315 0
DWIDTH 6 0
BBX 6 15 0 -3
BITMAP
0400
0800
1C00
6E80
1C00
1C00
1C00
1C00
1C00
1C00
1D10
0B80
0000
0000
6AA0
ENDCHAR
STARTCHAR uni1E70
ENCODING 7792
SWIDTH 603 0
DWIDTH 11 0
BBX 11 16 0 -4
BITMAP
BEFAF4
907424
807408
007400
007400
007400
007400
007400
007400
007400
00B400
02FE00
000000
007400
00DC00
024600
ENDCHAR
STARTCHAR uni1E71
ENCODING 7793
SWIDTH 315 0
DWIDTH 6 0
BBX 6 16 0 -4
BITMAP
0400
0800
1C00
6E80
1C00
1C00
1C00
1C00
1C00
1C00
1D10
0B80
0000
0B40
1DC0
2060
ENDCHAR
STARTCHAR uni1E72
ENCODING 7794
SWIDTH 752 0
DWIDTH 14 0
BBX 13 15 0 -3
BITMAP
7FD03FC0
0F000A00
0E000A00
0E000A00
0E000A00
0E000A00
0E000A00
0E000900
0B000900
0B000800
03802800
01BA9000
00000000
00E0E000
00E0E000
ENDCHAR
STARTCHAR uni1E73
ENCODING 7795
SWIDTH 570 0
DWIDTH 10 0
BBX 10 12 0 -3
BITMAP
6C1B40
1C0340
1C0340
1C0340
1C0340
1C0340
1D0340
0E0B40
07A790
000000
0E0E00
0A0E00
ENDCHAR
STARTCHAR uni1E74
ENCODING 7796
SWIDTH 752 0
DWIDTH 14 0
BBX 13 15 0 -3
BITMAP
7FD03FC0
0F000A00
0E000A00
0E000A00
0E000A00
0E000A00
0E000A00
0E000900
0B000900
0B000800
03802800
01BA9000
00000000
00695000
00468000
ENDCHAR
STARTCHAR uni1E75
ENCODING 7797
SWIDTH 570 0
DWIDTH 10 0
BBX 10 12 0 -3
BITMAP
6C1B40
1C0340
1C0340
1C0340
1C0340
1C0340
1D0340
0E0B40
07A790
000000
069500
046800
ENDCHAR
STARTCHAR uni1E76
ENCODING 7798
SWIDTH 752 0
DWIDTH 14 0
BBX 13 16 0 -4
BITMAP
7FD03FC0
0F000A00
0E000A00
0E000A00
0E000A00
0E000A00
0E000A00
0E000900
0B000900
0B000800
03802800
01BA9000
00000000
000E0000
00264000
00508000
ENDCHAR
STARTCHAR uni1E77
ENCODING 7799
SWIDTH 570 0
DWIDTH 10 0
BBX 10 13 0 -4
BITMAP
6C1B40
1C0340
1C0340
1C0340
1C0340
1C0340
1D0340
0E0B40
07A790
000000
00F000
02A800
060900
ENDCHAR
STARTCHAR uni1E78
ENCODING 7800
SWIDTH 752 0
DWIDTH 14 0
BBX 13 18 0 0
BITMAP
00018000
00074000
00180000
002A6000
00429000
00000000
7FD03FC0
0F000A00
0E000A00
0E000A00
0E000A00
0E000A00
0E000A00
0E000900
0B000900
0B000800
03802800
01BA9000
ENDCHAR
STARTCHAR uni1E79
ENCODING 7801
SWIDTH 570 0
DWIDTH 10 0
BBX 10 16 0 0
BITMAP
003800
007000
009000
000000
029600
046900
000000
6C1B40
1C0340
1C0340
1C0340
1C0340
1C0340
1D0340
0E0B40
07A790
ENDCHAR
STARTCHAR uni1E7A
ENCODING 7802
SWIDTH 752 0
DWIDTH 14 0
BBX 13 17 0 0
BITMAP
00B0B000
00B0B000
00000000
006AA000
00000000
7FD03FC0
0F000A00
0E000A00
0E000A00
0E000A00
0E000A00
0E000A00
0E000900
0B000900
0B000800
03802800
01BA9000
ENDCHAR
STARTCHAR uni1E7B
ENCODING 7803
SWIDTH 570 0
DWIDTH 10 0
BBX 10 14 0 0
BITMAP
0E0E00
0A0E00
000000
06A900
000000
6C1B40
1C0340
1C0340
1C0340
1C0340
1C0340
1D0340
0E0B40
07A790
ENDCHAR
STARTCHAR uni1E7C
ENCODING 7804
SWIDTH 680 0
DWIDTH 12 0
BBX 13 15 0 0
BITMAP
00A58000
010A4000
00000000
FF807F40
2D001C00
1E002800
0B003000
07806000
03C09000
02D08000
00E24000
00B20000
007A0000
002D0000
00180000
ENDCHAR
STARTCHAR uni1E7D
ENCODING 7805
SWIDTH 481 0
DWIDTH 9 0
BBX 10 12 -1 0
BITMAP
01A540
011A00
000000
7F43F0
0E0180
0B0240
074200
038600
01C900
00E800
00B400
007000
ENDCHAR
STARTCHAR uni1E7E
ENCODING 7806
SWIDTH 680 0
DWIDTH 12 0
BBX 13 15 0 -3
BITMAP
FF807F40
2D001C00
1E002800
0B003000
07806000
03C09000
02D08000
00E24000
00B20000
007A0000
002D0000
00180000
00000000
002C0000
002C0000
ENDCHAR
STARTCHAR uni1E7F
ENCODING 7807
SWIDTH 481 0
DWIDTH 9 0
BBX 10 12 -1 -3
BITMAP
7F43F0
0E0180
0B0240
074200
038600
01C900
00E800
00B400
007000
000000
00B400
007400
ENDCHAR
STARTCHAR Wgrave
ENCODING 7808
SWIDTH 944 0
DWIDTH 17 0
BBX 17 16 0 0
BITMAP
0006000000
0002C00000
0000A00000
0000000000
FF4FF42F80
2D02D00A00
1E01E00900
0F00F00C00
0740F41800
0381B82400
02D22C3000
01E21D6000
00F90F9000
007C078000
0038034000
0024020000
ENDCHAR
STARTCHAR wgrave
ENCODING 7809
SWIDTH 749 0
DWIDTH 13 0
BBX 15 13 -1 0
BITMAP
000E0000
00070000
00014000
00000000
7F4FD1F8
0E038060
0B02C090
0742D080
0386A140
01D87200
00E83A00
00B42D00
00701C00
ENDCHAR
STARTCHAR Wacute
ENCODING 7810
SWIDTH 944 0
DWIDTH 17 0
BBX 17 16 0 0
BITMAP
0000600000
0001D00000
0002400000
0000000000
FF4FF42F80
2D02D00A00
1E01E00900
0F00F00C00
0740F41800
0381B82400
02D22C3000
01E21D6000
00F90F9000
007C078000
0038034000
0024020000
ENDCHAR
STARTCHAR wacute
ENCODING 7811
SWIDTH 749 0
DWIDTH 13 0
BBX 15 13 -1 0
BITMAP
0001E000
00028000
00020000
00000000
7F4FD1F8
0E038060
0B02C090
0742D080
0386A140
01D87200
00E83A00
00B42D00
00701C00
ENDCHAR
STARTCHAR Wdieresis
ENCODING 7812
SWIDTH 944 0
DWIDTH 17 0
BBX 17 15 0 0
BITMAP
002C2C0000
002C2C0000
0000000000
FF4FF42F80
2D02D00A00
1E01E00900
0F00F00C00
0740F41800
0381B82400
02D22C3000
01E21D6000
00F90F9000
007C078000
0038034000
0024020000
ENDCHAR
STARTCHAR wdieresis
ENCODING 7813
SWIDTH 749 0
DWIDTH 13 0
BBX 15 12 -1 0
BITMAP
00387800
00383400
00000000
7F4FD1F8
0E038060
0B02C090
0742D080
0386A140
01D87200
00E83A00
00B42D00
00701C00
ENDCHAR
STARTCHAR uni1E86
ENCODING 7814
SWIDTH 944 0
DWIDTH 17 0
BBX 17 15 0 0
BITMAP
0002C00000
0001C00000
0000000000
FF4FF42F80
2D02D00A00
1E01E00900
0F00F00C00
0740F41800
0381B82400
02D22C3000
01E21D6000
00F90F9000
007C078000
0038034000
0024020000
ENDCHAR
STARTCHAR uni1E87
ENCODING 7815
SWIDTH 749 0
DWIDTH 13 0
BBX 15 12 -1 0
BITMAP
00038000
00038000
00000000
7F4FD1F8
0E038060
0B02C090
0742D080
0386A140
01D87200
00E83A00
00B42D00
00701C00
ENDCHAR
STARTCHAR uni1E88
ENCODING 7816
SWIDTH 944 0
DWIDTH 17 0
BBX 17 15 0 -3
BITMAP
FF4FF42F80
2D02D00A00
1E01E00900
0F00F00C00
0740F41800
0381B82400
02D22C3000
01E21D6000
00F90F9000
007C078000
0038034000
0024020000
0000000000
0001E00000
0001D00000
ENDCHAR
STARTCHAR uni1E89
ENCODING 7817
SWIDTH 749 0
DWIDTH 13 0
BBX 15 12 -1 -3
BITMAP
7F4FD1F8
0E038060
0B02C090
0742D080
0386A140
01D87200
00E83A00
00B42D00
00701C00
00000000
00038000
00038000
ENDCHAR
STARTCHAR uni1E8A
ENCODING 7818
SWIDTH 664 0
DWIDTH 12 0
BBX 12 15 0 0
BITMAP
002C00
002C00
000000
BFD1FE
0F4070
0780C0
02D240
00F600
007C00
007D00
008B00
024780
0A02E0
1C00F4
BE02FE
ENDCHAR
STARTCHAR uni1E8B
ENCODING 7819
SWIDTH 479 0
DWIDTH 9 0
BBX 9 12 0 0
BITMAP
01D000
01D000
000000
BF1F40
1D0C00
0B2400
039000
02D000
02B000
083800
241D00
F83F80
ENDCHAR
STARTCHAR uni1E8C
ENCODING 7820
SWIDTH 664 0
DWIDTH 12 0
BBX 12 15 0 0
BITMAP
02C2C0
02C2C0
000000
BFD1FE
0F4070
0780C0
02D240
00F600
007C00
007D00
008B00
024780
0A02E0
1C00F4
BE02FE
ENDCHAR
STARTCHAR uni1E8D
ENCODING 7821
SWIDTH 479 0
DWIDTH 9 0
BBX 9 12 0 0
BITMAP
1D1D00
1D1D00
000000
BF1F40
1D0C00
0B2400
039000
02D000
02B000
083800
241D00
F83F80
ENDCHAR
STARTCHAR uni1E8E
ENCODING 7822
SWIDTH 647 0
DWIDTH 12 0
BBX 12 15 0 0
BITMAP
002C00
002C00
000000
FF80FE
2E0034
0B4090
078180
02D200
00F600
007C00
003800
003800
003800
003C00
02FF40
ENDCHAR
STARTCHAR uni1E8F
ENCODING 7823
SWIDTH 483 0
DWIDTH 9 0
BBX 10 16 -1 -4
BITMAP
007400
007400
000000
7F43E0
0E0180
0B0240
078200
02C600
01D900
00A800
007400
003000
006000
009000
2A8000
2E0000
ENDCHAR
STARTCHAR uni1E90
ENCODING 7824
SWIDTH 594 0
DWIDTH 11 0
BBX 10 16 0 0
BITMAP
001400
00AC00
024600
000000
2FAAF0
2402D0
200780
000F00
002D00
007800
00F000
02D000
078000
0F0020
2D0070
7EABE0
ENDCHAR
STARTCHAR uni1E91
ENCODING 7825
SWIDTH 458 0
DWIDTH 8 0
BBX 8 13 0 0
BITMAP
02D0
0760
0818
0000
3EBE
203C
10B4
01E0
02C0
0740
1E02
2C0A
7EBD
ENDCHAR
STARTCHAR uni1E92
ENCODING 7826
SWIDTH 594 0
DWIDTH 11 0
BBX 10 15 0 -3
BITMAP
2FAAF0
2402D0
200780
000F00
002D00
007800
00F000
02D000
078000
0F0020
2D0070
7EABE0
000000
00B000
00B000
ENDCHAR
STARTCHAR uni1E93
ENCODING 7827
SWIDTH 458 0
DWIDTH 8 0
BBX 8 12 0 -3
BITMAP
3EBE
203C
10B4
01E0
02C0
0740
1E02
2C0A
7EBD
0000
02C0
02C0
ENDCHAR
STARTCHAR uni1E94
ENCODING 7828
SWIDTH 594 0
DWIDTH 11 0
BBX 10 15 0 -3
BITMAP
2FAAF0
2402D0
200780
000F00
002D00
007800
00F000
02D000
078000
0F0020
2D0070
7EABE0
000000
000000
06AA00
ENDCHAR
STARTCHAR uni1E95
ENCODING 7829
SWIDTH 458 0
DWIDTH 8 0
BBX 8 12 0 -3
BITMAP
3EBE
203C
10B4
01E0
02C0
0740
1E02
2C0A
7EBD
0000
0000
1AA8
ENDCHAR
STARTCHAR uni1E96
ENCODING 7830
SWIDTH 577 0
DWIDTH 10 0
BBX 10 16 0 -3
BITMAP
6D0000
1D0000
1D0000
1D0000
1D6E00
1E0740
1D0380
1D0280
1D0280
1D0280
1D0280
1D0380
7F4FE0
000000
000000
06AA00
ENDCHAR
STARTCHAR uni1E97
ENCODING 7831
SWIDTH 315 0
DWIDTH 6 0
BBX 6 14 0 0
BITMAP
E0E0
E0E0
0400
0800
1C00
6E80
1C00
1C00
1C00
1C00
1C00
1C00
1D10
0B80
ENDCHAR
STARTCHAR uni1E98
ENCODING 7832
SWIDTH 749 0
DWIDTH 13 0
BBX 15 14 -1 0
BITMAP
00068000
00085000
00085000
00068000
00000000
7F4FD1F8
0E038060
0B02C090
0742D080
0386A140
01D87200
00E83A00
00B42D00
00701C00
ENDCHAR
STARTCHAR uni1E99
ENCODING 7833
SWIDTH 483 0
DWIDTH 9 0
BBX 10 18 -1 -4
BITMAP
006800
008500
008500
006800
000000
7F43E0
0E0180
0B0240
078200
02C600
01D900
00A800
007400
003000
006000
009000
2A8000
2E0000
ENDCHAR
STARTCHAR uni1E9A
ENCODING 7834
SWIDTH 480 0
DWIDTH 9 0
BBX 9 14 0 0
BITMAP
028000
005000
005000
028000
000000
0AE000
283800
382C00
002C00
06AC00
2D2C00
742C00
742C00
2E5E40
ENDCHAR
STARTCHAR uni1E9B
ENCODING 7835
SWIDTH 285 0
DWIDTH 5 0
BBX 7 16 0 0
BITMAP
1E00
0D00
0000
02F4
0928
0D00
0D00
6D00
0D00
0D00
0D00
0D00
0D00
0D00
1D00
BF80
ENDCHAR
STARTCHAR uni1E9C
ENCODING 7836
SWIDTH 300 0
DWIDTH 5 0
BBX 7 13 0 0
BITMAP
02B8
0A28
0E00
0E00
6E00
0E80
0E00
2E00
4E00
0E00
0E00
0E00
7FD0
ENDCHAR
STARTCHAR uni1E9D
ENCODING 7837
SWIDTH 285 0
DWIDTH 5 0
BBX 7 13 0 0
BITMAP
02B4
0924
6F80
0D00
6D00
0D00
0D00
0D00
0D00
0D00
0D00
1D00
BF80
ENDCHAR
STARTCHAR uni1E9E
ENCODING 7838
SWIDTH 684 0
DWIDTH 12 0
BBX 12 12 0 0
BITMAP
00AAA4
03C078
0B40F0
0B02D0
0E0780
0E0B90
0E0078
0E001D
0E001E
0E101D
0E742C
7E2EA0
ENDCHAR
STARTCHAR uni1E9F
ENCODING 7839
SWIDTH 517 0
DWIDTH 9 0
BBX 9 14 0 0
BITMAP
02A900
0E0B00
0D0100
0B4000
02D000
01F800
0A2E00
2C0B40
780780
740380
740380
380740
2D0A00
07A800
ENDCHAR
STARTCHAR uni1EA0
ENCODING 7840
SWIDTH 718 0
DWIDTH 13 0
BBX 13 15 0 -3
BITMAP
001C0000
002D0000
002E0000
00974000
00C38000
0182C000
0201E000
07AAF000
09007400
0C003C00
28002D00
BE00BF80
00000000
002C0000
00280000
ENDCHAR
STARTCHAR uni1EA1
ENCODING 7841
SWIDTH 480 0
DWIDTH 9 0
BBX 9 12 0 -3
BITMAP
0AE000
283800
382C00
002C00
06AC00
2D2C00
742C00
742C00
2E5E40
000000
02C000
02C000
ENDCHAR
STARTCHAR uni1EA2
ENCODING 7842
SWIDTH 718 0
DWIDTH 13 0
BBX 13 17 0 0
BITMAP
002A0000
00234000
00030000
00080000
00000000
001C0000
002D0000
002E0000
00974000
00C38000
0182C000
0201E000
07AAF000
09007400
0C003C00
28002D00
BE00BF80
ENDCHAR
STARTCHAR uni1EA3
ENCODING 7843
SWIDTH 480 0
DWIDTH 9 0
BBX 9 14 0 0
BITMAP
029000
013000
006000
018000
000000
0AE000
283800
382C00
002C00
06AC00
2D2C00
742C00
742C00
2E5E40
ENDCHAR
STARTCHAR uni1EA4
ENCODING 7844
SWIDTH 718 0
DWIDTH 13 0
BBX 13 17 0 0
BITMAP
00000900
00183800
003A4000
00818000
00000000
001C0000
002D0000
002E0000
00974000
00C38000
0182C000
0201E000
07AAF000
09007400
0C003C00
28002D00
BE00BF80
ENDCHAR
STARTCHAR uni1EA5
ENCODING 7845
SWIDTH 480 0
DWIDTH 9 0
BBX 9 14 0 0
BITMAP
000240
000600
02D800
0A6000
040400
0AE000
283800
382C00
002C00
06AC00
2D2C00
742C00
742C00
2E5E40
ENDCHAR
STARTCHAR uni1EA6
ENCODING 7846
SWIDTH 718 0
DWIDTH 13 0
BBX 13 17 0 0
BITMAP
0002D000
00196000
007B1400
00818000
00000000
001C0000
002D0000
002E0000
00974000
00C38000
0182C000
0201E000
07AAF000
09007400
0C003C00
28002D00
BE00BF80
ENDCHAR
STARTCHAR uni1EA7
ENCODING 7847
SWIDTH 480 0
DWIDTH 9 0
BBX 9 14 0 0
BITMAP
007400
001800
02D400
092400
000000
0AE000
283800
382C00
002C00
06AC00
2D2C00
742C00
742C00
2E5E40
ENDCHAR
STARTCHAR uni1EA8
ENCODING 7848
SWIDTH 718 0
DWIDTH 13 0
BBX 13 18 0 0
BITMAP
0001A000
00022400
00002400
002E8000
00924000
00404000
001C0000
002D0000
002E0000
00974000
00C38000
0182C000
0201E000
07AAF000
09007400
0C003C00
28002D00
BE00BF80
ENDCHAR
STARTCHAR uni1EA9
ENCODING 7849
SWIDTH 480 0
DWIDTH 9 0
BBX 9 15 0 0
BITMAP
002A00
002300
000600
02D800
092000
000000
0AE000
283800
382C00
002C00
06AC00
2D2C00
742C00
742C00
2E5E40
ENDCHAR
STARTCHAR uni1EAA
ENCODING 7850
SWIDTH 718 0
DWIDTH 13 0
BBX 13 17 0 0
BITMAP
00AA8000
00180000
003B0000
00918000
00000000
001C0000
002D0000
002E0000
00974000
00C38000
0182C000
0201E000
07AAF000
09007400
0C003C00
28002D00
BE00BF80
ENDCHAR
STARTCHAR uni1EAB
ENCODING 7851
SWIDTH 480 0
DWIDTH 9 0
BBX 9 14 0 0
BITMAP
1AA800
000000
02C000
06A000
081400
0AE000
283800
382C00
002C00
06AC00
2D2C00
742C00
742C00
2E5E40
ENDCHAR
STARTCHAR uni1EAC
ENCODING 7852
SWIDTH 718 0
DWIDTH 13 0
BBX 13 19 0 -3
BITMAP
00180000
003A0000
00918000
00000000
001C0000
002D0000
002E0000
00974000
00C38000
0182C000
0201E000
07AAF000
09007400
0C003C00
28002D00
BE00BF80
00000000
002C0000
00280000
ENDCHAR
STARTCHAR uni1EAD
ENCODING 7853
SWIDTH 480 0
DWIDTH 9 0
BBX 9 16 0 -3
BITMAP
02C000
066000
081400
000000
0AE000
283800
382C00
002C00
06AC00
2D2C00
742C00
742C00
2E5E40
000000
02C000
02C000
ENDCHAR
STARTCHAR uni1EAE
ENCODING 7854
SWIDTH 718 0
DWIDTH 13 0
BBX 13 17 0 0
BITMAP
00064000
01598000
00918000
007F4000
00000000
001C0000
002D0000
002E0000
00974000
00C38000
0182C000
0201E000
07AAF000
09007400
0C003C00
28002D00
BE00BF80
ENDCHAR
STARTCHAR uni1EAF
ENCODING 7855
SWIDTH 480 0
DWIDTH 9 0
BBX 9 14 0 0
BITMAP
005000
00D000
158800
191400
0BE000
0AE000
283800
382C00
002C00
06AC00
2D2C00
742C00
742C00
2E5E40
ENDCHAR
STARTCHAR uni1EB0
ENCODING 7856
SWIDTH 718 0
DWIDTH 13 0
BBX 13 17 0 0
BITMAP
00640000
01588000
00818000
007F4000
00000000
001C0000
002D0000
002E0000
00974000
00C38000
0182C000
0201E000
07AAF000
09007400
0C003C00
28002D00
BE00BF80
ENDCHAR
STARTCHAR uni1EB1
ENCODING 7857
SWIDTH 480 0
DWIDTH 9 0
BBX 9 14 0 0
BITMAP
050000
074000
158800
181400
0BE000
0AE000
283800
382C00
002C00
06AC00
2D2C00
742C00
742C00
2E5E40
ENDCHAR
STARTCHAR uni1EB2
ENCODING 7858
SWIDTH 718 0
DWIDTH 13 0
BBX 13 19 0 0
BITMAP
002A0000
00230000
00030000
01488000
00818000
006A0000
00000000
001C0000
002D0000
002E0000
00974000
00C38000
0182C000
0201E000
07AAF000
09007400
0C003C00
28002D00
BE00BF80
ENDCHAR
STARTCHAR uni1EB3
ENCODING 7859
SWIDTH 480 0
DWIDTH 9 0
BBX 9 15 0 0
BITMAP
029000
056000
006000
154800
081400
06A000
0AE000
283800
382C00
002C00
06AC00
2D2C00
742C00
742C00
2E5E40
ENDCHAR
STARTCHAR uni1EB4
ENCODING 7860
SWIDTH 718 0
DWIDTH 13 0
BBX 13 18 0 0
BITMAP
00A44000
014A4000
00404000
00818000
006A0000
00000000
001C0000
002D0000
002E0000
00974000
00C38000
0182C000
0201E000
07AAF000
09007400
0C003C00
28002D00
BE00BF80
ENDCHAR
STARTCHAR uni1EB5
ENCODING 7861
SWIDTH 480 0
DWIDTH 9 0
BBX 9 14 0 0
BITMAP
1AA400
000000
140800
081400
06A000
0AE000
283800
382C00
002C00
06AC00
2D2C00
742C00
742C00
2E5E40
ENDCHAR
STARTCHAR uni1EB6
ENCODING 7862
SWIDTH 718 0
DWIDTH 13 0
BBX 13 19 0 -3
BITMAP
01408000
00818000
006A0000
00000000
001C0000
002D0000
002E0000
00974000
00C38000
0182C000
0201E000
07AAF000
09007400
0C003C00
28002D00
BE00BF80
00000000
002C0000
00280000
ENDCHAR
STARTCHAR uni1EB7
ENCODING 7863
SWIDTH 480 0
DWIDTH 9 0
BBX 9 16 0 -3
BITMAP
140800
081400
069000
000000
0AE000
283800
382C00
002C00
06AC00
2D2C00
742C00
742C00
2E5E40
000000
02C000
02C000
ENDCHAR
STARTCHAR uni1EB8
ENCODING 7864
SWIDTH 626 0
DWIDTH 11 0
BBX 11 15 0 -3
BITMAP
6FABF0
0B0020
0B0010
0B0080
0B0180
0BAB80
0B0080
0B0000
0B0008
0B0018
0B0024
6FABF4
000000
003800
003800
ENDCHAR
STARTCHAR uni1EB9
ENCODING 7865
SWIDTH 464 0
DWIDTH 8 0
BBX 8 12 0 -3
BITMAP
06A4
282C
340E
7AAE
7000
7400
3801
2E59
07F4
0000
02D0
01D0
ENDCHAR
STARTCHAR uni1EBA
ENCODING 7866
SWIDTH 626 0
DWIDTH 11 0
BBX 11 17 0 0
BITMAP
006800
005A00
000900
002400
000000
6FABF0
0B0020
0B0010
0B0080
0B0180
0BAB80
0B0080
0B0000
0B0008
0B0018
0B0024
6FABF4
ENDCHAR
STARTCHAR uni1EBB
ENCODING 7867
SWIDTH 464 0
DWIDTH 8 0
BBX 8 14 0 0
BITMAP
01A0
0234
0030
0080
0000
06A4
282C
340E
7AAE
7000
7400
3801
2E59
07F4
ENDCHAR
STARTCHAR uni1EBC
ENCODING 7868
SWIDTH 626 0
DWIDTH 11 0
BBX 11 15 0 0
BITMAP
01A540
011A00
000000
6FABF0
0B0020
0B0010
0B0080
0B0180
0BAB80
0B0080
0B0000
0B0008
0B0018
0B0024
6FABF4
ENDCHAR
STARTCHAR uni1EBD
ENCODING 7869
SWIDTH 464 0
DWIDTH 8 0
BBX 8 12 0 0
BITMAP
0A94
14A8
0000
06A4
282C
340E
7AAE
7000
7400
3801
2E59
07F4
ENDCHAR
STARTCHAR uni1EBE
ENCODING 7870
SWIDTH 626 0
DWIDTH 11 0
BBX 11 17 0 0
BITMAP
000014
0014A0
00AD40
014200
000000
6FABF0
0B0020
0B0010
0B0080
0B0180
0BAB80
0B0080
0B0000
0B0008
0B0018
0B0024
6FABF4
ENDCHAR
STARTCHAR uni1EBF
ENCODING 7871
SWIDTH 464 0
DWIDTH 8 0
BBX 9 14 0 0
BITMAP
000140
000700
02D800
066000
040400
06A400
282C00
340E00
7AAE00
700000
740000
380100
2E5900
07F400
ENDCHAR
STARTCHAR uni1EC0
ENCODING 7872
SWIDTH 626 0
DWIDTH 11 0
BBX 11 17 0 0
BITMAP
000780
0029D0
00AD10
024200
000000
6FABF0
0B0020
0B0010
0B0080
0B0180
0BAB80
0B0080
0B0000
0B0008
0B0018
0B0024
6FABF4
ENDCHAR
STARTCHAR uni1EC1
ENCODING 7873
SWIDTH 464 0
DWIDTH 8 0
BBX 8 14 0 0
BITMAP
0038
001C
02D5
0924
0000
06A4
282C
340E
7AAE
7000
7400
3801
2E59
07F4
ENDCHAR
STARTCHAR uni1EC2
ENCODING 7874
SWIDTH 626 0
DWIDTH 11 0
BBX 11 18 0 0
BITMAP
000290
000570
000060
007D40
018600
010100
6FABF0
0B0020
0B0010
0B0080
0B0180
0BAB80
0B0080
0B0000
0B0008
0B0018
0B0024
6FABF4
ENDCHAR
STARTCHAR uni1EC3
ENCODING 7875
SWIDTH 464 0
DWIDTH 8 0
BBX 9 15 0 0
BITMAP
001A00
002240
000200
02D800
092400
000000
06A400
282C00
340E00
7AAE00
700000
740000
380100
2E5900
07F400
ENDCHAR
STARTCHAR uni1EC4
ENCODING 7876
SWIDTH 626 0
DWIDTH 11 0
BBX 11 17 0 0
BITMAP
01AA40
002400
00AD00
018200
000000
6FABF0
0B0020
0B0010
0B0080
0B0180
0BAB80
0B0080
0B0000
0B0008
0B0018
0B0024
6FABF4
ENDCHAR
STARTCHAR uni1EC5
ENCODING 7877
SWIDTH 464 0
DWIDTH 8 0
BBX 8 14 0 0
BITMAP
0AA8
0000
02D0
0770
0818
06A4
282C
340E
7AAE
7000
7400
3801
2E59
07F4
ENDCHAR
STARTCHAR uni1EC6
ENCODING 7878
SWIDTH 626 0
DWIDTH 11 0
BBX 11 19 0 -3
BITMAP
001400
00AD00
018200
000000
6FABF0
0B0020
0B0010
0B0080
0B0180
0BAB80
0B0080
0B0000
0B0008
0B0018
0B0024
6FABF4
000000
003800
003800
ENDCHAR
STARTCHAR uni1EC7
ENCODING 7879
SWIDTH 464 0
DWIDTH 8 0
BBX 8 16 0 -3
BITMAP
02D0
0770
0818
0000
06A4
282C
340E
7AAE
7000
7400
3801
2E59
07F4
0000
02D0
01D0
ENDCHAR
STARTCHAR uni1EC8
ENCODING 7880
SWIDTH 357 0
DWIDTH 6 0
BBX 6 17 0 0
BITMAP
0A40
08C0
0180
0200
0000
7FE0
0B00
0B00
0B00
0B00
0B00
0B00
0B00
0B00
0B00
0B00
7FE0
ENDCHAR
STARTCHAR uni1EC9
ENCODING 7881
SWIDTH 285 0
DWIDTH 5 0
BBX 5 14 0 0
BITMAP
2900
2300
0300
0800
0000
6D00
1D00
0D00
0D00
0D00
0D00
0D00
1D00
7F40
ENDCHAR
STARTCHAR uni1ECA
ENCODING 7882
SWIDTH 357 0
DWIDTH 6 0
BBX 6 15 0 -3
BITMAP
7FE0
0B00
0B00
0B00
0B00
0B00
0B00
0B00
0B00
0B00
0B00
7FE0
0000
0B00
0B00
ENDCHAR
STARTCHAR uni1ECB
ENCODING 7883
SWIDTH 285 0
DWIDTH 5 0
BBX 5 15 0 -3
BITMAP
1D00
1D00
0000
6D00
1D00
0D00
0D00
0D00
0D00
0D00
1D00
7F40
0000
1D00
1D00
ENDCHAR
STARTCHAR uni1ECC
ENCODING 7884
SWIDTH 738 0
DWIDTH 13 0
BBX 12 15 1 -3
BITMAP
06AA40
1D01E0
780074
B0003C
F0002D
F0002D
F0002D
F0002D
B4003C
780074
1D01E0
06AA40
000000
007800
007400
ENDCHAR
STARTCHAR uni1ECD
ENCODING 7885
SWIDTH 514 0
DWIDTH 9 0
BBX 9 12 0 -3
BITMAP
06B800
1C0A00
380740
740380
740380
740380
380740
2D0A00
07A800
000000
01E000
00D000
ENDCHAR
STARTCHAR uni1ECE
ENCODING 7886
SWIDTH 738 0
DWIDTH 13 0
BBX 12 17 1 0
BITMAP
006800
008900
000900
002000
000000
06AA40
1D01E0
780074
B0003C
F0002D
F0002D
F0002D
F0002D
B4003C
780074
1D01E0
06AA40
ENDCHAR
STARTCHAR uni1ECF
ENCODING 7887
SWIDTH 514 0
DWIDTH 9 0
BBX 9 14 0 0
BITMAP
01A000
012800
002400
009000
000000
06B800
1C0A00
380740
740380
740380
740380
380740
2D0A00
07A800
ENDCHAR
STARTCHAR uni1ED0
ENCODING 7888
SWIDTH 738 0
DWIDTH 13 0
BBX 12 17 1 0
BITMAP
000014
0014A0
00AD40
024200
000000
06AA40
1D01E0
780074
B0003C
F0002D
F0002D
F0002D
F0002D
B4003C
780074
1D01E0
06AA40
ENDCHAR
STARTCHAR uni1ED1
ENCODING 7889
SWIDTH 514 0
DWIDTH 9 0
BBX 9 14 0 0
BITMAP
000140
000340
01E500
026400
040400
06B800
1C0A00
380740
740380
740380
740380
380740
2D0A00
07A800
ENDCHAR
STARTCHAR uni1ED2
ENCODING 7890
SWIDTH 738 0
DWIDTH 13 0
BBX 12 17 1 0
BITMAP
000740
0065C0
00ED10
024200
000000
06AA40
1D01E0
780074
B0003C
F0002D
F0002D
F0002D
F0002D
B4003C
780074
1D01E0
06AA40
ENDCHAR
STARTCHAR uni1ED3
ENCODING 7891
SWIDTH 514 0
DWIDTH 9 0
BBX 9 14 0 0
BITMAP
002C00
000900
01E100
061800
000000
06B800
1C0A00
380740
740380
740380
740380
380740
2D0A00
07A800
ENDCHAR
STARTCHAR uni1ED4
ENCODING 7892
SWIDTH 738 0
DWIDTH 13 0
BBX 12 18 1 0
BITMAP
000290
000560
000060
007940
018600
010100
06AA40
1D01E0
780074
B0003C
F0002D
F0002D
F0002D
F0002D
B4003C
780074
1D01E0
06AA40
ENDCHAR
STARTCHAR uni1ED5
ENCODING 7893
SWIDTH 514 0
DWIDTH 9 0
BBX 9 15 0 0
BITMAP
001A40
001580
000240
01E500
061800
000000
06B800
1C0A00
380740
740380
740380
740380
380740
2D0A00
07A800
ENDCHAR
STARTCHAR uni1ED6
ENCODING 7894
SWIDTH 738 0
DWIDTH 13 0
BBX 12 17 1 0
BITMAP
01AA00
002400
00AD00
024600
000000
06AA40
1D01E0
780074
B0003C
F0002D
F0002D
F0002D
F0002D
B4003C
780074
1D01E0
06AA40
ENDCHAR
STARTCHAR uni1ED7
ENCODING 7895
SWIDTH 514 0
DWIDTH 9 0
BBX 9 14 0 0
BITMAP
06A900
000000
01E000
027400
050800
06B800
1C0A00
380740
740380
740380
740380
380740
2D0A00
07A800
ENDCHAR
STARTCHAR uni1ED8
ENCODING 7896
SWIDTH 738 0
DWIDTH 13 0
BBX 12 19 1 -3
BITMAP
001400
00AC00
024600
000000
06AA40
1D01E0
780074
B0003C
F0002D
F0002D
F0002D
F0002D
B4003C
780074
1D01E0
06AA40
000000
007800
007400
ENDCHAR
STARTCHAR uni1ED9
ENCODING 7897
SWIDTH 514 0
DWIDTH 9 0
BBX 9 16 0 -3
BITMAP
01E000
026400
050800
000000
06B800
1C0A00
380740
740380
740380
740380
380740
2D0A00
07A800
000000
01E000
00D000
ENDCHAR
STARTCHAR uni1EDA
ENCODING 7898
SWIDTH 737 0
DWIDTH 13 0
BBX 12 16 1 0
BITMAP
001900
00380E
00900A
00000A
06AFE8
1D01E0
780074
B0003C
F0002D
E0002D
E0002D
F0002C
B0003C
780074
1D01E0
06AA40
ENDCHAR
STARTCHAR uni1EDB
ENCODING 7899
SWIDTH 516 0
DWIDTH 9 0
BBX 9 13 0 0
BITMAP
007400
00A1C0
0081C0
0000C0
06BE40
1C0A00
380740
740380
740380
740380
380740
2D0A00
07A800
ENDCHAR
STARTCHAR uni1EDC
ENCODING 7900
SWIDTH 737 0
DWIDTH 13 0
BBX 12 16 1 0
BITMAP
009000
00B40E
00180A
00000A
06AFE8
1D01E0
780074
B0003C
F0002D
E0002D
E0002D
F0002C
B0003C
780074
1D01E0
06AA40
ENDCHAR
STARTCHAR uni1EDD
ENCODING 7901
SWIDTH 516 0
DWIDTH 9 0
BBX 9 13 0 0
BITMAP
038000
01C1C0
0051C0
0000C0
06BE40
1C0A00
380740
740380
740380
740380
380740
2D0A00
07A800
ENDCHAR
STARTCHAR uni1EDE
ENCODING 7902
SWIDTH 737 0
DWIDTH 13 0
BBX 12 17 1 0
BITMAP
006800
008900
00090E
00200A
00000A
06AFE8
1D01E0
780074
B0003C
F0002D
E0002D
E0002D
F0002C
B0003C
780074
1D01E0
06AA40
ENDCHAR
STARTCHAR uni1EDF
ENCODING 7903
SWIDTH 516 0
DWIDTH 9 0
BBX 9 14 0 0
BITMAP
01A000
012800
0025C0
0091C0
0000C0
06BE40
1C0A00
380740
740380
740380
740380
380740
2D0A00
07A800
ENDCHAR
STARTCHAR uni1EE0
ENCODING 7904
SWIDTH 737 0
DWIDTH 13 0
BBX 12 15 1 0
BITMAP
01A54E
011A0A
00000A
06AFE8
1D01E0
780074
B0003C
F0002D
E0002D
E0002D
F0002C
B0003C
780074
1D01E0
06AA40
ENDCHAR
STARTCHAR uni1EE1
ENCODING 7905
SWIDTH 516 0
DWIDTH 9 0
BBX 9 12 0 0
BITMAP
0A8580
0469C0
0000C0
06BE40
1C0A00
380740
740380
740380
740380
380740
2D0A00
07A800
ENDCHAR
STARTCHAR uni1EE2
ENCODING 7906
SWIDTH 737 0
DWIDTH 13 0
BBX 12 18 1 -3
BITMAP
00000E
00000A
00000A
06AFE8
1D01E0
780074
B0003C
F0002D
E0002D
E0002D
F0002C
B0003C
780074
1D01E0
06AA40
000000
007400
007400
ENDCHAR
STARTCHAR uni1EE3
ENCODING 7907
SWIDTH 516 0
DWIDTH 9 0
BBX 9 15 0 -3
BITMAP
0001C0
0001C0
0000C0
06BE40
1C0A00
380740
740380
740380
740380
380740
2D0A00
07A800
000000
01E000
00D000
ENDCHAR
STARTCHAR uni1EE4
ENCODING 7908
SWIDTH 752 0
DWIDTH 14 0
BBX 13 15 0 -3
BITMAP
7FD03FC0
0F000A00
0E000A00
0E000A00
0E000A00
0E000A00
0E000A00
0E000900
0B000900
0B000800
03802800
01BA9000
00000000
000E0000
000E0000
ENDCHAR
STARTCHAR uni1EE5
ENCODING 7909
SWIDTH 570 0
DWIDTH 10 0
BBX 10 12 0 -3
BITMAP
6C1B40
1C0340
1C0340
1C0340
1C0340
1C0340
1D0340
0E0B40
07A790
000000
00E000
00A000
ENDCHAR
STARTCHAR uni1EE6
ENCODING 7910
SWIDTH 752 0
DWIDTH 14 0
BBX 13 17 0 0
BITMAP
000A4000
0008C000
00018000
00060000
00000000
7FD03FC0
0F000A00
0E000A00
0E000A00
0E000A00
0E000A00
0E000A00
0E000900
0B000900
0B000800
03802800
01BA9000
ENDCHAR
STARTCHAR uni1EE7
ENCODING 7911
SWIDTH 570 0
DWIDTH 10 0
BBX 10 14 0 0
BITMAP
00A400
015800
001800
005000
000000
6C1B40
1C0340
1C0340
1C0340
1C0340
1C0340
1D0340
0E0B40
07A790
ENDCHAR
STARTCHAR uni1EE8
ENCODING 7912
SWIDTH 762 0
DWIDTH 14 0
BBX 15 16 0 0
BITMAP
00018014
00074038
00180028
00000024
7FD03F40
0F000A00
0E000A00
0E000A00
0E000A00
0E000A00
0E000A00
0E000900
0B000900
0B000800
03801800
01BA9000
ENDCHAR
STARTCHAR uni1EE9
ENCODING 7913
SWIDTH 574 0
DWIDTH 10 0
BBX 11 13 0 0
BITMAP
003800
00A010
008034
000024
6C1BE0
2C0740
1C0340
1C0340
1C0340
1C0340
1D0340
0E0740
07A790
ENDCHAR
STARTCHAR uni1EEA
ENCODING 7914
SWIDTH 762 0
DWIDTH 14 0
BBX 15 16 0 0
BITMAP
00180014
001A0038
00028028
00000024
7FD03F40
0F000A00
0E000A00
0E000A00
0E000A00
0E000A00
0E000A00
0E000900
0B000900
0B000800
03801800
01BA9000
ENDCHAR
STARTCHAR uni1EEB
ENCODING 7915
SWIDTH 574 0
DWIDTH 10 0
BBX 11 13 0 0
BITMAP
038000
01D010
006034
000024
6C1BE0
2C0740
1C0340
1C0340
1C0340
1C0340
1D0340
0E0740
07A790
ENDCHAR
STARTCHAR uni1EEC
ENCODING 7916
SWIDTH 762 0
DWIDTH 14 0
BBX 15 17 0 0
BITMAP
000A4000
0008C014
00018038
00060028
00000024
7FD03F40
0F000A00
0E000A00
0E000A00
0E000A00
0E000A00
0E000A00
0E000900
0B000900
0B000800
03801800
01BA9000
ENDCHAR
STARTCHAR uni1EED
ENCODING 7917
SWIDTH 574 0
DWIDTH 10 0
BBX 11 14 0 0
BITMAP
01A400
015800
002410
005034
000024
6C1BE0
2C0740
1C0340
1C0340
1C0340
1C0340
1D0340
0E0740
07A790
ENDCHAR
STARTCHAR uni1EEE
ENCODING 7918
SWIDTH 762 0
DWIDTH 14 0
BBX 15 16 0 0
BITMAP
00000014
002A5038
00429028
00000024
7FD03F40
0F000A00
0E000A00
0E000A00
0E000A00
0E000A00
0E000A00
0E000900
0B000900
0B000800
03801800
01BA9000
ENDCHAR
STARTCHAR uni1EEF
ENCODING 7919
SWIDTH 574 0
DWIDTH 10 0
BBX 11 12 0 0
BITMAP
069510
046834
000024
6C1BE0
2C0740
1C0340
1C0340
1C0340
1C0340
1D0340
0E0740
07A790
ENDCHAR
STARTCHAR uni1EF0
ENCODING 7920
SWIDTH 762 0
DWIDTH 14 0
BBX 15 19 0 -3
BITMAP
00000014
00000038
00000028
00000024
7FD03F40
0F000A00
0E000A00
0E000A00
0E000A00
0E000A00
0E000A00
0E000900
0B000900
0B000800
03801800
01BA9000
00000000
000E0000
000E0000
ENDCHAR
STARTCHAR uni1EF1
ENCODING 7921
SWIDTH 574 0
DWIDTH 10 0
BBX 11 15 0 -3
BITMAP
000010
000034
000024
6C1BE0
2C0740
1C0340
1C0340
1C0340
1C0340
1D0340
0E0740
07A790
000000
00E000
00E000
ENDCHAR
STARTCHAR Ygrave
ENCODING 7922
SWIDTH 647 0
DWIDTH 12 0
BBX 12 16 0 0
BITMAP
005000
007800
000900
000000
FF80FE
2E0034
0B4090
078180
02D200
00F600
007C00
003800
003800
003800
003C00
02FF40
ENDCHAR
STARTCHAR ygrave
ENCODING 7923
SWIDTH 483 0
DWIDTH 9 0
BBX 10 17 -1 -4
BITMAP
00E000
007000
001400
000000
7F43E0
0E0180
0B0240
078200
02C600
01D900
00A800
007400
003000
006000
009000
2A8000
2E0000
ENDCHAR
STARTCHAR uni1EF4
ENCODING 7924
SWIDTH 647 0
DWIDTH 12 0
BBX 12 15 0 -3
BITMAP
FF80FE
2E0034
0B4090
078180
02D200
00F600
007C00
003800
003800
003800
003C00
02FF40
000000
003800
003800
ENDCHAR
STARTCHAR uni1EF5
ENCODING 7925
SWIDTH 483 0
DWIDTH 9 0
BBX 10 13 -1 -4
BITMAP
7F43E0
0E0180
0B0240
078200
02C600
01D900
00A800
007400
003000
006000
009B00
2A8A00
2E0000
ENDCHAR
STARTCHAR uni1EF6
ENCODING 7926
SWIDTH 647 0
DWIDTH 12 0
BBX 12 17 0 0
BITMAP
002900
001700
000600
001800
000000
FF80FE
2E0034
0B4090
078180
02D200
00F600
007C00
003800
003800
003800
003C00
02FF40
ENDCHAR
STARTCHAR uni1EF7
ENCODING 7927
SWIDTH 483 0
DWIDTH 9 0
BBX 10 18 -1 -4
BITMAP
006800
004900
000900
002400
000000
7F43E0
0E0180
0B0240
078200
02C600
01D900
00A800
007400
003000
006000
009000
2A8000
2E0000
ENDCHAR
STARTCHAR uni1EF8
ENCODING 7928
SWIDTH 647 0
DWIDTH 12 0
BBX 12 15 0 0
BITMAP
00A580
010A40
000000
FF80FE
2E0034
0B4090
078180
02D200
00F600
007C00
003800
003800
003800
003C00
02FF40
ENDCHAR
STARTCHAR uni1EF9
ENCODING 7929
SWIDTH 483 0
DWIDTH 9 0
BBX 10 16 -1 -4
BITMAP
01A540
011A00
000000
7F43E0
0E0180
0B0240
078200
02C600
01D900
00A800
007400
003000
006000
009000
2A8000
2E0000
ENDCHAR
STARTCHAR uni2000
ENCODING 8192
SWIDTH 500 0
DWIDTH 9 0
BBX 1 1 0 0
BITMAP
00
ENDCHAR
STARTCHAR uni2001
ENCODING 8193
SWIDTH 1000 0
DWIDTH 18 0
BBX 1 1 0 0
BITMAP
00
ENDCHAR
STARTCHAR uni2002
ENCODING 8194
SWIDTH 500 0
DWIDTH 9 0
BBX 1 1 0 0
BITMAP
00
ENDCHAR
STARTCHAR uni2003
ENCODING 8195
SWIDTH 1000 0
DWIDTH 18 0
BBX 1 1 0 0
BITMAP
00
ENDCHAR
STARTCHAR uni2004
ENCODING 8196
SWIDTH 334 0
DWIDTH 6 0
BBX 1 1 0 0
BITMAP
00
ENDCHAR
STARTCHAR uni2005
ENCODING 8197
SWIDTH 250 0
DWIDTH 5 0
BBX 1 1 0 0
BITMAP
00
ENDCHAR
STARTCHAR uni2006
ENCODING 8198
SWIDTH 167 0
DWIDTH 3 0
BBX 1 1 0 0
BITMAP
00
ENDCHAR
STARTCHAR uni2007
ENCODING 8199
SWIDTH 560 0
DWIDTH 10 0
BBX 1 1 0 0
BITMAP
00
ENDCHAR
STARTCHAR uni2008
ENCODING 8200
SWIDTH 297 0
DWIDTH 5 0
BBX 1 1 0 0
BITMAP
00
ENDCHAR
STARTCHAR uni2009
ENCODING 8201
SWIDTH 125 0
DWIDTH 2 0
BBX 1 1 0 0
BITMAP
00
ENDCHAR
STARTCHAR uni200A
ENCODING 8202
SWIDTH 63 0
DWIDTH 1 0
BBX 1 1 0 0
BITMAP
00
ENDCHAR
STARTCHAR uni200B
ENCODING 8203
SWIDTH 0 0
DWIDTH 0 0
BBX 1 1 0 0
BITMAP
00
ENDCHAR
STARTCHAR uni200C
ENCODING 8204
SWIDTH 0 0
DWIDTH 0 0
BBX 2 19 -1 -5
BITMAP
50
50
50
50
50
50
50
50
50
50
50
50
50
50
50
50
50
50
50
ENDCHAR
STARTCHAR uni200D
ENCODING 8205
SWIDTH 0 0
DWIDTH 0 0
BBX 4 21 -2 -5
BITMAP
82
28
55
55
14
14
14
14
14
14
14
14
14
14
14
14
14
14
14
14
14
ENDCHAR
STARTCHAR uni2010
ENCODING 8208
SWIDTH 315 0
DWIDTH 6 0
BBX 4 1 1 4
BITMAP
AA
ENDCHAR
STARTCHAR uni2011
ENCODING 8209
SWIDTH 315 0
DWIDTH 6 0
BBX 4 1 1 4
BITMAP
AA
ENDCHAR
STARTCHAR figuredash
ENCODING 8210
SWIDTH 495 0
DWIDTH 9 0
BBX 9 1 0 4
BITMAP
6AAA40
ENDCHAR
STARTCHAR endash
ENCODING 8211
SWIDTH 500 0
DWIDTH 9 0
BBX 9 1 0 4
BITMAP
6AAA40
ENDCHAR
STARTCHAR emdash
ENCODING 8212
SWIDTH 1000 0
DWIDTH 18 0
BBX 18 1 0 4
BITMAP
6AAAAAAA90
ENDCHAR
STARTCHAR uni2015
ENCODING 8213
SWIDTH 940 0
DWIDTH 17 0
BBX 17 1 0 4
BITMAP
AAAAAAAA80
ENDCHAR
STARTCHAR uni2016
ENCODING 8214
SWIDTH 427 0
DWIDTH 8 0
BBX 4 17 2 -4
BITMAP
C6
C6
C6
C6
C6
C6
C6
C6
C6
C6
C6
C6
C6
C6
C6
C6
C6
ENDCHAR
STARTCHAR underscoredbl
ENCODING 8215
SWIDTH 512 0
DWIDTH 9 0
BBX 9 3 0 -4
BITMAP
AAAA80
000000
AAAA80
ENDCHAR
STARTCHAR quoteleft
ENCODING 8216
SWIDTH 245 0
DWIDTH 4 0
BBX 3 5 1 9
BITMAP
04
60
80
F4
B4
ENDCHAR
STARTCHAR quoteright
ENCODING 8217
SWIDTH 245 0
DWIDTH 4 0
BBX 3 5 1 8
BITMAP
F0
F4
24
60
40
ENDCHAR
STARTCHAR quotesinglbase
ENCODING 8218
SWIDTH 243 0
DWIDTH 4 0
BBX 3 5 1 -3
BITMAP
F0
F4
20
60
40
ENDCHAR
STARTCHAR quotereversed
ENCODING 8219
SWIDTH 243 0
DWIDTH 4 0
BBX 3 5 1 8
BITMAP
B4
F4
80
60
04
ENDCHAR
STARTCHAR quotedblleft
ENCODING 8220
SWIDTH 435 0
DWIDTH 8 0
BBX 6 5 1 9
BITMAP
0410
6090
8180
F5E0
B5E0
ENDCHAR
STARTCHAR quotedblright
ENCODING 8221
SWIDTH 434 0
DWIDTH 8 0
BBX 6 5 1 8
BITMAP
F1D0
F6E0
2460
6080
4100
ENDCHAR
STARTCHAR quotedblbase
ENCODING 8222
SWIDTH 433 0
DWIDTH 8 0
BBX 6 5 1 -3
BITMAP
F2D0
F6E0
2060
6080
4100
ENDCHAR
STARTCHAR uni201F
ENCODING 8223
SWIDTH 434 0
DWIDTH 8 0
BBX 6 5 1 8
BITMAP
B5E0
F5E0
8180
6090
0410
ENDCHAR
STARTCHAR dagger
ENCODING 8224
SWIDTH 512 0
DWIDTH 9 0
BBX 7 16 1 -3
BITMAP
0340
0340
0200
0100
BEFC
A118
0200
0300
0740
0340
0300
0200
0200
0100
0100
0100
ENDCHAR
STARTCHAR daggerdbl
ENCODING 8225
SWIDTH 512 0
DWIDTH 9 0
BBX 7 15 1 -2
BITMAP
0340
0340
0200
0100
BEFC
A118
0200
0340
0340
0200
AA6C
A128
0200
0340
0340
ENDCHAR
STARTCHAR bullet
ENCODING 8226
SWIDTH 457 0
DWIDTH 8 0
BBX 5 5 2 2
BITMAP
7D00
FF00
FF40
BF00
7D00
ENDCHAR
STARTCHAR twodotenleader
ENCODING 8229
SWIDTH 500 0
DWIDTH 9 0
BBX 7 2 1 0
BITMAP
E02C
E02C
ENDCHAR
STARTCHAR ellipsis
ENCODING 8230
SWIDTH 887 0
DWIDTH 16 0
BBX 12 2 2 0
BITMAP
E03C0F
E0380B
ENDCHAR
STARTCHAR uni202F
ENCODING 8239
SWIDTH 125 0
DWIDTH 2 0
BBX 1 1 0 0
BITMAP
00
ENDCHAR
STARTCHAR perthousand
ENCODING 8240
SWIDTH 1017 0
DWIDTH 18 0
BBX 17 12 1 0
BITMAP
2A41900000
A0AA800000
D083000000
C089000000
D218000000
6924000000
0062A02A00
008A14A140
024D09C040
021C15C140
090C21C200
180B90A800
ENDCHAR
STARTCHAR uni2031
ENCODING 8241
SWIDTH 1342 0
DWIDTH 24 0
BBX 23 12 1 0
BITMAP
2A4190000000
A0AA80000000
D08300000000
C08900000000
D21800000000
692400000000
0062A02A02A0
008A14A14D14
024D09C05C14
021C15C16814
090C21C21820
180B90A80A80
ENDCHAR
STARTCHAR minute
ENCODING 8242
SWIDTH 296 0
DWIDTH 5 0
BBX 3 6 1 7
BITMAP
1C
2C
34
70
90
40
ENDCHAR
STARTCHAR second
ENCODING 8243
SWIDTH 436 0
DWIDTH 8 0
BBX 6 6 1 7
BITMAP
1C90
2DD0
35C0
7240
9300
4100
ENDCHAR
STARTCHAR uni2034
ENCODING 8244
SWIDTH 576 0
DWIDTH 10 0
BBX 8 6 1 7
BITMAP
1C97
2DDB
35CD
725C
9324
4110
ENDCHAR
STARTCHAR uni2035
ENCODING 8245
SWIDTH 296 0
DWIDTH 5 0
BBX 3 6 1 7
BITMAP
A0
B0
34
28
0C
04
ENDCHAR
STARTCHAR uni2036
ENCODING 8246
SWIDTH 436 0
DWIDTH 8 0
BBX 6 6 1 7
BITMAP
A340
B380
36C0
28C0
0C90
0410
ENDCHAR
STARTCHAR uni2037
ENCODING 8247
SWIDTH 576 0
DWIDTH 10 0
BBX 8 6 1 7
BITMAP
A368
B3AC
36CD
28CA
0C93
0411
ENDCHAR
STARTCHAR uni2038
ENCODING 8248
SWIDTH 523 0
DWIDTH 9 0
BBX 8 5 1 -3
BITMAP
0240
0A80
1860
6018
8009
ENDCHAR
STARTCHAR guilsinglleft
ENCODING 8249
SWIDTH 307 0
DWIDTH 6 0
BBX 5 7 0 1
BITMAP
0140
0600
1C00
7400
2800
0900
0240
ENDCHAR
STARTCHAR guilsinglright
ENCODING 8250
SWIDTH 307 0
DWIDTH 6 0
BBX 4 7 1 1
BITMAP
80
60
18
0A
1D
34
90
ENDCHAR
STARTCHAR uni203B
ENCODING 8251
SWIDTH 701 0
DWIDTH 13 0
BBX 11 11 1 0
BITMAP
400010
A0B474
28B4D0
0A0340
028D00
74B4B0
74F8B0
034A00
090240
28B4D0
A0B434
ENDCHAR
STARTCHAR exclamdbl
ENCODING 8252
SWIDTH 565 0
DWIDTH 10 0
BBX 8 12 1 0
BITMAP
740D
741E
741E
740D
340D
300D
300C
3008
2008
0000
741E
741D
ENDCHAR
STARTCHAR uni203E
ENCODING 8254
SWIDTH 512 0
DWIDTH 9 0
BBX 9 1 0 15
BITMAP
AAAA80
ENDCHAR
STARTCHAR uni2040
ENCODING 8256
SWIDTH 810 0
DWIDTH 15 0
BBX 12 3 1 10
BITMAP
01AA90
190019
500002
ENDCHAR
STARTCHAR uni2043
ENCODING 8259
SWIDTH 352 0
DWIDTH 6 0
BBX 5 3 1 3
BITMAP
FF40
FF40
FF40
ENDCHAR
STARTCHAR fraction
ENCODING 8260
SWIDTH 205 0
DWIDTH 4 0
BBX 8 13 -2 0
BITMAP
0002
0009
0018
0020
0060
0080
0240
0600
0900
1800
2000
9000
8000
ENDCHAR
STARTCHAR uni2047
ENCODING 8263
SWIDTH 822 0
DWIDTH 15 0
BBX 15 12 0 0
BITMAP
1AE02B90
703890B0
702CE074
20289074
003400A0
00A001C0
01C00240
02400200
02000500
00000000
07800B00
07800B00
ENDCHAR
STARTCHAR uni204B
ENCODING 8267
SWIDTH 605 0
DWIDTH 11 0
BBX 9 15 1 -3
BITMAP
BEE900
1CD340
1CD280
1CD2C0
1CD280
1CD380
1CDA00
1CE400
1CD000
1CD000
1CD000
1CD000
1CD000
1CD000
A8A400
ENDCHAR
STARTCHAR uni204C
ENCODING 8268
SWIDTH 479 0
DWIDTH 9 0
BBX 7 5 1 2
BITMAP
2EA8
7D80
7D80
7D80
1EA8
ENDCHAR
STARTCHAR uni204D
ENCODING 8269
SWIDTH 479 0
DWIDTH 9 0
BBX 6 5 1 2
BITMAP
AB90
16F0
16F0
16F0
AB90
ENDCHAR
STARTCHAR uni204E
ENCODING 8270
SWIDTH 410 0
DWIDTH 7 0
BBX 7 7 0 -3
BITMAP
0240
0340
7628
1AA0
1AA0
7628
0240
ENDCHAR
STARTCHAR uni204F
ENCODING 8271
SWIDTH 245 0
DWIDTH 4 0
BBX 3 12 1 -3
BITMAP
B0
B4
00
00
00
00
00
B4
F4
C0
50
10
ENDCHAR
STARTCHAR uni2050
ENCODING 8272
SWIDTH 809 0
DWIDTH 15 0
BBX 13 13 1 0
BITMAP
01AA9000
1D006800
70000A00
90000340
00000000
00000000
00000000
00000000
00000000
90000340
70000600
19002800
02AA9000
ENDCHAR
STARTCHAR uni2051
ENCODING 8273
SWIDTH 410 0
DWIDTH 7 0
BBX 7 14 0 -1
BITMAP
0240
7668
1AA0
1A90
7628
0340
0240
0240
0340
7628
1AA0
1AA0
7668
0240
ENDCHAR
STARTCHAR uni2052
ENCODING 8274
SWIDTH 482 0
DWIDTH 9 0
BBX 7 17 1 -4
BITMAP
B028
B034
0070
00A0
00D0
01C0
0280
0340
0700
0A00
0D00
1C00
2800
3400
7074
A074
D000
ENDCHAR
STARTCHAR uni2057
ENCODING 8279
SWIDTH 727 0
DWIDTH 13 0
BBX 11 6 1 7
BITMAP
1C9728
2DDB38
35CD70
725CA0
932480
411040
ENDCHAR
STARTCHAR uni205F
ENCODING 8287
SWIDTH 222 0
DWIDTH 4 0
BBX 1 1 0 0
BITMAP
00
ENDCHAR
STARTCHAR uni2061
ENCODING 8289
SWIDTH 0 0
DWIDTH 0 0
BBX 1 1 0 0
BITMAP
00
ENDCHAR
STARTCHAR uni2062
ENCODING 8290
SWIDTH 0 0
DWIDTH 0 0
BBX 1 1 0 0
BITMAP
00
ENDCHAR
STARTCHAR uni2063
ENCODING 8291
SWIDTH 0 0
DWIDTH 0 0
BBX 1 1 0 0
BITMAP
00
ENDCHAR
STARTCHAR uni2064
ENCODING 8292
SWIDTH 0 0
DWIDTH 0 0
BBX 1 1 0 0
BITMAP
00
ENDCHAR
STARTCHAR zerosuperior
ENCODING 8304
SWIDTH 412 0
DWIDTH 7 0
BBX 7 8 0 5
BITMAP
0A90
2434
7028
702C
702C
7028
3434
0A90
ENDCHAR
STARTCHAR uni2071
ENCODING 8305
SWIDTH 245 0
DWIDTH 4 0
BBX 4 10 0 5
BITMAP
1C
18
00
6C
1C
1C
1C
1C
1C
6E
ENDCHAR
STARTCHAR foursuperior
ENCODING 8308
SWIDTH 403 0
DWIDTH 7 0
BBX 7 8 0 5
BITMAP
00A0
02E0
05A0
14A0
60A0
BFFC
00A0
00A0
ENDCHAR
STARTCHAR fivesuperior
ENCODING 8309
SWIDTH 358 0
DWIDTH 6 0
BBX 6 8 0 5
BITMAP
1FD0
2540
3F40
15D0
0060
0060
1090
7A40
ENDCHAR
STARTCHAR sixsuperior
ENCODING 8310
SWIDTH 390 0
DWIDTH 7 0
BBX 7 8 0 5
BITMAP
0250
1800
3BD0
7474
7034
7034
3434
1A90
ENDCHAR
STARTCHAR sevensuperior
ENCODING 8311
SWIDTH 364 0
DWIDTH 7 0
BBX 7 8 0 5
BITMAP
3FF4
6560
0050
00C0
0180
0340
0600
0900
ENDCHAR
STARTCHAR eightsuperior
ENCODING 8312
SWIDTH 374 0
DWIDTH 7 0
BBX 6 8 0 5
BITMAP
1990
7070
7460
1E80
11D0
6070
6030
2990
ENDCHAR
STARTCHAR ninesuperior
ENCODING 8313
SWIDTH 390 0
DWIDTH 7 0
BBX 7 8 0 5
BITMAP
1A90
7070
7034
7474
1EB4
0070
01D0
1A00
ENDCHAR
STARTCHAR uni207A
ENCODING 8314
SWIDTH 536 0
DWIDTH 10 0
BBX 8 8 1 5
BITMAP
0240
0240
0240
FFFE
0240
0240
0240
0240
ENDCHAR
STARTCHAR uni207B
ENCODING 8315
SWIDTH 536 0
DWIDTH 10 0
BBX 8 1 1 8
BITMAP
FFFE
ENDCHAR
STARTCHAR uni207C
ENCODING 8316
SWIDTH 534 0
DWIDTH 10 0
BBX 8 4 1 7
BITMAP
FFFE
0000
0000
FFFE
ENDCHAR
STARTCHAR parenleftsuperior
ENCODING 8317
SWIDTH 268 0
DWIDTH 5 0
BBX 5 12 0 3
BITMAP
0140
0900
2800
3000
7000
6000
A000
6000
7000
3400
1800
0600
ENDCHAR
STARTCHAR parenrightsuperior
ENCODING 8318
SWIDTH 268 0
DWIDTH 5 0
BBX 5 13 0 2
BITMAP
5000
1800
0900
0700
0340
0340
0340
0340
0300
0600
0800
2400
4000
ENDCHAR
STARTCHAR nsuperior
ENCODING 8319
SWIDTH 491 0
DWIDTH 9 0
BBX 9 7 0 5
BITMAP
69F800
1D1C00
1C0D00
1C0D00
1C0D00
1C0D00
7E2E40
ENDCHAR
STARTCHAR zeroinferior
ENCODING 8320
SWIDTH 412 0
DWIDTH 7 0
BBX 7 8 0 -4
BITMAP
0A90
2434
7028
702C
702C
7028
3434
0A90
ENDCHAR
STARTCHAR oneinferior
ENCODING 8321
SWIDTH 333 0
DWIDTH 6 0
BBX 5 8 1 -4
BITMAP
A800
2800
2800
2800
2800
2800
2800
BE40
ENDCHAR
STARTCHAR twoinferior
ENCODING 8322
SWIDTH 373 0
DWIDTH 7 0
BBX 7 8 0 -4
BITMAP
1F90
50A0
00B0
0090
0180
0500
2564
7FF0
ENDCHAR
STARTCHAR threeinferior
ENCODING 8323
SWIDTH 374 0
DWIDTH 7 0
BBX 6 8 0 -4
BITMAP
1F80
11D0
0180
0B80
00A0
0070
1060
7A80
ENDCHAR
STARTCHAR fourinferior
ENCODING 8324
SWIDTH 403 0
DWIDTH 7 0
BBX 7 8 0 -4
BITMAP
00A0
02E0
05A0
14A0
60A0
BFFC
00A0
00A0
ENDCHAR
STARTCHAR fiveinferior
ENCODING 8325
SWIDTH 358 0
DWIDTH 6 0
BBX 6 8 0 -4
BITMAP
1FD0
2540
3F40
15D0
0060
0060
1090
7A40
ENDCHAR
STARTCHAR sixinferior
ENCODING 8326
SWIDTH 390 0
DWIDTH 7 0
BBX 7 8 0 -4
BITMAP
0250
1800
3BD0
7474
7034
7034
3434
1A90
ENDCHAR
STARTCHAR seveninferior
ENCODING 8327
SWIDTH 364 0
DWIDTH 7 0
BBX 7 8 0 -4
BITMAP
3FF4
6560
0050
00C0
0180
0340
0600
0900
ENDCHAR
STARTCHAR eightinferior
ENCODING 8328
SWIDTH 374 0
DWIDTH 7 0
BBX 6 8 0 -4
BITMAP
1990
7070
7460
1E80
11D0
6070
6030
2990
ENDCHAR
STARTCHAR nineinferior
ENCODING 8329
SWIDTH 390 0
DWIDTH 7 0
BBX 7 8 0 -4
BITMAP
1A90
7070
7034
7474
1EB4
0070
01D0
1A00
ENDCHAR
STARTCHAR uni208A
ENCODING 8330
SWIDTH 536 0
DWIDTH 10 0
BBX 8 8 1 -4
BITMAP
0240
0240
0240
FFFE
0240
0240
0240
0240
ENDCHAR
STARTCHAR uni208B
ENCODING 8331
SWIDTH 536 0
DWIDTH 10 0
BBX 8 1 1 -1
BITMAP
FFFE
ENDCHAR
STARTCHAR uni208C
ENCODING 8332
SWIDTH 534 0
DWIDTH 10 0
BBX 8 4 1 -2
BITMAP
FFFE
0000
0000
FFFE
ENDCHAR
STARTCHAR parenleftinferior
ENCODING 8333
SWIDTH 268 0
DWIDTH 5 0
BBX 5 12 0 -6
BITMAP
0140
0900
2800
3000
7000
6000
A000
6000
7000
3400
1800
0600
ENDCHAR
STARTCHAR parenrightinferior
ENCODING 8334
SWIDTH 268 0
DWIDTH 5 0
BBX 5 13 0 -7
BITMAP
5000
1800
0900
0700
0340
0340
0340
0340
0300
0600
0800
2400
4000
ENDCHAR
STARTCHAR uni20A3
ENCODING 8355
SWIDTH 495 0
DWIDTH 9 0
BBX 9 12 0 0
BITMAP
6EAF40
0E0240
0E0180
0E0040
0E0000
6FA800
0E0000
6FA800
0E0000
0E0000
0E0000
7FD000
ENDCHAR
STARTCHAR uni20A4
ENCODING 8356
SWIDTH 495 0
DWIDTH 9 0
BBX 9 12 0 0
BITMAP
01AE00
030740
070000
0B0000
2FA800
074000
2BA800
074000
034000
6B0040
878100
69B900
ENDCHAR
STARTCHAR uni20A7
ENCODING 8359
SWIDTH 1193 0
DWIDTH 21 0
BBX 20 12 1 0
BITMAP
BEA4000000
2C1F050000
2C074D0000
2C076E92A9
2C074D060A
2C1E0D0A01
2EA40D0790
2C000D01F8
2C000D002E
2C000D080B
2C000D190B
BF800B8AA9
ENDCHAR
STARTCHAR uni20AB
ENCODING 8363
SWIDTH 495 0
DWIDTH 9 0
BBX 9 12 0 0
BITMAP
006C00
002C00
02BE40
0AAC00
282C00
341C00
741C00
741C00
382C00
0A9A00
000000
2AA900
ENDCHAR
STARTCHAR Euro
ENCODING 8364
SWIDTH 495 0
DWIDTH 9 0
BBX 9 12 0 0
BITMAP
02A940
0A0340
1D0240
2C0140
7EA400
380000
BEA000
2C0000
2C0000
1D0040
0B0140
02E900
ENDCHAR
STARTCHAR uni20B9
ENCODING 8377
SWIDTH 495 0
DWIDTH 9 0
BBX 8 12 1 0
BITMAP
FFFC
06D0
00E0
FFFC
00E0
02C0
FE00
1E00
0780
02E0
00F4
007F
ENDCHAR
STARTCHAR uni20BA
ENCODING 8378
SWIDTH 495 0
DWIDTH 9 0
BBX 9 12 0 0
BITMAP
7F8000
1E0000
0D0000
0D0000
0EA000
6E0000
0EA000
7E0140
0D0380
0D0740
0D0B00
6FA800
ENDCHAR
STARTCHAR uni20BD
ENCODING 8381
SWIDTH 495 0
DWIDTH 9 0
BBX 9 12 0 0
BITMAP
6FA800
0E0F00
0E0740
0E0740
0E0740
0E0E00
6FA400
0E0000
6FA800
0E0000
0E0000
7FD000
ENDCHAR
STARTCHAR uni20D0
ENCODING 8400
SWIDTH 0 0
DWIDTH 0 0
BBX 8 3 -8 12
BITMAP
0400
6000
FFFE
ENDCHAR
STARTCHAR uni20D1
ENCODING 8401
SWIDTH 0 0
DWIDTH 0 0
BBX 8 3 -8 12
BITMAP
0010
0008
BFFE
ENDCHAR
STARTCHAR uni20D2
ENCODING 8402
SWIDTH 0 0
DWIDTH 0 0
BBX 2 16 -5 -3
BITMAP
90
90
90
90
90
90
90
90
90
90
90
90
90
90
90
40
ENDCHAR
STARTCHAR uni20D3
ENCODING 8403
SWIDTH 0 0
DWIDTH 0 0
BBX 2 12 -5 -3
BITMAP
90
90
90
90
90
90
90
90
90
90
90
90
ENDCHAR
STARTCHAR uni20D4
ENCODING 8404
SWIDTH 0 0
DWIDTH 0 0
BBX 10 5 -10 10
BITMAP
00BE00
024180
490050
280020
2E4010
ENDCHAR
STARTCHAR uni20D5
ENCODING 8405
SWIDTH 0 0
DWIDTH 0 0
BBX 10 5 -8 10
BITMAP
1BE000
742800
900950
800280
401B40
ENDCHAR
STARTCHAR uni20D6
ENCODING 8406
SWIDTH 0 0
DWIDTH 0 0
BBX 8 5 -8 10
BITMAP
1400
6000
FFFE
6000
1400
ENDCHAR
STARTCHAR uni20D7
ENCODING 8407
SWIDTH 0 0
DWIDTH 0 0
BBX 8 5 -8 10
BITMAP
0010
0008
BFFE
0008
0010
ENDCHAR
STARTCHAR uni20D8
ENCODING 8408
SWIDTH 0 0
DWIDTH 0 0
BBX 6 6 -7 2
BITMAP
2F40
61D0
9060
D060
A1D0
2F40
ENDCHAR
STARTCHAR uni20D9
ENCODING 8409
SWIDTH 0 0
DWIDTH 0 0
BBX 7 6 -7 2
BITMAP
2F40
61E4
91E0
90A0
A1D0
2F40
ENDCHAR
STARTCHAR uni20DA
ENCODING 8410
SWIDTH 0 0
DWIDTH 0 0
BBX 7 6 -7 2
BITMAP
2F40
A1D0
D0A0
D1E0
A1E4
2F40
ENDCHAR
STARTCHAR uni20DB
ENCODING 8411
SWIDTH 0 0
DWIDTH 0 0
BBX 10 2 -9 10
BITMAP
609190
B0E1D0
ENDCHAR
STARTCHAR uni20DC
ENCODING 8412
SWIDTH 0 0
DWIDTH 0 0
BBX 13 2 -11 10
BITMAP
60A09180
70A0D1C0
ENDCHAR
STARTCHAR uni20DD
ENCODING 8413
SWIDTH 0 0
DWIDTH 0 0
BBX 18 17 -13 -4
BITMAP
001BFA4000
01A406E000
0740002C00
1D00000A00
2800000280
70000001C0
A0000000D0
9000000090
D0000000A0
9000000090
A0000000D0
70000001C0
2800000240
1D00000A00
0740002C00
01A406E000
001BFA4000
ENDCHAR
STARTCHAR uni20DE
ENCODING 8414
SWIDTH 0 0
DWIDTH 0 0
BBX 18 18 -13 -4
BITMAP
FFFFFFFFE0
D5555555A0
D0000000A0
D0000000A0
D0000000A0
D0000000A0
D0000000A0
D0000000A0
D0000000A0
D0000000A0
D0000000A0
D0000000A0
D0000000A0
D0000000A0
D0000000A0
D0000000A0
FFFFFFFFE0
5555555540
ENDCHAR
STARTCHAR uni20DF
ENCODING 8415
SWIDTH 0 0
DWIDTH 0 0
BBX 22 22 -15 -6
BITMAP
000004000000
00001E000000
00007A800000
0001E0A00000
000780280000
001E000A0000
007800028000
01E00000A000
078000002800
1E0000000A00
780000000280
B000000001E0
280000000380
0A0000000E00
028000003800
00A00000E000
002800038000
000A000E0000
000280380000
0000A0E00000
00002B800000
00000A000000
ENDCHAR
STARTCHAR uni20E1
ENCODING 8417
SWIDTH 0 0
DWIDTH 0 0
BBX 9 5 -9 10
BITMAP
040500
240240
7FFFC0
240240
040500
ENDCHAR
STARTCHAR uni20E4
ENCODING 8420
SWIDTH 0 0
DWIDTH 0 0
BBX 27 22 -18 -4
BITMAP
00000034000000
000000BC000000
000000EE000000
000002CB400000
00000743800000
00000E01D00000
00002C00B00000
00007400380000
0000B0001D0000
0001D0000B0000
00038000038000
000B000001D000
001D000000B000
00380000007400
00B40000002C00
00E00000000E00
02C00000000740
074000000002C0
0E0000000000E0
2C000000000074
7FFFFFFFFFFFFC
15555555555554
ENDCHAR
STARTCHAR uni20E5
ENCODING 8421
SWIDTH 0 0
DWIDTH 0 0
BBX 8 15 -8 -3
BITMAP
9000
3000
2400
1800
0C00
0600
0300
0240
0180
0090
0060
0030
0024
0018
0009
ENDCHAR
STARTCHAR uni20E6
ENCODING 8422
SWIDTH 0 0
DWIDTH 0 0
BBX 5 15 -7 -3
BITMAP
60C0
60C0
60C0
60C0
60C0
60C0
60C0
60C0
60C0
60C0
60C0
60C0
60C0
60C0
60C0
ENDCHAR
STARTCHAR uni20E7
ENCODING 8423
SWIDTH 0 0
DWIDTH 0 0
BBX 16 17 -12 -4
BITMAP
7FFFFFFE
1555555A
00000006
00000006
00000006
00000006
00000006
00000006
00000006
00000006
00000006
00000006
00000006
00000006
00000006
00000006
00000005
ENDCHAR
STARTCHAR uni20E8
ENCODING 8424
SWIDTH 0 0
DWIDTH 0 0
BBX 10 2 -9 -4
BITMAP
609190
B0E1D0
ENDCHAR
STARTCHAR uni20E9
ENCODING 8425
SWIDTH 0 0
DWIDTH 0 0
BBX 10 3 -9 10
BITMAP
FFFFE0
C00060
400010
ENDCHAR
STARTCHAR uni20EA
ENCODING 8426
SWIDTH 0 0
DWIDTH 0 0
BBX 15 6 -12 1
BITMAP
02000000
1D000000
7FFFFFF4
1D555550
06000000
01000000
ENDCHAR
STARTCHAR uni20EB
ENCODING 8427
SWIDTH 0 0
DWIDTH 0 0
BBX 12 18 -10 -4
BITMAP
000246
000608
000918
000C24
001830
003050
0060C0
009180
00C240
024300
030900
060C00
091800
182400
246000
309000
60C000
D18000
ENDCHAR
STARTCHAR uni20EC
ENCODING 8428
SWIDTH 0 0
DWIDTH 0 0
BBX 8 3 -8 -5
BITMAP
BFFE
0008
0010
ENDCHAR
STARTCHAR uni20ED
ENCODING 8429
SWIDTH 0 0
DWIDTH 0 0
BBX 8 3 -8 -5
BITMAP
FFFE
6000
1400
ENDCHAR
STARTCHAR uni20EE
ENCODING 8430
SWIDTH 0 0
DWIDTH 0 0
BBX 8 5 -8 -5
BITMAP
1400
6000
FFFE
6000
1400
ENDCHAR
STARTCHAR uni20EF
ENCODING 8431
SWIDTH 0 0
DWIDTH 0 0
BBX 8 5 -8 -5
BITMAP
0010
0008
BFFE
0008
0010
ENDCHAR
STARTCHAR uni20F0
ENCODING 8432
SWIDTH 0 0
DWIDTH 0 0
BBX 6 6 -7 10
BITMAP
0400
4940
6A90
1A40
6590
0900
ENDCHAR
STARTCHAR uni2100
ENCODING 8448
SWIDTH 939 0
DWIDTH 17 0
BBX 16 13 1 0
BITMAP
00000140
6F400200
A2C00500
91C00800
16C02400
A1C06000
D1C082F8
B9E24A18
00061C00
00091C00
00181C00
00200E09
009006F4
ENDCHAR
STARTCHAR uni2101
ENCODING 8449
SWIDTH 936 0
DWIDTH 17 0
BBX 15 13 1 0
BITMAP
00000140
6F400200
E2C00500
51C00800
16C02400
91C06000
D1C087F8
B9E24908
00060A40
000901A0
0018041C
0020091C
00900AF4
ENDCHAR
STARTCHAR uni2102
ENCODING 8450
SWIDTH 695 0
DWIDTH 13 0
BBX 11 12 1 0
BITMAP
02FE40
1E41A0
780018
980000
C80000
880000
880000
880000
980000
780018
1E41A0
02FE40
ENDCHAR
STARTCHAR uni2103
ENCODING 8451
SWIDTH 1028 0
DWIDTH 19 0
BBX 17 13 1 0
BITMAP
2A40000000
90C01ABF40
C090A00B40
C092C00240
90C7800140
2A47400000
000B400000
000B400000
000B400000
0007800000
0002C00040
0000F40640
00001AA800
ENDCHAR
STARTCHAR uni2104
ENCODING 8452
SWIDTH 646 0
DWIDTH 12 0
BBX 12 12 0 0
BITMAP
0AA800
02D000
06E900
2EDD00
76C500
B6C000
B6C000
7AC000
2FE805
06D008
02D02C
0AAAA8
ENDCHAR
STARTCHAR uni2105
ENCODING 8453
SWIDTH 953 0
DWIDTH 17 0
BBX 17 13 0 0
BITMAP
0000004000
0BE0024000
2874060000
3020080000
7000240000
7000600000
380082F800
0BE14A0B00
00020D0340
00091D0340
00180D0340
00200A0B00
009002F800
ENDCHAR
STARTCHAR uni2106
ENCODING 8454
SWIDTH 1072 0
DWIDTH 19 0
BBX 18 13 1 0
BITMAP
0000010000
2F80060000
A1D0080000
C040240000
C000600000
D000810000
A0514B4780
2F42034280
0009034280
0018034280
0020034280
0090038780
018001F6D0
ENDCHAR
STARTCHAR uni2107
ENCODING 8455
SWIDTH 612 0
DWIDTH 11 0
BBX 11 13 0 0
BITMAP
06FE60
1F41B0
2D0030
2C0010
2D0000
0B4000
06FC00
2E4000
7C0000
780010
7C0074
2E41E0
06FE40
ENDCHAR
STARTCHAR uni2108
ENCODING 8456
SWIDTH 669 0
DWIDTH 12 0
BBX 10 12 1 0
BITMAP
9BF900
F40B80
D002D0
8000E0
0140F0
01FFF0
0180B0
0140F0
0001E0
4002C0
A41B40
1BF900
ENDCHAR
STARTCHAR uni2109
ENCODING 8457
SWIDTH 949 0
DWIDTH 17 0
BBX 16 13 1 0
BITMAP
2A400000
90CBFFFE
C091E006
C090E001
90C0E014
2A40E024
0000FAF4
0000E024
0000E000
0000E000
0000E000
0001E000
000BFD00
ENDCHAR
STARTCHAR uni210A
ENCODING 8458
SWIDTH 657 0
DWIDTH 12 0
BBX 13 13 -1 -4
BITMAP
0006F800
00182C00
00202800
00A03400
01D07400
06D0B540
19D1F500
A1D6B000
00F8A000
0640D000
0D02C000
0E0B4000
07F80000
ENDCHAR
STARTCHAR uni210B
ENCODING 8459
SWIDTH 951 0
DWIDTH 17 0
BBX 18 12 0 0
BITMAP
006FD006D0
0253801490
0D03406000
0D07009000
040B01C000
000BAB8000
000D038000
001C034000
0028074000
0034074000
B090079800
6A4002A000
ENDCHAR
STARTCHAR uni210C
ENCODING 8460
SWIDTH 728 0
DWIDTH 13 0
BBX 12 16 1 -4
BITMAP
009040
02FF40
09BD00
1C0000
2C0780
1E2BF0
0F80B8
0BC03C
02D02D
11D02D
79802C
AE0034
0400A0
02A1C0
0BFA00
146800
ENDCHAR
STARTCHAR uni210D
ENCODING 8461
SWIDTH 715 0
DWIDTH 13 0
BBX 11 12 1 0
BITMAP
BD01F8
890158
890158
890158
890158
890158
8BFF58
890158
890158
890158
890158
BD01F8
ENDCHAR
STARTCHAR uni210E
ENCODING 8462
SWIDTH 569 0
DWIDTH 10 0
BBX 9 13 1 0
BITMAP
2A0000
1A0000
0D0000
0D0000
1C2E00
289B00
2A4B00
390A00
380E00
741D00
B01C00
A02C40
D02E00
ENDCHAR
STARTCHAR uni210F
ENCODING 8463
SWIDTH 569 0
DWIDTH 10 0
BBX 9 13 1 0
BITMAP
2A0000
1A0000
0E6400
6E4000
5C2E00
289B00
2A4B00
390A00
780E00
741D00
B01C00
E02C40
D02E00
ENDCHAR
STARTCHAR uni2110
ENCODING 8464
SWIDTH 496 0
DWIDTH 9 0
BBX 9 12 0 0
BITMAP
006F80
064740
0D0700
1C0B00
080A00
000D00
001D00
001C00
002800
007000
B0D000
7E4000
ENDCHAR
STARTCHAR uni2111
ENCODING 8465
SWIDTH 673 0
DWIDTH 12 0
BBX 10 13 1 -1
BITMAP
069000
2FF920
747FE0
A00A80
6002D0
740B10
1F0B00
000780
0003D0
7D02E0
5F01E0
0B82C0
02FE00
ENDCHAR
STARTCHAR uni2112
ENCODING 8466
SWIDTH 699 0
DWIDTH 13 0
BBX 11 12 0 0
BITMAP
000BE0
0028B4
00B024
00E000
01D000
01D000
02C000
034000
090008
2E4008
A6E424
806FE0
ENDCHAR
STARTCHAR uni2113
ENCODING 8467
SWIDTH 529 0
DWIDTH 10 0
BBX 9 12 0 0
BITMAP
000B80
0034C0
00A080
01C080
028200
071400
0A5000
6D0000
1C0400
281400
2C6000
0B8000
ENDCHAR
STARTCHAR uni2114
ENCODING 8468
SWIDTH 787 0
DWIDTH 14 0
BBX 14 13 0 0
BITMAP
6D2A0000
1D0E0000
BFFFF800
0D0A0000
0D0A6E40
0D0B47C0
0D0A01D0
0D0A01D0
0D0A00D0
0D0A01D0
0D0A01C0
1D0B4740
7F86F900
ENDCHAR
STARTCHAR uni2115
ENCODING 8469
SWIDTH 692 0
DWIDTH 12 0
BBX 11 12 1 0
BITMAP
BC0024
860024
A24024
A49024
892024
821824
818924
809264
8024A4
800874
800624
8002F4
ENDCHAR
STARTCHAR uni2116
ENCODING 8470
SWIDTH 1070 0
DWIDTH 19 0
BBX 19 12 0 0
BITMAP
0FD000B800
02F0022D00
01B8020000
01AD060BE0
018F061C34
0187862828
0182D62828
0180FA1C34
01807E0BE0
51402E0000
F2000E0000
B900052FF4
ENDCHAR
STARTCHAR uni2117
ENCODING 8471
SWIDTH 781 0
DWIDTH 14 0
BBX 12 13 1 0
BITMAP
01BE40
0A41A0
240018
53FE45
80D282
80D1C2
80D282
80FA02
80D002
53F405
240018
0A41A0
01BE40
ENDCHAR
STARTCHAR uni2118
ENCODING 8472
SWIDTH 846 0
DWIDTH 15 0
BBX 14 14 1 -4
BITMAP
06F80000
2E41BF80
780B91D0
F02E00E0
E0B400E0
E2D001D0
7B8102C0
0F474340
1D970E00
3C72F800
34700000
74A00000
75C00000
2E400000
ENDCHAR
STARTCHAR uni2119
ENCODING 8473
SWIDTH 665 0
DWIDTH 12 0
BBX 11 12 1 0
BITMAP
BFFE40
890390
890230
890224
890224
890230
890390
8BFE40
890000
890000
890000
BD0000
ENDCHAR
STARTCHAR uni211A
ENCODING 8474
SWIDTH 751 0
DWIDTH 14 0
BBX 12 13 1 -1
BITMAP
02FE40
1E41A0
380078
98006D
C80066
880066
880062
880065
880068
280064
187D60
01FED0
00007E
ENDCHAR
STARTCHAR uni211B
ENCODING 8475
SWIDTH 789 0
DWIDTH 14 0
BBX 13 13 0 0
BITMAP
00014000
002BF900
02D75B40
0B0B0380
0E0A0380
090E0740
000D1900
001EE000
002CE000
0034B000
00707400
E0803D80
6A001A00
ENDCHAR
STARTCHAR uni211C
ENCODING 8476
SWIDTH 778 0
DWIDTH 14 0
BBX 12 13 1 -1
BITMAP
2F87E0
E2E9B4
D1F078
F4F078
7CF0B0
2CF6C0
28F6E0
50E0F0
00D0F0
11C0F4
7E40B9
AE007C
040010
ENDCHAR
STARTCHAR uni211D
ENCODING 8477
SWIDTH 729 0
DWIDTH 13 0
BBX 12 12 1 0
BITMAP
BFFE40
8902A0
890220
890224
890220
8902A0
8BFF40
892180
891890
890920
890218
BD01FD
ENDCHAR
STARTCHAR uni211E
ENCODING 8478
SWIDTH 725 0
DWIDTH 13 0
BBX 12 13 0 -1
BITMAP
7FFE40
0F06D0
0B00F0
0B00F0
0B00E0
0B07C0
0BFD00
0B1E01
0B0789
0B01F4
0F00F8
7FE23F
000800
ENDCHAR
ENDFONT
